SplineFontDB: 3.0
FontName: Estedad
FullName: Estedad
FamilyName: Estedad
Weight: Regular
Copyright: Copyright (c) 2017, Amin Abedi (aminabedi68@gmail.com---www.instagram.com/aminabedi68),\nwith Reserved Font Name Estedad.\n\nThis Font Software is licensed under the SIL Open Font License, Version 1.1.\n---Thank to "Saber Rastikerdar" for sharing his skill with me and testing my font.---
Version: 0.4(Beta6)
ItalicAngle: 0
UnderlinePosition: 0
UnderlineWidth: 0
Ascent: 1638
Descent: 410
InvalidEm: 0
LayerCount: 2
Layer: 0 0 "Back" 1
Layer: 1 0 "Fore" 0
XUID: [1021 291 -65432716 4771]
FSType: 0
OS2Version: 4
OS2_WeightWidthSlopeOnly: 0
OS2_UseTypoMetrics: 0
CreationTime: 1490942773
ModificationTime: 1491500833
PfmFamily: 17
TTFWeight: 400
TTFWidth: 5
LineGap: 0
VLineGap: 184
OS2TypoAscent: 2455
OS2TypoAOffset: 0
OS2TypoDescent: -750
OS2TypoDOffset: 0
OS2TypoLinegap: 0
OS2WinAscent: 2455
OS2WinAOffset: 0
OS2WinDescent: 750
OS2WinDOffset: 0
HheadAscent: 2455
HheadAOffset: 0
HheadDescent: -750
HheadDOffset: 0
OS2SubXSize: 1331
OS2SubYSize: 1433
OS2SubXOff: 0
OS2SubYOff: 286
OS2SupXSize: 1331
OS2SupYSize: 1433
OS2SupXOff: 0
OS2SupYOff: 983
OS2StrikeYSize: 102
OS2StrikeYPos: 530
OS2CapHeight: 1638
OS2XHeight: 1217
OS2Vendor: 'PfEd'
OS2CodePages: 00000041.20080000
OS2UnicodeRanges: 80002003.80000000.00000008.00000000
Lookup: 1 0 0 "'fina' Terminal Forms in Arabic lookup 0" { "'fina' Terminal Forms in Arabic lookup 0 subtable"  } ['fina' ('DFLT' <'dflt' > 'arab' <'dflt' > ) ]
Lookup: 1 0 0 "'medi' Medial Forms in Arabic lookup 1" { "'medi' Medial Forms in Arabic lookup 1 subtable"  } ['medi' ('DFLT' <'dflt' > 'arab' <'dflt' > ) ]
Lookup: 1 0 0 "'init' Initial Forms in Arabic lookup 2" { "'init' Initial Forms in Arabic lookup 2 subtable"  } ['init' ('DFLT' <'dflt' > 'arab' <'dflt' > ) ]
Lookup: 4 9 1 "'rlig' Required Ligatures in Arabic lookup 3" { "'rlig' Required Ligatures in Arabic lookup 3 subtable"  } ['rlig' ('DFLT' <'dflt' > 'arab' <'dflt' > ) ]

StartChar: "+BiIA"
Encoding: 1570 1570 0
Width: 309
Flags: HMW
AnchorPoint: "Anchor-5" 162 1878 basechar 0
AnchorPoint: "Anchor-3" 153 299 basechar 0
LayerCount: 2
Fore
SplineSet
465 1715 m 1
 547 1615 l 1
 467 1531 386 1488 254 1488 c 0
 105 1488 81 1536 18 1536 c 0
 -33 1536 -84 1472 -129 1427 c 1
 -220 1518 l 1
 -156 1582 -89 1664 15 1664 c 0
 89 1664 154 1616 252 1616 c 0
 350 1616 407 1657 465 1715 c 1
90 1394 m 1
 218 1394 l 1
 218 448 l 1
 90 448 l 1
 90 1394 l 1
EndSplineSet
Validated: 513
PairPos2: "'kern' Horizontal Kerning lookup 6 subtable 3" غ dx=-211 dy=0 dh=-211 dv=0 dx=0 dy=0 dh=0 dv=0
PairPos2: "'kern' Horizontal Kerning lookup 6 subtable 3" ع dx=-211 dy=0 dh=-211 dv=0 dx=0 dy=0 dh=0 dv=0
LCarets2: 1 0
PairPos2: "'kern' Horizontal Kerning lookup 6 subtable 2" ﻛ dx=-20 dy=0 dh=-20 dv=0 dx=0 dy=0 dh=0 dv=0
PairPos2: "'kern' Horizontal Kerning lookup 6 subtable 2" ک dx=-20 dy=0 dh=-20 dv=0 dx=0 dy=0 dh=0 dv=0
PairPos2: "'kern' Horizontal Kerning lookup 6 subtable 2" گ dx=-20 dy=0 dh=-20 dv=0 dx=0 dy=0 dh=0 dv=0
PairPos2: "'kern' Horizontal Kerning lookup 6 subtable 2" ﮔ dx=-20 dy=0 dh=-20 dv=0 dx=0 dy=0 dh=0 dv=0
PairPos2: "'kern' Horizontal Kerning lookup 6 subtable 2" إ dx=163 dy=0 dh=163 dv=0 dx=0 dy=0 dh=0 dv=0
PairPos2: "'kern' Horizontal Kerning lookup 6 subtable 2" آ dx=475 dy=0 dh=475 dv=0 dx=0 dy=0 dh=0 dv=0
PairPos2: "'kern' Horizontal Kerning lookup 6 subtable 2" أ dx=132 dy=0 dh=132 dv=0 dx=0 dy=0 dh=0 dv=0
PairPos2: "'kern' Horizontal Kerning lookup 6 subtable 2" ل dx=242 dy=0 dh=242 dv=0 dx=0 dy=0 dh=0 dv=0
PairPos2: "'kern' Horizontal Kerning lookup 6 subtable 2" ﻟ dx=222 dy=0 dh=222 dv=0 dx=0 dy=0 dh=0 dv=0
PairPos2: "'kern' Horizontal Kerning lookup 6 subtable 2" ﻵ dx=240 dy=0 dh=240 dv=0 dx=0 dy=0 dh=0 dv=0
PairPos2: "'kern' Horizontal Kerning lookup 6 subtable 2" ﻷ dx=240 dy=0 dh=240 dv=0 dx=0 dy=0 dh=0 dv=0
PairPos2: "'kern' Horizontal Kerning lookup 6 subtable 2" ﻹ dx=240 dy=0 dh=240 dv=0 dx=0 dy=0 dh=0 dv=0
PairPos2: "'kern' Horizontal Kerning lookup 6 subtable 2" ﻻ dx=240 dy=0 dh=240 dv=0 dx=0 dy=0 dh=0 dv=0
Ligature2: "'liga' Standard Ligatures in Arabic lookup 6 subtable" ا ٓ
Substitution2: "'fina' Terminal Forms in Arabic lookup 0 subtable" ﺂ
EndChar

StartChar: "+BicA"
Encoding: 1575 1575 1
Width: 309
Flags: HMW
AnchorPoint: "Anchor-5" 155 1802 basechar 0
AnchorPoint: "Anchor-3" 160 318 basechar 0
LayerCount: 2
Fore
SplineSet
90 1665 m 1
 219 1665 l 1
 219 448 l 1
 90 448 l 1
 90 1665 l 1
EndSplineSet
Validated: 513
PairPos2: "'kern' Horizontal Kerning lookup 6 subtable 3" غ dx=-293 dy=0 dh=-293 dv=0 dx=0 dy=0 dh=0 dv=0
PairPos2: "'kern' Horizontal Kerning lookup 6 subtable 3" ع dx=-293 dy=0 dh=-293 dv=0 dx=0 dy=0 dh=0 dv=0
Substitution2: "'fina' Terminal Forms in Arabic lookup 0 subtable" ﺎ
EndChar

StartChar: "+BiEA"
Encoding: 1569 1569 4
Width: 668
Flags: HMW
AnchorPoint: "Anchor-5" 321 1313 basechar 0
AnchorPoint: "Anchor-3" 337 360 basechar 0
LayerCount: 2
Fore
SplineSet
362 1093 m 3
 388 1093 414 1089 443 1082 c 1
 409 958 l 1
 391.551757812 962.813476562 375.37109375 965.001953125 360.375 965.001953125 c 3
 274.911132812 965.001953125 219 898.1953125 219 813 c 3
 219 762 259.993164062 744 338 744 c 3
 403 744 479 763 514 784 c 1
 578 672 l 1
 186 448 l 1
 122 560 l 1
 241 628 l 1
 162.315429688 651.84375 90 716.081054688 90 813 c 3
 90 965.3125 200.91015625 1093 362 1093 c 3
EndSplineSet
Validated: 513
EndChar

StartChar: "+Bi0A"
Encoding: 1581 1581 11
Width: 1258
Flags: HMW
AnchorPoint: "Anchor-5" 435 1382 basechar 0
AnchorPoint: "Anchor-3" 647 -781 basechar 0
LayerCount: 2
Fore
SplineSet
437 1092 m 0
 637 1092 895 993 1062 960 c 1
 1067 840 l 1
 794.443359375 717.627929688 218 454.369140625 218 57 c 0
 218 -180 437 -293 656 -293 c 0
 826 -293 965 -225 1069 -94 c 1
 1168 -177 l 1
 1030 -341 879 -422 656 -422 c 0
 411 -422 90 -289 90 54 c 0
 90 464.995117188 568.260742188 740.55859375 848 882 c 1
 728 907 574 963 437 963 c 0
 352 963 271 905 271 821 c 0
 271 782 295 739 319 704 c 1
 212 633 l 1
 173 692 150 742 144 821 c 0
 146 981 281 1092 437 1092 c 0
EndSplineSet
Validated: 513
Substitution2: "'init' Initial Forms in Arabic lookup 2 subtable" ﺣ
Substitution2: "'medi' Medial Forms in Arabic lookup 1 subtable" ﺤ
Substitution2: "'fina' Terminal Forms in Arabic lookup 0 subtable" ﺢ
EndChar

StartChar: "+Bi8A"
Encoding: 1583 1583 13
Width: 804
Flags: HMW
AnchorPoint: "Anchor-5" 363 1484 basechar 0
AnchorPoint: "Anchor-3" 390 171 basechar 0
LayerCount: 2
Fore
SplineSet
372 1266 m 1
 524.514648438 1110.94335938 714 950.421875 714 728 c 0
 714 474.891601562 382.109375 446 90 446 c 1
 90 575 l 1
 289.512695312 575 585 575.401367188 585 725 c 0
 585 894.234375 415.321289062 1038.34570312 280 1176 c 1
 372 1266 l 1
EndSplineSet
Validated: 513
PairPos2: "'kern' Horizontal Kerning lookup 6 subtable 3" غ dx=-457 dy=0 dh=-457 dv=0 dx=0 dy=0 dh=0 dv=0
PairPos2: "'kern' Horizontal Kerning lookup 6 subtable 3" ع dx=-457 dy=0 dh=-457 dv=0 dx=0 dy=0 dh=0 dv=0
Substitution2: "'fina' Terminal Forms in Arabic lookup 0 subtable" ﺪ
EndChar

StartChar: "+BjEA"
Encoding: 1585 1585 15
Width: 741
Flags: HMW
AnchorPoint: "Anchor-5" 260 1095 basechar 0
AnchorPoint: "Anchor-3" 363 -231 basechar 0
LayerCount: 2
Fore
SplineSet
578 923 m 1
 620 825 651 701 651 582 c 0
 651 273 447 57 136 -64 c 1
 90 57 l 1
 328 151 523 311 523 578 c 0
 523 677 498 774 460 872 c 1
 578 923 l 1
EndSplineSet
Validated: 513
PairPos2: "'kern' Horizontal Kerning lookup 6 subtable 4" uni0645 dx=-300 dy=0 dh=-300 dv=0 dx=0 dy=0 dh=0 dv=0
PairPos2: "'kern' Horizontal Kerning lookup 6 subtable 3" غ dx=-567 dy=0 dh=-567 dv=0 dx=0 dy=0 dh=0 dv=0
PairPos2: "'kern' Horizontal Kerning lookup 6 subtable 3" ع dx=-567 dy=0 dh=-567 dv=0 dx=0 dy=0 dh=0 dv=0
PairPos2: "'kern' Horizontal Kerning lookup 6 subtable 1" uni0629 dx=-297 dy=0 dh=-297 dv=0 dx=0 dy=0 dh=0 dv=0
PairPos2: "'kern' Horizontal Kerning lookup 6 subtable 1" ﺓ dx=-297 dy=0 dh=-297 dv=0 dx=0 dy=0 dh=0 dv=0
PairPos2: "'kern' Horizontal Kerning lookup 6 subtable 1" uni0649 dx=-99 dy=0 dh=-99 dv=0 dx=0 dy=0 dh=0 dv=0
PairPos2: "'kern' Horizontal Kerning lookup 6 subtable 1" ﻙ dx=-302 dy=0 dh=-302 dv=0 dx=0 dy=0 dh=0 dv=0
PairPos2: "'kern' Horizontal Kerning lookup 6 subtable 1" ء dx=-300 dy=0 dh=-300 dv=0 dx=0 dy=0 dh=0 dv=0
PairPos2: "'kern' Horizontal Kerning lookup 6 subtable 1" ﺋ dx=-300 dy=0 dh=-300 dv=0 dx=0 dy=0 dh=0 dv=0
PairPos2: "'kern' Horizontal Kerning lookup 6 subtable 1" آ dx=-250 dy=0 dh=-250 dv=0 dx=0 dy=0 dh=0 dv=0
PairPos2: "'kern' Horizontal Kerning lookup 6 subtable 1" أ dx=-300 dy=0 dh=-300 dv=0 dx=0 dy=0 dh=0 dv=0
PairPos2: "'kern' Horizontal Kerning lookup 6 subtable 1" ا dx=-266 dy=0 dh=-266 dv=0 dx=0 dy=0 dh=0 dv=0
PairPos2: "'kern' Horizontal Kerning lookup 6 subtable 1" ب dx=-300 dy=0 dh=-300 dv=0 dx=0 dy=0 dh=0 dv=0
PairPos2: "'kern' Horizontal Kerning lookup 6 subtable 1" ﺑ dx=-200 dy=0 dh=-200 dv=0 dx=0 dy=0 dh=0 dv=0
PairPos2: "'kern' Horizontal Kerning lookup 6 subtable 1" ت dx=-300 dy=0 dh=-300 dv=0 dx=0 dy=0 dh=0 dv=0
PairPos2: "'kern' Horizontal Kerning lookup 6 subtable 1" ﺗ dx=-300 dy=0 dh=-300 dv=0 dx=0 dy=0 dh=0 dv=0
PairPos2: "'kern' Horizontal Kerning lookup 6 subtable 1" ث dx=-300 dy=0 dh=-300 dv=0 dx=0 dy=0 dh=0 dv=0
PairPos2: "'kern' Horizontal Kerning lookup 6 subtable 1" ﺛ dx=-300 dy=0 dh=-300 dv=0 dx=0 dy=0 dh=0 dv=0
PairPos2: "'kern' Horizontal Kerning lookup 6 subtable 1" ج dx=-430 dy=0 dh=-430 dv=0 dx=0 dy=0 dh=0 dv=0
PairPos2: "'kern' Horizontal Kerning lookup 6 subtable 1" ﺟ dx=-300 dy=0 dh=-300 dv=0 dx=0 dy=0 dh=0 dv=0
PairPos2: "'kern' Horizontal Kerning lookup 6 subtable 1" ح dx=-430 dy=0 dh=-430 dv=0 dx=0 dy=0 dh=0 dv=0
PairPos2: "'kern' Horizontal Kerning lookup 6 subtable 1" ﺣ dx=-300 dy=0 dh=-300 dv=0 dx=0 dy=0 dh=0 dv=0
PairPos2: "'kern' Horizontal Kerning lookup 6 subtable 1" خ dx=-430 dy=0 dh=-430 dv=0 dx=0 dy=0 dh=0 dv=0
PairPos2: "'kern' Horizontal Kerning lookup 6 subtable 1" ﺧ dx=-300 dy=0 dh=-300 dv=0 dx=0 dy=0 dh=0 dv=0
PairPos2: "'kern' Horizontal Kerning lookup 6 subtable 1" د dx=-300 dy=0 dh=-300 dv=0 dx=0 dy=0 dh=0 dv=0
PairPos2: "'kern' Horizontal Kerning lookup 6 subtable 1" ذ dx=-300 dy=0 dh=-300 dv=0 dx=0 dy=0 dh=0 dv=0
PairPos2: "'kern' Horizontal Kerning lookup 6 subtable 1" ر dx=-200 dy=0 dh=-200 dv=0 dx=0 dy=0 dh=0 dv=0
PairPos2: "'kern' Horizontal Kerning lookup 6 subtable 1" ز dx=-200 dy=0 dh=-200 dv=0 dx=0 dy=0 dh=0 dv=0
PairPos2: "'kern' Horizontal Kerning lookup 6 subtable 1" س dx=-300 dy=0 dh=-300 dv=0 dx=0 dy=0 dh=0 dv=0
PairPos2: "'kern' Horizontal Kerning lookup 6 subtable 1" ﺳ dx=-300 dy=0 dh=-300 dv=0 dx=0 dy=0 dh=0 dv=0
PairPos2: "'kern' Horizontal Kerning lookup 6 subtable 1" ش dx=-300 dy=0 dh=-300 dv=0 dx=0 dy=0 dh=0 dv=0
PairPos2: "'kern' Horizontal Kerning lookup 6 subtable 1" ﺷ dx=-300 dy=0 dh=-300 dv=0 dx=0 dy=0 dh=0 dv=0
PairPos2: "'kern' Horizontal Kerning lookup 6 subtable 1" ص dx=-300 dy=0 dh=-300 dv=0 dx=0 dy=0 dh=0 dv=0
PairPos2: "'kern' Horizontal Kerning lookup 6 subtable 1" ﺻ dx=-300 dy=0 dh=-300 dv=0 dx=0 dy=0 dh=0 dv=0
PairPos2: "'kern' Horizontal Kerning lookup 6 subtable 1" ض dx=-300 dy=0 dh=-300 dv=0 dx=0 dy=0 dh=0 dv=0
PairPos2: "'kern' Horizontal Kerning lookup 6 subtable 1" ﺿ dx=-300 dy=0 dh=-300 dv=0 dx=0 dy=0 dh=0 dv=0
PairPos2: "'kern' Horizontal Kerning lookup 6 subtable 1" ط dx=-300 dy=0 dh=-300 dv=0 dx=0 dy=0 dh=0 dv=0
PairPos2: "'kern' Horizontal Kerning lookup 6 subtable 1" ﻃ dx=-300 dy=0 dh=-300 dv=0 dx=0 dy=0 dh=0 dv=0
PairPos2: "'kern' Horizontal Kerning lookup 6 subtable 1" ظ dx=-300 dy=0 dh=-300 dv=0 dx=0 dy=0 dh=0 dv=0
PairPos2: "'kern' Horizontal Kerning lookup 6 subtable 1" ﻇ dx=-300 dy=0 dh=-300 dv=0 dx=0 dy=0 dh=0 dv=0
PairPos2: "'kern' Horizontal Kerning lookup 6 subtable 1" ع dx=-550 dy=0 dh=-550 dv=0 dx=0 dy=0 dh=0 dv=0
PairPos2: "'kern' Horizontal Kerning lookup 6 subtable 1" ﻋ dx=-300 dy=0 dh=-300 dv=0 dx=0 dy=0 dh=0 dv=0
PairPos2: "'kern' Horizontal Kerning lookup 6 subtable 1" غ dx=-550 dy=0 dh=-550 dv=0 dx=0 dy=0 dh=0 dv=0
PairPos2: "'kern' Horizontal Kerning lookup 6 subtable 1" ﻏ dx=-300 dy=0 dh=-300 dv=0 dx=0 dy=0 dh=0 dv=0
PairPos2: "'kern' Horizontal Kerning lookup 6 subtable 1" ف dx=-300 dy=0 dh=-300 dv=0 dx=0 dy=0 dh=0 dv=0
PairPos2: "'kern' Horizontal Kerning lookup 6 subtable 1" ﻓ dx=-300 dy=0 dh=-300 dv=0 dx=0 dy=0 dh=0 dv=0
PairPos2: "'kern' Horizontal Kerning lookup 6 subtable 1" ق dx=-200 dy=0 dh=-200 dv=0 dx=0 dy=0 dh=0 dv=0
PairPos2: "'kern' Horizontal Kerning lookup 6 subtable 1" ﻗ dx=-300 dy=0 dh=-300 dv=0 dx=0 dy=0 dh=0 dv=0
PairPos2: "'kern' Horizontal Kerning lookup 6 subtable 1" ﻛ dx=-450 dy=0 dh=-450 dv=0 dx=0 dy=0 dh=0 dv=0
PairPos2: "'kern' Horizontal Kerning lookup 6 subtable 1" ل dx=-150 dy=0 dh=-150 dv=0 dx=0 dy=0 dh=0 dv=0
PairPos2: "'kern' Horizontal Kerning lookup 6 subtable 1" ﻟ dx=-294 dy=0 dh=-294 dv=0 dx=0 dy=0 dh=0 dv=0
PairPos2: "'kern' Horizontal Kerning lookup 6 subtable 1" ﻣ dx=-298 dy=0 dh=-298 dv=0 dx=0 dy=0 dh=0 dv=0
PairPos2: "'kern' Horizontal Kerning lookup 6 subtable 1" ن dx=-170 dy=0 dh=-170 dv=0 dx=0 dy=0 dh=0 dv=0
PairPos2: "'kern' Horizontal Kerning lookup 6 subtable 1" ﻧ dx=-298 dy=0 dh=-298 dv=0 dx=0 dy=0 dh=0 dv=0
PairPos2: "'kern' Horizontal Kerning lookup 6 subtable 1" ه dx=-297 dy=0 dh=-297 dv=0 dx=0 dy=0 dh=0 dv=0
PairPos2: "'kern' Horizontal Kerning lookup 6 subtable 1" ﻫ dx=-306 dy=0 dh=-306 dv=0 dx=0 dy=0 dh=0 dv=0
PairPos2: "'kern' Horizontal Kerning lookup 6 subtable 1" ؤ dx=-220 dy=0 dh=-220 dv=0 dx=0 dy=0 dh=0 dv=0
PairPos2: "'kern' Horizontal Kerning lookup 6 subtable 1" و dx=-220 dy=0 dh=-220 dv=0 dx=0 dy=0 dh=0 dv=0
PairPos2: "'kern' Horizontal Kerning lookup 6 subtable 1" ئ dx=-99 dy=0 dh=-99 dv=0 dx=0 dy=0 dh=0 dv=0
PairPos2: "'kern' Horizontal Kerning lookup 6 subtable 1" ي dx=-99 dy=0 dh=-99 dv=0 dx=0 dy=0 dh=0 dv=0
PairPos2: "'kern' Horizontal Kerning lookup 6 subtable 1" ﻳ dx=-120 dy=0 dh=-120 dv=0 dx=0 dy=0 dh=0 dv=0
PairPos2: "'kern' Horizontal Kerning lookup 6 subtable 1" پ dx=-300 dy=0 dh=-300 dv=0 dx=0 dy=0 dh=0 dv=0
PairPos2: "'kern' Horizontal Kerning lookup 6 subtable 1" چ dx=-400 dy=0 dh=-400 dv=0 dx=0 dy=0 dh=0 dv=0
PairPos2: "'kern' Horizontal Kerning lookup 6 subtable 1" ﭼ dx=-300 dy=0 dh=-300 dv=0 dx=0 dy=0 dh=0 dv=0
PairPos2: "'kern' Horizontal Kerning lookup 6 subtable 1" ژ dx=-250 dy=0 dh=-250 dv=0 dx=0 dy=0 dh=0 dv=0
PairPos2: "'kern' Horizontal Kerning lookup 6 subtable 1" ک dx=-430 dy=0 dh=-430 dv=0 dx=0 dy=0 dh=0 dv=0
PairPos2: "'kern' Horizontal Kerning lookup 6 subtable 1" گ dx=-430 dy=0 dh=-430 dv=0 dx=0 dy=0 dh=0 dv=0
PairPos2: "'kern' Horizontal Kerning lookup 6 subtable 1" ﮔ dx=-430 dy=0 dh=-430 dv=0 dx=0 dy=0 dh=0 dv=0
PairPos2: "'kern' Horizontal Kerning lookup 6 subtable 1" ۀ dx=-297 dy=0 dh=-297 dv=0 dx=0 dy=0 dh=0 dv=0
PairPos2: "'kern' Horizontal Kerning lookup 6 subtable 1" ۊ dx=-200 dy=0 dh=-200 dv=0 dx=0 dy=0 dh=0 dv=0
PairPos2: "'kern' Horizontal Kerning lookup 6 subtable 1" ی dx=-99 dy=0 dh=-99 dv=0 dx=0 dy=0 dh=0 dv=0
Substitution2: "'fina' Terminal Forms in Arabic lookup 0 subtable" ﺮ
EndChar

StartChar: "+BjMA"
Encoding: 1587 1587 18
Width: 2500
Flags: HMW
AnchorPoint: "Anchor-5" 1838 1249 basechar 0
AnchorPoint: "Anchor-3" 681 -417 basechar 0
LayerCount: 2
Fore
SplineSet
1329 923 m 1
 1344 888 1356.16601562 852.051757812 1367 817 c 0
 1384 762 1398 710 1417 672 c 0
 1448 609 1475 577 1582 577 c 3
 1773.24902344 577 1774 697.258789062 1774 897 c 1
 1903 897 l 1
 1903 702 1903.69042969 576.930664062 2087.49316406 576.930664062 c 3
 2200.89746094 576.930664062 2281.73535156 650.336914062 2281.73535156 766.63671875 c 3
 2281.73535156 820.000976562 2272 864 2253 905 c 1
 2372 956 l 1
 2398 893 2410.1015625 834.059570312 2410.1015625 763.310546875 c 3
 2410.1015625 573.876953125 2264.6875 447.946289062 2089.43457031 447.946289062 c 3
 1970.40527344 447.946289062 1888.04492188 488.9375 1838 559 c 1
 1786.86914062 487.416992188 1703.60449219 448 1582 448 c 3
 1509 448 1449 469 1402 500 c 1
 1394 400 1370 306 1324 226 c 0
 1198 7 931 -132 686 -132 c 3
 355.782226562 -132 90 52.3505859375 90 341 c 3
 90 558 260 792 623 956 c 1
 676 839 l 1
 340 687 219 495 219 341 c 3
 219 140.9375 404.9375 -3 686 -3 c 3
 879 -3 1115 123 1212 291 c 0
 1253 363 1276 457 1276 561 c 3
 1276 661 1255 769 1211 872 c 1
 1329 923 l 1
EndSplineSet
Validated: 513
Substitution2: "'init' Initial Forms in Arabic lookup 2 subtable" ﺳ
Substitution2: "'medi' Medial Forms in Arabic lookup 1 subtable" ﺴ
Substitution2: "'fina' Terminal Forms in Arabic lookup 0 subtable" ﺲ
EndChar

StartChar: "+BjUA"
Encoding: 1589 1589 20
Width: 2327
Flags: HMW
AnchorPoint: "Anchor-5" 1968 1368 basechar 0
AnchorPoint: "Anchor-3" 679 -401 basechar 0
LayerCount: 2
Fore
SplineSet
1404 524 m 5
 1404 524 1403 512 1402 500 c 5
 1394 400 1370 306 1324 226 c 4
 1198 7 931 -132 686 -132 c 7
 355.782226562 -132 90 52.3505859375 90 341 c 7
 90 558 260 792 623 956 c 5
 676 839 l 5
 340 687 219 495 219 341 c 7
 219 140.9375 404.9375 -3 686 -3 c 7
 879 -3 1115 123 1212 291 c 4
 1253 363 1276 457 1276 561 c 7
 1276 661 1255 769 1211 872 c 5
 1329 923 l 5
 1364 841 1387 755 1398 672 c 5
 1423 657 1448 644 1473 632 c 5
 1568 834 1756 1092 1973 1092 c 7
 2128 1092 2237 960 2237 826 c 7
 2237 590 1952 448 1698 448 c 7
 1591 448 1492 481 1404 524 c 5
1973 963 m 7
 1828 963 1658 727 1594 589 c 5
 1627 581 1665 577 1698 577 c 7
 1903 577 2108 685 2108 826 c 7
 2108 894 2057 963 1973 963 c 7
EndSplineSet
Validated: 513
Substitution2: "'init' Initial Forms in Arabic lookup 2 subtable" ﺻ
Substitution2: "'medi' Medial Forms in Arabic lookup 1 subtable" ﺼ
Substitution2: "'fina' Terminal Forms in Arabic lookup 0 subtable" ﺺ
EndChar

StartChar: "+BjcA"
Encoding: 1591 1591 22
Width: 1174
Flags: HMW
AnchorPoint: "Anchor-5" 817 1491 basechar 0
AnchorPoint: "Anchor-3" 542 211 basechar 0
LayerCount: 2
Fore
SplineSet
253 1665 m 1
 382 1665 l 1
 382 748 l 1
 413 800 449 851 490 899 c 0
 579 1003 689 1093 820 1093 c 0
 976 1093 1084 962 1084 827 c 0
 1084 710 1010 613 910 549 c 0
 810 485 623 448 487 448 c 2
 90 448 l 1
 90 575 l 1
 253 575 l 1
 253 1665 l 1
820 964 m 0
 753 964 665 906 588 816 c 0
 525 742 474 651 439 575 c 1
 608.845703125 575 734.815429688 589.041992188 841 657 c 4
 916 705 955 764 955 827 c 0
 955 895 904 964 820 964 c 0
EndSplineSet
Validated: 513
Substitution2: "'init' Initial Forms in Arabic lookup 2 subtable" ﻃ
Substitution2: "'medi' Medial Forms in Arabic lookup 1 subtable" ﻄ
Substitution2: "'fina' Terminal Forms in Arabic lookup 0 subtable" ﻂ
EndChar

StartChar: "+BjkA"
Encoding: 1593 1593 24
Width: 1258
Flags: HMW
AnchorPoint: "Anchor-5" 567 1552 basechar 0
AnchorPoint: "Anchor-3" 659 -617 basechar 0
LayerCount: 2
Fore
SplineSet
660 -422 m 0
 435 -422 90 -319 90 110 c 0
 90 364 226 605 423 758 c 1
 299.686523438 771.139648438 162.942382812 842.217773438 162.942382812 995.392578125 c 0
 162.942382812 1180.50195312 366 1360 572 1360 c 0
 620 1360 676 1349 729 1333 c 1
 698 1208 l 1
 663 1221 619 1231 575 1231 c 0
 419 1231 291 1095 291 987 c 0
 291 904 433 881 518 881 c 0
 619 881 705 900 799 930 c 1
 840 808 l 1
 792 794 739 777 683 760 c 0
 428 667 220 389 220 105 c 0
 220 -210 479 -294 660 -294 c 0
 815 -294 953 -243 1070 -95 c 1
 1168 -179 l 1
 1037 -335 888 -422 660 -422 c 0
EndSplineSet
Validated: 513
Substitution2: "'init' Initial Forms in Arabic lookup 2 subtable" ﻋ
Substitution2: "'medi' Medial Forms in Arabic lookup 1 subtable" ﻌ
Substitution2: "'fina' Terminal Forms in Arabic lookup 0 subtable" ﻊ
EndChar

StartChar: "+BqkA"
Encoding: 1705 1705 28
Width: 1783
Flags: HMW
AnchorPoint: "Anchor-5" 673 1640 basechar 0
AnchorPoint: "Anchor-3" 808 84 basechar 0
LayerCount: 2
Fore
SplineSet
1408 807 m 0
 1408 860 1393 892 1335 942 c 0
 1277 992 1173 1051 1017 1126 c 0
 937.036132812 1164.46386719 881.94140625 1231.01660156 881.94140625 1311.54101562 c 0
 881.94140625 1386.7109375 930.497070312 1453.98535156 1005 1503 c 2
 1622 1911 l 1
 1693 1803 l 1
 1076 1395 l 2
 1024 1360 1010 1329 1010 1310 c 0
 1010 1291 1022 1266 1073 1242 c 0
 1233 1165 1343 1105 1419 1040 c 0
 1495 975 1537 894 1537 807 c 0
 1537 720 1511 629 1446 560 c 0
 1378.4453125 488.288085938 1290 447.974609375 885.2578125 447.974609375 c 0
 671.325195312 447.974609375 473.76953125 450.446289062 324 504 c 0
 163 561 90 654 90 794 c 0
 90 863 107 911 124 976 c 1
 248 943 l 1
 235 894 218 841 218 793 c 0
 218 701 278 657 365 627 c 0
 496 583 713 577 951 577 c 0
 1221 577 1314 607 1352 648 c 0
 1390 689 1408 745 1408 807 c 0
EndSplineSet
Validated: 513
Substitution2: "'init' Initial Forms in Arabic lookup 2 subtable" ﻛ
Substitution2: "'medi' Medial Forms in Arabic lookup 1 subtable" ﻜ
Substitution2: "'fina' Terminal Forms in Arabic lookup 0 subtable" ﻚ
EndChar

StartChar: "+/tkA"
Encoding: 1603 1603 30
Width: 1627
Flags: HMW
AnchorPoint: "Anchor-5" 673 1640 basechar 0
AnchorPoint: "Anchor-3" 774 92 basechar 0
LayerCount: 2
Fore
SplineSet
1408 807 m 0
 1408 1095 1359 1262 1243 1463 c 1
 1355 1528 l 1
 1479 1313 1537 1111 1537 807 c 0
 1537 720 1511 629 1446 560 c 0
 1378.4453125 488.288085938 1290 447.974609375 885.2578125 447.974609375 c 0
 671.325195312 447.974609375 473.76953125 450.446289062 324 504 c 0
 163 561 90 654 90 794 c 0
 90 863 107 911 124 976 c 1
 248 943 l 1
 235 894 218 841 218 793 c 0
 218 701 278 657 365 627 c 0
 496 583 713 577 951 577 c 0
 1221 577 1314 607 1352 648 c 0
 1390 689 1408 745 1408 807 c 0
EndSplineSet
Refer: 187 1620 N 1 0 0 1 600 -769 2
Validated: 513
Substitution2: "'init' Initial Forms in Arabic lookup 2 subtable" ﻛ
Substitution2: "'init' Initial Forms in Arabic lookup 2 subtable" ﻛ
Substitution2: "'medi' Medial Forms in Arabic lookup 1 subtable" ﻜ
Substitution2: "'medi' Medial Forms in Arabic lookup 1 subtable" ﻜ
Substitution2: "'fina' Terminal Forms in Arabic lookup 0 subtable" ﻚ
EndChar

StartChar: "+BkQA"
Encoding: 1604 1604 32
Width: 1484
Flags: HMW
AnchorPoint: "Anchor-5" 612 1230 basechar 0
AnchorPoint: "Anchor-3" 686 -362 basechar 0
LayerCount: 2
Fore
SplineSet
1266 1665 m 1
 1394 1665 l 1
 1394 473 l 2
 1394 119 1003 -132 686 -132 c 0
 393 -132 90 36 90 341 c 0
 90 558 260 792 623 956 c 1
 676 839 l 1
 340 687 219 495 219 341 c 0
 219 122 440 -3 686 -3 c 0
 920 -3 1266 195 1266 473 c 2
 1266 1665 l 1
EndSplineSet
Validated: 513
Substitution2: "'init' Initial Forms in Arabic lookup 2 subtable" ﻟ
Substitution2: "'medi' Medial Forms in Arabic lookup 1 subtable" ﻠ
Substitution2: "'fina' Terminal Forms in Arabic lookup 0 subtable" ﻞ
EndChar

StartChar: uni0645
Encoding: 1605 1605 33
Width: 1110
Flags: HMW
AnchorPoint: "Anchor-5" 641 1325 basechar 0
AnchorPoint: "Anchor-3" 619 -315 basechar 0
LayerCount: 2
Fore
SplineSet
642 1093 m 3
 824 1093 1020 905 1020 716 c 0
 1020 571 939.125600576 448 744 448 c 3
 628 448 511 465 421 465 c 0
 264 465 219 402 219 261 c 2
 219 -422 l 1
 90 -422 l 1
 90 262 l 2
 90 379 120 533 291 575 c 1
 348 731 l 2
 380 818 409 901 450 968 c 0
 491 1035 556 1093 642 1093 c 3
744 577 m 3
 814.007142493 577 892 597 892 716 c 0
 889 843 743 965 642 965 c 3
 610 965 590 950 560 901 c 0
 530 852 502 773 469 686 c 2
 435 595 l 1
 538 595 648 577 744 577 c 3
EndSplineSet
Validated: 1
Substitution2: "'fina' Terminal Forms in Arabic lookup 0 subtable" ﻢ
Substitution2: "'medi' Medial Forms in Arabic lookup 1 subtable" ﻤ
Substitution2: "'init' Initial Forms in Arabic lookup 2 subtable" ﻣ
EndChar

StartChar: "+BkgA"
Encoding: 1608 1608 35
Width: 785
Flags: HMW
AnchorPoint: "Anchor-5" 408 1338 basechar 0
AnchorPoint: "Anchor-3" 378 -256 basechar 0
LayerCount: 2
Fore
SplineSet
403 1093 m 0
 611 1093 695 773 695 582 c 0
 695 273 491 57 180 -64 c 1
 134 57 l 1
 338 137 509 266 555 468 c 1
 503 456 462 448 405 448 c 0
 215 448 90 557 90 726 c 0
 90 904 232 1093 403 1093 c 0
403 964 m 0
 313 964 219 842 219 729 c 0
 219 617 304 578 409 578 c 0
 459 578 514 587 566 601 c 1
 559 751 496 964 403 964 c 0
EndSplineSet
Validated: 513
PairPos2: "'kern' Horizontal Kerning lookup 6 subtable 3" غ dx=-299 dy=0 dh=-299 dv=0 dx=0 dy=0 dh=0 dv=0
PairPos2: "'kern' Horizontal Kerning lookup 6 subtable 3" ع dx=-299 dy=0 dh=-299 dv=0 dx=0 dy=0 dh=0 dv=0
Substitution2: "'fina' Terminal Forms in Arabic lookup 0 subtable" ﻮ
EndChar

StartChar: "+BkcA"
Encoding: 1607 1607 38
Width: 759
Flags: HMW
AnchorPoint: "Anchor-5" 367 1443 basechar 0
AnchorPoint: "Anchor-3" 377 227 basechar 0
LayerCount: 2
Fore
SplineSet
277 1206 m 1
 462 1120 669 930 669 706 c 0
 669 541 551 448 379 448 c 0
 207 448 90 541 90 706 c 0
 90 836 166 977 266 1066 c 1
 215 1093 l 1
 277 1206 l 1
379 991 m 1
 307 919 219 815 219 706 c 0
 219 625 273 577 379 577 c 0
 485 577 540 625 540 706 c 0
 540 815 451 919 379 991 c 1
EndSplineSet
Validated: 513
Substitution2: "'init' Initial Forms in Arabic lookup 2 subtable" ﻫ
Substitution2: "'medi' Medial Forms in Arabic lookup 1 subtable" ﻬ
Substitution2: "'fina' Terminal Forms in Arabic lookup 0 subtable" ﻪ
EndChar

StartChar: "+BswA"
Encoding: 1740 1740 41
Width: 1376
Flags: HMW
AnchorPoint: "Anchor-5" 464 997 basechar 0
AnchorPoint: "Anchor-3" 681 -408 basechar 0
LayerCount: 2
Fore
SplineSet
382 657 m 1
 278 560 219 429 219 341 c 0
 219 131 424 -3 686 -3 c 0
 852 -3 973 41 1049 105 c 0
 1122.078125 166.540039062 1158.17285156 244.721679688 1158.17285156 332.434570312 c 0
 1158.17285156 395.192382812 1142.15039062 423.049804688 1118 443 c 0
 1095 462 1057 476 1007 485 c 0
 907 504 767 498 664 589 c 0
 622.538085938 626.09765625 604.88671875 678.538085938 604.88671875 730.159179688 c 0
 604.88671875 749.504882812 607.366210938 768.735351562 612 787 c 0
 629 854 671 917 725 972 c 0
 807 1055 925 1122 1051 1125 c 0
 1120 1125 1182 1116 1241 1082 c 1
 1198 961 l 1
 1152 987 1111 996 1056 996 c 0
 972 996 882 948 817 882 c 0
 775 840 746 792 737 755 c 0
 733.924804688 742.358398438 732.3671875 732.16796875 732.3671875 723.591796875 c 0
 732.3671875 707.06640625 738.150390625 696.533203125 750 686 c 0
 800 641 913 634 1030 612 c 0
 1088 601 1149 585 1200 543 c 0
 1253.50292969 498.939453125 1286.20410156 426.21484375 1286.20410156 333.763671875 c 0
 1286.20410156 208.611328125 1231.46484375 90.0419921875 1131 6 c 0
 1027 -81 875 -132 686 -132 c 0
 398 -132 90 31 90 341 c 0
 90 467 154 626 295 750 c 1
 382 657 l 1
EndSplineSet
Validated: 513
Substitution2: "'init' Initial Forms in Arabic lookup 2 subtable" ﻳ
Substitution2: "'medi' Medial Forms in Arabic lookup 1 subtable" ﻴ
Substitution2: "'fina' Terminal Forms in Arabic lookup 0 subtable" ﻰ
EndChar

StartChar: "+/qMA"
Encoding: 65187 65187 50
Width: 1130
Flags: HMW
AnchorPoint: "Anchor-5" 341 1343 basechar 0
AnchorPoint: "Anchor-3" 296 157 basechar 0
LayerCount: 2
Fore
SplineSet
0 577 m 0
 168 577 l 2
 334 577 437 603 527 653 c 0
 609 697 681 761 779 840 c 1
 629 877 454 963 335 963 c 0
 263 963 201 918 180 819 c 1
 55 852 l 1
 95 1000 172 1092 335 1092 c 0
 534 1092 752 948 928 948 c 0
 954 948 977 951 999 958 c 1
 1040 836 l 1
 882 785 793 669 651 577 c 0
 541 505 399 448 168 448 c 2
 0 448 l 0
 -14 448 l 1
 -14 577 l 1
 0 577 l 0
EndSplineSet
Validated: 513
EndChar

StartChar: "+/rMA"
Encoding: 65203 65203 52
Width: 1495
Flags: HMW
AnchorPoint: "Anchor-5" 834 1220 basechar 0
AnchorPoint: "Anchor-3" 823 136 basechar 0
LayerCount: 2
Fore
SplineSet
1082 577 m 3
 1196 577 1277 650 1277 767 c 3
 1277 820 1267 864 1248 905 c 1
 1367 956 l 1
 1393 893 1405 834 1405 763 c 3
 1405 574 1259 448 1084 448 c 3
 963 448 875 495 825 563 c 1
 775 495 687 448 566 448 c 0
 445 448 357 495 307 563 c 1
 257 495 169 448 48 448 c 0
 -6 448 l 1
 -6 577 l 1
 48 577 l 0
 142 577 191 605 216 657 c 0
 243 712 243 794 243 898 c 1
 371 898 l 1
 371 794 371 712 398 657 c 0
 423 605 472 577 566 577 c 0
 660 577 709 605 734 657 c 0
 761 712 761 794 761 898 c 1
 889 898 l 1
 889 794 889 712 916 657 c 0
 941 605 988 577 1082 577 c 3
EndSplineSet
Validated: 513
EndChar

StartChar: "+/rsA"
Encoding: 65211 65211 54
Width: 1223
Flags: HMW
AnchorPoint: "Anchor-5" 868 1322 basechar 0
AnchorPoint: "Anchor-3" 598 146 basechar 0
LayerCount: 2
Fore
SplineSet
0 577 m 3
 190 577 193 707.434860621 193 897 c 1
 321 903 l 1
 323.470703125 871.104492188 324.377929688 840.469726562 324.377929688 811.788085938 c 0
 324.377929688 732.654296875 317.474609375 668.383789062 317.474609375 633.49609375 c 0
 317.474609375 607.934099411 319.982892378 592.819737057 351 590 c 1
 390 686 455 801 539 899 c 0
 628 1003 738 1093 869 1093 c 0
 1025 1093 1133 962 1133 827 c 0
 1133 710 1059 613 959 549 c 0
 838.723923289 472.023310905 670 447.477539062 473.349609375 447.477539062 c 0
 388.60546875 447.477539062 283.512695312 454.991210938 221 527 c 1
 169 480 96 448 0 448 c 0
 -6.072265625 448 -14 465.608398438 -14 491 c 2
 -14 534 l 2
 -14 557.18359375 -6.072265625 577 0 577 c 3
1004 827 m 0
 1004 895 953 964 869 964 c 0
 802 964 714 906 637 816 c 0
 574 742 523 651 488 575 c 1
 657.872112814 575 782.866773904 589.074735299 889 657 c 0
 964 705 1004 764 1004 827 c 0
EndSplineSet
Validated: 513
EndChar

StartChar: "+/sMA"
Encoding: 65219 65219 56
Width: 1107
Flags: HMW
AnchorPoint: "Anchor-5" 757 1411 basechar 0
AnchorPoint: "Anchor-3" 516 205 basechar 0
LayerCount: 2
Fore
SplineSet
0 577 m 0
 186 577 l 1
 186 1665 l 1
 315 1665 l 1
 315 748 l 1
 346 800 382 851 423 899 c 0
 512 1003 622 1093 753 1093 c 0
 909 1093 1017 962 1017 827 c 0
 1017 710 943 613 843 549 c 0
 743 485 556 448 420 448 c 2
 0 448 l 0
 -14 448 l 1
 -14 577 l 1
 0 577 l 0
753 964 m 0
 686 964 598 906 521 816 c 0
 458 742 408 651 373 575 c 1
 542.389875837 575 668.067058692 589.202917563 774 657 c 0
 849 705 888 764 888 827 c 0
 888 895 837 964 753 964 c 0
EndSplineSet
Validated: 513
EndChar

StartChar: "+/ssA"
Encoding: 65227 65227 58
Width: 722
Flags: HMW
AnchorPoint: "Anchor-5" 399 1341 basechar 0
AnchorPoint: "Anchor-3" 337 196 basechar 0
LayerCount: 2
Fore
SplineSet
0 577 m 1
 105 577 l 1
 71 617 52 666 52 727 c 0
 52 914 189 1093 405 1093 c 0
 459 1093 524 1082 582 1060 c 1
 549 936 l 1
 497 955 458 964 405 964 c 0
 267 964 181 845 181 727 c 0
 181 586.708984375 403.014648438 574.450195312 550.86328125 574.450195312 c 2
 632 575 l 1
 632 448 l 1
 0 448 l 0
 -14 448 l 1
 -14 577 l 1
 0 577 l 1
EndSplineSet
Validated: 513
EndChar

StartChar: "+/tsA"
Encoding: 65243 65243 62
Width: 954
Flags: HMW
AnchorPoint: "Anchor-5" 272 1894 basechar 0
AnchorPoint: "Anchor-3" 357 206 basechar 0
LayerCount: 2
Fore
SplineSet
0 577 m 0
 320 577 l 2
 425 577 485 607 523 648 c 0
 561 689 579 745 579 807 c 0
 579 860 564 892 506 942 c 0
 448 992 345 1051 189 1126 c 0
 109.022237051 1164.47031636 52.94140625 1230.99419869 52.94140625 1311.54101562 c 0
 52.94140625 1386.7109375 101.497070312 1453.98535156 176 1503 c 2
 793 1911 l 1
 864 1803 l 1
 247 1395 l 2
 195 1360 182 1329 182 1310 c 0
 182 1291 193 1266 244 1242 c 0
 404 1165 514 1105 590 1040 c 0
 666 975 708 894 708 807 c 0
 708 720 682 629 617 560 c 0
 552 491 451 448 320 448 c 2
 0 448 l 0
 -14 448 l 1
 -14 577 l 1
 0 577 l 0
EndSplineSet
Validated: 513
EndChar

StartChar: "+/t8A"
Encoding: 65247 65247 64
Width: 415
Flags: HMW
AnchorPoint: "Anchor-5" 262 1828 basechar 0
AnchorPoint: "Anchor-3" 197 280 basechar 0
LayerCount: 2
Fore
SplineSet
0 577 m 1
 113 577 144 604 167 655 c 0
 190 706 196 795 196 897 c 2
 196 1667 l 1
 325 1667 l 1
 325 897 l 2
 325 795.163693176 323.986711967 690.751633966 284 602 c 0
 243 511 144 448 0 448 c 0
 -14 448 l 1
 -14 577 l 1
 0 577 l 1
EndSplineSet
Validated: 513
EndChar

StartChar: "+/uMA"
Encoding: 65251 65251 65
Width: 942
Flags: HMW
AnchorPoint: "Anchor-5" 477 1379 basechar 0
AnchorPoint: "Anchor-3" 570 182 basechar 0
LayerCount: 2
Fore
SplineSet
0 577 m 3
 99 577 142 632 179 731 c 0
 211 818 241 900 282 967 c 0
 323 1034 388 1093 474 1093 c 0
 655 1093 852 903 852 715 c 0
 852 549 739 448 575 448 c 0
 434 448 324 503 251 586 c 1
 201 498 112 448 0 448 c 0
 -14 448 l 1
 -14 577 l 1
 0 577 l 3
474 964 m 0
 441 964 422 949 392 900 c 0
 366 857 340 790 312 717 c 1
 362 629 434 577 575 577 c 0
 678 577 723 627 723 715 c 0
 723 837 575 964 474 964 c 0
EndSplineSet
Validated: 513
EndChar

StartChar: "+/usA"
Encoding: 65259 65259 67
Width: 1235
Flags: HMW
AnchorPoint: "Anchor-5" 469 1507 basechar 0
AnchorPoint: "Anchor-3" 490 191 basechar 0
LayerCount: 2
Fore
SplineSet
0 577 m 0
 80 577 l 1
 46.7850570634 617.332430709 25.154296875 665.146977122 25.154296875 728.842773438 c 0
 25.154296875 792.068359375 49.53125 858.407226562 97 924 c 0
 152 1000 211 1057 273 1092 c 1
 244 1121 217 1163 197 1205 c 1
 309 1270 l 1
 384 1126 533 1104 677 1088 c 0
 875 1066 1145 1023 1145 758 c 0
 1145 556 915 448 727 448 c 0
 679 448 629 457 580 470 c 1
 525 453 462 448 395 448 c 2
 0 448 l 0
 -14 448 l 1
 -14 577 l 1
 0 577 l 0
630 691 m 0
 630 804 529 1002 411 1002 c 0
 299 1002 154 831 154 728 c 0
 154 614 314 580 410 580 c 0
 453 580 630 583 630 691 c 0
670 959 m 1
 721 876 751 797 759 692 c 0
 759 653 747 612 729 581 c 1
 840 581 1017 638 1017 761 c 0
 1017 924 801 944 670 959 c 1
EndSplineSet
Validated: 513
EndChar

StartChar: "+/qQA"
Encoding: 65188 65188 76
Width: 1158
Flags: HMW
AnchorPoint: "Anchor-5" 337 1343 basechar 0
AnchorPoint: "Anchor-3" 536 235 basechar 0
LayerCount: 2
Fore
SplineSet
55 852 m 1
 95 1000 172 1092 335 1092 c 0
 534 1092 752 948 928 948 c 0
 954 948 977 951 999 958 c 0
 1040 836 l 1
 973 815 919 781 867 743 c 1
 935 647 1045 577 1158 577 c 3
 1172 577 l 25
 1172 448 l 25
 1158 448 l 0
 997 448 855 539 766 663 c 1
 693 604 614 543 503 502 c 0
 416 469 308 448 168 448 c 2
 0 448 l 0
 -14 448 l 1
 -14 577 l 17
 0 577 l 0
 168 577 l 2
 329 577 431 602 519 648 c 0
 604 693 677 758 779 840 c 1
 629 877 454 963 335 963 c 0
 263 963 201 917 180 818 c 1
 55 852 l 1
EndSplineSet
Validated: 513
EndChar

StartChar: "+/rQA"
Encoding: 65204 65204 78
Width: 1634
Flags: HMW
AnchorPoint: "Anchor-5" 830 1200 basechar 0
AnchorPoint: "Anchor-3" 826 231 basechar 0
LayerCount: 2
Fore
SplineSet
363 898 m 1
 363 794 363 712 390 657 c 0
 415 605 464 577 558 577 c 0
 652 577 701 605 726 657 c 0
 753 712 753 794 753 898 c 1
 881 898 l 1
 881 794 881 712 908 657 c 0
 933 605 982 577 1076 577 c 0
 1170 577 1219 605 1244 657 c 0
 1271 712 1271 794 1271 898 c 1
 1399 898 l 1
 1399 794 1399 712 1426 657 c 0
 1451 605 1500 577 1594 577 c 0
 1648 577 l 1
 1648 448 l 1
 1594 448 l 0
 1473 448 1385 495 1335 563 c 1
 1285 495 1197 448 1076 448 c 0
 955 448 867 495 817 563 c 1
 767 495 679 448 558 448 c 0
 437 448 349 495 299 563 c 1
 249 495 161 448 40 448 c 0
 -14 448 l 1
 -14 577 l 1
 40 577 l 0
 134 577 183 605 208 657 c 0
 235 712 235 794 235 898 c 1
 363 898 l 1
EndSplineSet
Validated: 513
EndChar

StartChar: "+/rwA"
Encoding: 65212 65212 80
Width: 1196
Flags: HMW
AnchorPoint: "Anchor-5" 874 1348 basechar 0
AnchorPoint: "Anchor-3" 566 197 basechar 0
LayerCount: 2
Fore
SplineSet
1004 827 m 0
 1004 895 953 964 869 964 c 0
 802 964 714 906 637 816 c 0
 574 742 523 651 488 575 c 1
 657.872070312 575 782.8671875 589.075195312 889 657 c 0
 964 705 1004 764 1004 827 c 0
1196 577 m 1
 1210 577 l 1
 1210 448 l 1
 1196 448 l 0
 535 448 l 2
 473.349609375 447.477539062 l 0
 388.60546875 447.477539062 283.512695312 454.991210938 221 527 c 1
 169 480 96 448 0 448 c 0
 -14 448 l 1
 -14 577 l 17
 0 577 l 3
 190 577 193 707.434570312 193 897 c 1
 321 903 l 1
 323.470703125 871.104492188 324.377929688 840.469726562 324.377929688 811.788085938 c 0
 324.377929688 732.654296875 317.474609375 668.383789062 317.474609375 633.49609375 c 0
 317.474609375 607.934570312 319.982421875 592.819335938 351 590 c 1
 390 686 455 801 539 899 c 0
 628 1003 738 1093 869 1093 c 0
 1025 1093 1133 962 1133 827 c 0
 1133 722.891240337 1081.36523438 640.278320312 998 577 c 1
 1196 577 l 1
EndSplineSet
Validated: 513
EndChar

StartChar: "+/sQA"
Encoding: 65220 65220 82
Width: 1080
Flags: HMW
AnchorPoint: "Anchor-5" 745 1503 basechar 0
AnchorPoint: "Anchor-3" 510 237 basechar 0
LayerCount: 2
Fore
SplineSet
0 448 m 0
 -14 448 l 1
 -14 577 l 1
 0 577 l 1
 186 577 l 1
 186 1665 l 1
 315 1665 l 1
 315 748 l 1
 346 800 382 851 423 899 c 0
 512 1003 622 1093 753 1093 c 0
 909 1093 1017 962 1017 827 c 0
 1017 726 962 640 883 577 c 1
 1080 577 l 3
 1094 577 l 1
 1094 448 l 1
 1080 448 l 0
 0 448 l 0
753 964 m 0
 686 964 598 906 521 816 c 0
 458 743 409 653 374 577 c 1
 548.489459804 577 668.943268248 590.733446126 774 657 c 0
 849 705 888 764 888 827 c 0
 888 895 837 964 753 964 c 0
EndSplineSet
Validated: 513
EndChar

StartChar: "+/swA"
Encoding: 65228 65228 84
Width: 950
Flags: HMW
AnchorPoint: "Anchor-5" 479 1321 basechar 0
AnchorPoint: "Anchor-3" 467 212 basechar 0
LayerCount: 2
Fore
SplineSet
475 1075 m 0
 647 1075 853 1016 853 842 c 0
 853 721 773 637 675 585 c 1
 723 580 770 577 815 577 c 0
 950 577 l 0
 964 577 l 1
 964 449 l 1
 950 449 l 25
 774 449 l 0
 647 449 585 461 475 494 c 1
 365 461 303 449 176 449 c 0
 0 449 l 25
 -14 449 l 1
 -14 577 l 1
 0 577 l 3
 135 577 l 0
 180 577 227 580 275 585 c 1
 177 637 97 721 97 842 c 0
 97 1016 303 1075 475 1075 c 0
475 633 m 1
 571 672 724 730 724 842 c 0
 724 901 618 946 475 946 c 0
 332 946 226 901 226 842 c 0
 226 730 379 672 475 633 c 1
EndSplineSet
Validated: 513
EndChar

StartChar: "+/twA"
Encoding: 65244 65244 88
Width: 909
Flags: HMW
AnchorPoint: "Anchor-5" 270 1894 basechar 0
AnchorPoint: "Anchor-3" 325 246 basechar 0
LayerCount: 2
Fore
SplineSet
909 448 m 0
 822 448 753.741210938 475.758789062 710 523 c 0
 685 550 668 580 656 611 c 1
 645 593 632 576 617 560 c 0
 552 491 451 448 320 448 c 2
 0 448 l 0
 -14 448 l 1
 -14 577 l 1
 0 577 l 0
 320 577 l 2
 425 577 485 607 523 648 c 0
 561 689 579 745 579 807 c 0
 579 860 564 892 506 942 c 0
 448 992 345 1051 189 1126 c 0
 109.022237051 1164.47031636 52.94140625 1230.99419869 52.94140625 1311.54101562 c 0
 52.94140625 1386.7109375 101.497070312 1453.98535156 176 1503 c 2
 793 1911 l 1
 864 1803 l 1
 247 1395 l 2
 195 1360 182 1329 182 1310 c 0
 182 1291 193 1266 244 1242 c 0
 384 1175 486 1120 560 1064 c 0
 697 970 729 816 757 717 c 0
 771 667 785 631 804 611 c 0
 823 591 846 577 909 577 c 3
 923 577 l 1
 923 448 l 1
 909 448 l 0
EndSplineSet
Validated: 513
EndChar

StartChar: "+/uAA"
Encoding: 65248 65248 90
Width: 644
Flags: HMW
AnchorPoint: "Anchor-5" 323 1868 basechar 0
AnchorPoint: "Anchor-3" 322 243 basechar 0
LayerCount: 2
Fore
SplineSet
644 448 m 0
 556 448 483 465 425 499 c 0
 378 527 346 567 322 611 c 1
 298 567 266 527 219 499 c 0
 161.2421875 464.590820312 88 448 0 448 c 0
 -14 448 l 1
 -14 577 l 1
 0 577 l 3
 72 577 120 590 153 610 c 0
 186 630 206 655 222 693 c 0
 254 768 258 890 258 1025 c 2
 257 1665 l 1
 386 1665 l 1
 386 1025 l 2
 386 890 389 768 421 693 c 0
 437 655 458 630 491 610 c 0
 524 590 572 577 644 577 c 3
 658 577 l 1
 658 448 l 1
 644 448 l 0
EndSplineSet
Validated: 513
EndChar

StartChar: "+/uQA"
Encoding: 65252 65252 91
Width: 985
Flags: HMW
AnchorPoint: "Anchor-5" 473 1366 basechar 0
AnchorPoint: "Anchor-3" 538 174 basechar 0
LayerCount: 2
Fore
SplineSet
985 448 m 0
 895 448 835 471 785 530 c 1
 736 478 663 448 575 448 c 0
 434 448 324 503 251 586 c 1
 201 498 112 448 0 448 c 0
 -14 448 l 9
 -14 577 l 17
 0 577 l 3
 99 577 142 632 179 731 c 0
 211 818 241 900 282 967 c 0
 323 1034 388 1093 474 1093 c 0
 655 1093 852 903 852 715 c 0
 853 656 866 631 887 610 c 0
 908 589 940 577 985 577 c 3
 999 577 l 9
 999 448 l 17
 985 448 l 0
575 577 m 0
 678 577 723 627 723 715 c 0
 723 837 575 964 474 964 c 0
 441 964 422 949 392 900 c 0
 366 857 340 790 312 717 c 1
 362 629 434 577 575 577 c 0
EndSplineSet
Validated: 513
EndChar

StartChar: "+/uwA"
Encoding: 65260 65260 93
Width: 837
Flags: HMW
AnchorPoint: "Anchor-5" 451 1404 basechar 0
AnchorPoint: "Anchor-3" 454 -311 basechar 0
LayerCount: 2
Fore
SplineSet
837 577 m 3
 851 577 l 1
 851 448 l 1
 837 448 l 0
 716 448 647 387 647 288 c 0
 647 244 665 202 665 155 c 0
 665 36 580 -67 455 -67 c 0
 257 -67 127 140 110 448 c 1
 0 448 l 0
 -14 448 l 1
 -14 577 l 1
 0 577 l 0
 111 577 l 1
 132 871 253 1092 455 1092 c 0
 594.99357824 1092 702.002929688 978.507257775 702.002929688 815.702148438 c 0
 702.002929688 605.364257812 459.55078125 451 241 451 c 1
 251 299 297 62 455 62 c 0
 499 62 537 94 537 154 c 0
 537 199 518 225 518 287 c 0
 518 467 656 577 837 577 c 3
455 963 m 0
 302 963 256 712 243 579 c 1
 361 579 573 665 573 817 c 0
 573 922 507 963 455 963 c 0
EndSplineSet
Validated: 513
EndChar

StartChar: "+/o4A"
Encoding: 65166 65166 97
Width: 405
Flags: HMW
AnchorPoint: "Anchor-5" 153.951 1837 basechar 0
AnchorPoint: "Anchor-3" 317.951 247 basechar 0
LayerCount: 2
Fore
SplineSet
415 577 m 1
 429 577 l 1
 429 448 l 1
 415 448 l 0
 271 448 172 511 131 602 c 0
 91.0146484375 690.749023438 90 795.206054688 90 897 c 2
 90 1667 l 1
 219 1667 l 1
 219 897 l 2
 219 795 225 706 248 655 c 128
 271 604 302 577 415 577 c 1
EndSplineSet
Validated: 513
PairPos2: "'kern' Horizontal Kerning lookup 6 subtable 3" غ dx=-293 dy=0 dh=-293 dv=0 dx=0 dy=0 dh=0 dv=0
PairPos2: "'kern' Horizontal Kerning lookup 6 subtable 3" ع dx=-293 dy=0 dh=-293 dv=0 dx=0 dy=0 dh=0 dv=0
PairPos2: "'kern' Horizontal Kerning lookup 6 subtable 2" آ dx=277 dy=0 dh=277 dv=0 dx=0 dy=0 dh=0 dv=0
EndChar

StartChar: "+/qIA"
Encoding: 65186 65186 106
Width: 1169
Flags: HMW
AnchorPoint: "Anchor-5" 436 1340 basechar 0
AnchorPoint: "Anchor-3" 658 -699 basechar 0
LayerCount: 2
Fore
SplineSet
1179 448 m 0
 1006 448 856 552 769 690 c 1
 643 617 523 532 402 420 c 0
 289 306 218 186 218 57 c 0
 218 -180 437 -293 656 -293 c 0
 826 -293 965 -225 1069 -94 c 1
 1168 -177 l 1
 1030 -341 879 -422 656 -422 c 0
 411 -422 90 -289 90 54 c 0
 90 226 184 383 310 511 c 0
 464 667 670 792 848 882 c 1
 728 907 574 963 437 963 c 0
 352 963 271 905 271 821 c 0
 271 782 295 739 319 704 c 1
 212 633 l 1
 173 692 150 742 144 821 c 0
 146 981 281 1092 437 1092 c 0
 637 1092 895 993 1062 960 c 1
 1067 840 l 1
 1003 811 942 783 882 752 c 1
 949 651 1063 577 1179 577 c 3
 1185.07226562 577 1193 557.18359375 1193 534 c 2
 1193 491 l 2
 1193 465.608398438 1185.07226562 448 1179 448 c 0
EndSplineSet
Validated: 513
EndChar

StartChar: "+/qoA"
Encoding: 65194 65194 108
Width: 958
Flags: HMW
AnchorPoint: "Anchor-5" 452 1415 basechar 0
AnchorPoint: "Anchor-3" 450 230 basechar 0
LayerCount: 2
Fore
SplineSet
968 448 m 0
 840 448 731 522 655 642 c 1
 560 458 274 448 90 448 c 1
 90 577 l 1
 266 577 383 597 452 626 c 0
 523 657 557 695 557 770 c 0
 557 867 499 1024 442 1202 c 1
 565 1241 l 1
 666 924 l 2
 705 801 795 577 968 577 c 3
 982 577 l 25
 982 448 l 25
 968 448 l 0
EndSplineSet
Validated: 513
PairPos2: "'kern' Horizontal Kerning lookup 6 subtable 3" غ dx=-457 dy=0 dh=-457 dv=0 dx=0 dy=0 dh=0 dv=0
PairPos2: "'kern' Horizontal Kerning lookup 6 subtable 3" ع dx=-457 dy=0 dh=-457 dv=0 dx=0 dy=0 dh=0 dv=0
EndChar

StartChar: "+/q4A"
Encoding: 65198 65198 110
Width: 867
Flags: HMW
AnchorPoint: "Anchor-5" 242 1088 basechar 0
AnchorPoint: "Anchor-3" 283 -230 basechar 0
LayerCount: 2
Fore
SplineSet
649 528 m 1
 627 248 428 50 136 -64 c 1
 90 57 l 1
 328 151 523 311 523 578 c 0
 523 677 498 774 460 872 c 1
 578 923 l 17
 647 768 669 577 877 577 c 3
 891 577 l 1
 891 448 l 1
 877 448 l 0
 782 448 706 481 649 528 c 1
EndSplineSet
Validated: 513
PairPos2: "'kern' Horizontal Kerning lookup 6 subtable 4" uni0645 dx=-300 dy=0 dh=-300 dv=0 dx=0 dy=0 dh=0 dv=0
PairPos2: "'kern' Horizontal Kerning lookup 6 subtable 3" غ dx=-567 dy=0 dh=-567 dv=0 dx=0 dy=0 dh=0 dv=0
PairPos2: "'kern' Horizontal Kerning lookup 6 subtable 3" ع dx=-567 dy=0 dh=-567 dv=0 dx=0 dy=0 dh=0 dv=0
PairPos2: "'kern' Horizontal Kerning lookup 6 subtable 1" uni0629 dx=-297 dy=0 dh=-297 dv=0 dx=0 dy=0 dh=0 dv=0
PairPos2: "'kern' Horizontal Kerning lookup 6 subtable 1" ﺓ dx=-297 dy=0 dh=-297 dv=0 dx=0 dy=0 dh=0 dv=0
PairPos2: "'kern' Horizontal Kerning lookup 6 subtable 1" uni0649 dx=-99 dy=0 dh=-99 dv=0 dx=0 dy=0 dh=0 dv=0
PairPos2: "'kern' Horizontal Kerning lookup 6 subtable 1" ﻙ dx=-302 dy=0 dh=-302 dv=0 dx=0 dy=0 dh=0 dv=0
PairPos2: "'kern' Horizontal Kerning lookup 6 subtable 1" ء dx=-300 dy=0 dh=-300 dv=0 dx=0 dy=0 dh=0 dv=0
PairPos2: "'kern' Horizontal Kerning lookup 6 subtable 1" ﺋ dx=-300 dy=0 dh=-300 dv=0 dx=0 dy=0 dh=0 dv=0
PairPos2: "'kern' Horizontal Kerning lookup 6 subtable 1" آ dx=-250 dy=0 dh=-250 dv=0 dx=0 dy=0 dh=0 dv=0
PairPos2: "'kern' Horizontal Kerning lookup 6 subtable 1" أ dx=-300 dy=0 dh=-300 dv=0 dx=0 dy=0 dh=0 dv=0
PairPos2: "'kern' Horizontal Kerning lookup 6 subtable 1" ا dx=-266 dy=0 dh=-266 dv=0 dx=0 dy=0 dh=0 dv=0
PairPos2: "'kern' Horizontal Kerning lookup 6 subtable 1" ب dx=-300 dy=0 dh=-300 dv=0 dx=0 dy=0 dh=0 dv=0
PairPos2: "'kern' Horizontal Kerning lookup 6 subtable 1" ﺑ dx=-200 dy=0 dh=-200 dv=0 dx=0 dy=0 dh=0 dv=0
PairPos2: "'kern' Horizontal Kerning lookup 6 subtable 1" ت dx=-300 dy=0 dh=-300 dv=0 dx=0 dy=0 dh=0 dv=0
PairPos2: "'kern' Horizontal Kerning lookup 6 subtable 1" ﺗ dx=-300 dy=0 dh=-300 dv=0 dx=0 dy=0 dh=0 dv=0
PairPos2: "'kern' Horizontal Kerning lookup 6 subtable 1" ث dx=-300 dy=0 dh=-300 dv=0 dx=0 dy=0 dh=0 dv=0
PairPos2: "'kern' Horizontal Kerning lookup 6 subtable 1" ﺛ dx=-300 dy=0 dh=-300 dv=0 dx=0 dy=0 dh=0 dv=0
PairPos2: "'kern' Horizontal Kerning lookup 6 subtable 1" ج dx=-430 dy=0 dh=-430 dv=0 dx=0 dy=0 dh=0 dv=0
PairPos2: "'kern' Horizontal Kerning lookup 6 subtable 1" ﺟ dx=-300 dy=0 dh=-300 dv=0 dx=0 dy=0 dh=0 dv=0
PairPos2: "'kern' Horizontal Kerning lookup 6 subtable 1" ح dx=-430 dy=0 dh=-430 dv=0 dx=0 dy=0 dh=0 dv=0
PairPos2: "'kern' Horizontal Kerning lookup 6 subtable 1" ﺣ dx=-300 dy=0 dh=-300 dv=0 dx=0 dy=0 dh=0 dv=0
PairPos2: "'kern' Horizontal Kerning lookup 6 subtable 1" خ dx=-430 dy=0 dh=-430 dv=0 dx=0 dy=0 dh=0 dv=0
PairPos2: "'kern' Horizontal Kerning lookup 6 subtable 1" ﺧ dx=-300 dy=0 dh=-300 dv=0 dx=0 dy=0 dh=0 dv=0
PairPos2: "'kern' Horizontal Kerning lookup 6 subtable 1" د dx=-300 dy=0 dh=-300 dv=0 dx=0 dy=0 dh=0 dv=0
PairPos2: "'kern' Horizontal Kerning lookup 6 subtable 1" ذ dx=-300 dy=0 dh=-300 dv=0 dx=0 dy=0 dh=0 dv=0
PairPos2: "'kern' Horizontal Kerning lookup 6 subtable 1" ر dx=-200 dy=0 dh=-200 dv=0 dx=0 dy=0 dh=0 dv=0
PairPos2: "'kern' Horizontal Kerning lookup 6 subtable 1" ز dx=-200 dy=0 dh=-200 dv=0 dx=0 dy=0 dh=0 dv=0
PairPos2: "'kern' Horizontal Kerning lookup 6 subtable 1" س dx=-300 dy=0 dh=-300 dv=0 dx=0 dy=0 dh=0 dv=0
PairPos2: "'kern' Horizontal Kerning lookup 6 subtable 1" ﺳ dx=-300 dy=0 dh=-300 dv=0 dx=0 dy=0 dh=0 dv=0
PairPos2: "'kern' Horizontal Kerning lookup 6 subtable 1" ش dx=-300 dy=0 dh=-300 dv=0 dx=0 dy=0 dh=0 dv=0
PairPos2: "'kern' Horizontal Kerning lookup 6 subtable 1" ﺷ dx=-300 dy=0 dh=-300 dv=0 dx=0 dy=0 dh=0 dv=0
PairPos2: "'kern' Horizontal Kerning lookup 6 subtable 1" ص dx=-300 dy=0 dh=-300 dv=0 dx=0 dy=0 dh=0 dv=0
PairPos2: "'kern' Horizontal Kerning lookup 6 subtable 1" ﺻ dx=-300 dy=0 dh=-300 dv=0 dx=0 dy=0 dh=0 dv=0
PairPos2: "'kern' Horizontal Kerning lookup 6 subtable 1" ض dx=-300 dy=0 dh=-300 dv=0 dx=0 dy=0 dh=0 dv=0
PairPos2: "'kern' Horizontal Kerning lookup 6 subtable 1" ﺿ dx=-300 dy=0 dh=-300 dv=0 dx=0 dy=0 dh=0 dv=0
PairPos2: "'kern' Horizontal Kerning lookup 6 subtable 1" ط dx=-300 dy=0 dh=-300 dv=0 dx=0 dy=0 dh=0 dv=0
PairPos2: "'kern' Horizontal Kerning lookup 6 subtable 1" ﻃ dx=-300 dy=0 dh=-300 dv=0 dx=0 dy=0 dh=0 dv=0
PairPos2: "'kern' Horizontal Kerning lookup 6 subtable 1" ظ dx=-300 dy=0 dh=-300 dv=0 dx=0 dy=0 dh=0 dv=0
PairPos2: "'kern' Horizontal Kerning lookup 6 subtable 1" ﻇ dx=-300 dy=0 dh=-300 dv=0 dx=0 dy=0 dh=0 dv=0
PairPos2: "'kern' Horizontal Kerning lookup 6 subtable 1" ع dx=-550 dy=0 dh=-550 dv=0 dx=0 dy=0 dh=0 dv=0
PairPos2: "'kern' Horizontal Kerning lookup 6 subtable 1" ﻋ dx=-300 dy=0 dh=-300 dv=0 dx=0 dy=0 dh=0 dv=0
PairPos2: "'kern' Horizontal Kerning lookup 6 subtable 1" غ dx=-550 dy=0 dh=-550 dv=0 dx=0 dy=0 dh=0 dv=0
PairPos2: "'kern' Horizontal Kerning lookup 6 subtable 1" ﻏ dx=-300 dy=0 dh=-300 dv=0 dx=0 dy=0 dh=0 dv=0
PairPos2: "'kern' Horizontal Kerning lookup 6 subtable 1" ف dx=-300 dy=0 dh=-300 dv=0 dx=0 dy=0 dh=0 dv=0
PairPos2: "'kern' Horizontal Kerning lookup 6 subtable 1" ﻓ dx=-300 dy=0 dh=-300 dv=0 dx=0 dy=0 dh=0 dv=0
PairPos2: "'kern' Horizontal Kerning lookup 6 subtable 1" ق dx=-200 dy=0 dh=-200 dv=0 dx=0 dy=0 dh=0 dv=0
PairPos2: "'kern' Horizontal Kerning lookup 6 subtable 1" ﻗ dx=-300 dy=0 dh=-300 dv=0 dx=0 dy=0 dh=0 dv=0
PairPos2: "'kern' Horizontal Kerning lookup 6 subtable 1" ﻛ dx=-450 dy=0 dh=-450 dv=0 dx=0 dy=0 dh=0 dv=0
PairPos2: "'kern' Horizontal Kerning lookup 6 subtable 1" ل dx=-150 dy=0 dh=-150 dv=0 dx=0 dy=0 dh=0 dv=0
PairPos2: "'kern' Horizontal Kerning lookup 6 subtable 1" ﻟ dx=-294 dy=0 dh=-294 dv=0 dx=0 dy=0 dh=0 dv=0
PairPos2: "'kern' Horizontal Kerning lookup 6 subtable 1" ﻣ dx=-298 dy=0 dh=-298 dv=0 dx=0 dy=0 dh=0 dv=0
PairPos2: "'kern' Horizontal Kerning lookup 6 subtable 1" ن dx=-170 dy=0 dh=-170 dv=0 dx=0 dy=0 dh=0 dv=0
PairPos2: "'kern' Horizontal Kerning lookup 6 subtable 1" ﻧ dx=-298 dy=0 dh=-298 dv=0 dx=0 dy=0 dh=0 dv=0
PairPos2: "'kern' Horizontal Kerning lookup 6 subtable 1" ه dx=-297 dy=0 dh=-297 dv=0 dx=0 dy=0 dh=0 dv=0
PairPos2: "'kern' Horizontal Kerning lookup 6 subtable 1" ﻫ dx=-306 dy=0 dh=-306 dv=0 dx=0 dy=0 dh=0 dv=0
PairPos2: "'kern' Horizontal Kerning lookup 6 subtable 1" ؤ dx=-220 dy=0 dh=-220 dv=0 dx=0 dy=0 dh=0 dv=0
PairPos2: "'kern' Horizontal Kerning lookup 6 subtable 1" و dx=-220 dy=0 dh=-220 dv=0 dx=0 dy=0 dh=0 dv=0
PairPos2: "'kern' Horizontal Kerning lookup 6 subtable 1" ئ dx=-99 dy=0 dh=-99 dv=0 dx=0 dy=0 dh=0 dv=0
PairPos2: "'kern' Horizontal Kerning lookup 6 subtable 1" ي dx=-99 dy=0 dh=-99 dv=0 dx=0 dy=0 dh=0 dv=0
PairPos2: "'kern' Horizontal Kerning lookup 6 subtable 1" ﻳ dx=-120 dy=0 dh=-120 dv=0 dx=0 dy=0 dh=0 dv=0
PairPos2: "'kern' Horizontal Kerning lookup 6 subtable 1" پ dx=-300 dy=0 dh=-300 dv=0 dx=0 dy=0 dh=0 dv=0
PairPos2: "'kern' Horizontal Kerning lookup 6 subtable 1" چ dx=-400 dy=0 dh=-400 dv=0 dx=0 dy=0 dh=0 dv=0
PairPos2: "'kern' Horizontal Kerning lookup 6 subtable 1" ﭼ dx=-300 dy=0 dh=-300 dv=0 dx=0 dy=0 dh=0 dv=0
PairPos2: "'kern' Horizontal Kerning lookup 6 subtable 1" ژ dx=-250 dy=0 dh=-250 dv=0 dx=0 dy=0 dh=0 dv=0
PairPos2: "'kern' Horizontal Kerning lookup 6 subtable 1" ک dx=-430 dy=0 dh=-430 dv=0 dx=0 dy=0 dh=0 dv=0
PairPos2: "'kern' Horizontal Kerning lookup 6 subtable 1" گ dx=-430 dy=0 dh=-430 dv=0 dx=0 dy=0 dh=0 dv=0
PairPos2: "'kern' Horizontal Kerning lookup 6 subtable 1" ﮔ dx=-430 dy=0 dh=-430 dv=0 dx=0 dy=0 dh=0 dv=0
PairPos2: "'kern' Horizontal Kerning lookup 6 subtable 1" ۀ dx=-297 dy=0 dh=-297 dv=0 dx=0 dy=0 dh=0 dv=0
PairPos2: "'kern' Horizontal Kerning lookup 6 subtable 1" ۊ dx=-200 dy=0 dh=-200 dv=0 dx=0 dy=0 dh=0 dv=0
PairPos2: "'kern' Horizontal Kerning lookup 6 subtable 1" ی dx=-99 dy=0 dh=-99 dv=0 dx=0 dy=0 dh=0 dv=0
EndChar

StartChar: "+/rIA"
Encoding: 65202 65202 113
Width: 2658
Flags: HMW
AnchorPoint: "Anchor-5" 1833.43 1197 basechar 0
AnchorPoint: "Anchor-3" 688.435 -409 basechar 0
LayerCount: 2
Fore
SplineSet
1582 577 m 0
 1676 577 1725 605 1750 657 c 0
 1777 712 1777 794 1777 898 c 1
 1905 898 l 1
 1905 794 1905 712 1932 657 c 0
 1957 605 2006 577 2100 577 c 0
 2194 577 2243 605 2268 657 c 0
 2295 712 2295 794 2295 898 c 1
 2423 898 l 1
 2423 794 2423 712 2450 657 c 0
 2475 605 2524 577 2618 577 c 0
 2672 577 l 1
 2672 448 l 1
 2618 448 l 0
 2497 448 2409 495 2359 563 c 1
 2309 495 2221 448 2100 448 c 0
 1979 448 1891 495 1841 563 c 1
 1791 495 1703 448 1582 448 c 0
 1509 448 1450 469 1403 500 c 1
 1396 400 1370 305 1324 226 c 0
 1198 7 931 -132 686 -132 c 0
 356 -132 90 52 90 341 c 0
 90 558 260 792 623 956 c 1
 676 839 l 1
 340 687 219 495 219 341 c 0
 219 141 405 -3 686 -3 c 0
 879 -3 1115 122 1212 290 c 0
 1253 362 1275 457 1275 561 c 0
 1275 661 1255 769 1211 872 c 2
 1196 905 l 1
 1315 956 l 1
 1329 923 l 2
 1344 888 1356 853 1367 818 c 0
 1384 763 1398 710 1417 672 c 0
 1448 609 1475 577 1582 577 c 0
EndSplineSet
Validated: 513
EndChar

StartChar: "+/roA"
Encoding: 65210 65210 115
Width: 2434
Flags: HMW
AnchorPoint: "Anchor-5" 1975 1341 basechar 0
AnchorPoint: "Anchor-3" 684 -409 basechar 0
LayerCount: 2
Fore
SplineSet
1973 963 m 3
 1828 963 1658 727 1594 589 c 1
 1627 581 1665 577 1698 577 c 3
 1903 577 2108 685 2108 826 c 3
 2108 894 2057 963 1973 963 c 3
2154 624 m 1
 2050.89160156 511.4453125 1867.78125 448 1698 448 c 3
 1591 448 1492 481 1404 524 c 1
 1404 524 1403 512 1402 500 c 1
 1394 400 1370 306 1324 226 c 0
 1198 7 931 -132 686 -132 c 3
 355.782226562 -132 90 52.3505859375 90 341 c 3
 90 558 260 792 623 956 c 1
 676 839 l 1
 340 687 219 495 219 341 c 3
 219 140.9375 404.9375 -3 686 -3 c 3
 879 -3 1115 123 1212 291 c 0
 1253 363 1276 457 1276 561 c 3
 1276 661 1255 769 1211 872 c 1
 1329 923 l 1
 1364 841 1387 755 1398 672 c 1
 1423 657 1448 644 1473 632 c 1
 1568 834 1756 1092 1973 1092 c 3
 2128 1092 2237 960 2237 826 c 0
 2237 697 2277 577 2444 577 c 3
 2458 577 l 1
 2458 448 l 1
 2444 448 l 0
 2297 448 2204 515 2154 624 c 1
2108 826 m 1024
EndSplineSet
Validated: 513
EndChar

StartChar: "+/sIA"
Encoding: 65218 65218 117
Width: 1095
Flags: HMW
AnchorPoint: "Anchor-5" 781 1479 basechar 0
AnchorPoint: "Anchor-3" 562 231 basechar 0
LayerCount: 2
Fore
SplineSet
90 448 m 1
 90 575 l 1
 212 575 l 1
 212 1665 l 1
 340 1665 l 1
 340 748 l 1
 371 800 408 851 449 899 c 0
 538 1003 648 1093 779 1093 c 0
 935 1093 1042 962 1042 827 c 0
 1042 726 987 640 908 577 c 1
 1105 577 l 3
 1119 577 l 1
 1119 448 l 1
 1105 448 l 0
 90 448 l 1
778 964 m 0
 711 964 624 906 547 816 c 0
 484 743 434 653 399 577 c 1
 573.489257812 577 693.943359375 590.733398438 799 657 c 0
 874 705 914 764 914 827 c 0
 914 895 862 964 778 964 c 0
EndSplineSet
Validated: 513
EndChar

StartChar: "+/soA"
Encoding: 65226 65226 119
Width: 952
Flags: HMW
AnchorPoint: "Anchor-5" 506 1327 basechar 0
AnchorPoint: "Anchor-3" 585 -639 basechar 0
LayerCount: 2
Fore
SplineSet
962 448 m 0
 709 448 l 2
 608 448 529 464 439 501 c 1
 319 372 219 221 219 36 c 0
 219 -216 415 -293 585 -293 c 0
 748 -293 847 -231 933 -120 c 1
 1031 -203 l 1
 908 -349 788 -422 585 -422 c 0
 334 -422 90 -288 90 37 c 0
 90 221 177 421 320 564 c 1
 223 623 127 724 127 860 c 0
 127 1000 306 1092 505 1092 c 0
 643 1092 883 1020 883 860 c 0
 883 834 868 810 844 800 c 0
 822 791 686 721 545 601 c 1
 594.9921875 585.31640625 652.666015625 574.987304688 705.79296875 574.987304688 c 0
 706.86328125 574.987304688 708 575 709 575 c 2
 962 577 l 3
 976 577 l 1
 976 448 l 1
 962 448 l 0
505 963 m 0
 371 963 256 905 256 860 c 0
 256 798 338 695 412 658 c 1
 538 776 659 849 730 887 c 1
 670 941 571 963 505 963 c 0
EndSplineSet
Validated: 513
EndChar

StartChar: "+/toA"
Encoding: 65242 65242 123
Width: 1729
Flags: HMW
AnchorPoint: "Anchor-3" 848 189 basechar 0
AnchorPoint: "Anchor-5" 1064 1836 basechar 0
LayerCount: 2
Fore
SplineSet
1352 648 m 0
 1390 689 1408 745 1408 807 c 0
 1408 860 1394 892 1336 942 c 0
 1278 992 1174 1051 1018 1126 c 0
 938.022460938 1164.47070312 881.94140625 1230.99511719 881.94140625 1311.54101562 c 0
 881.94140625 1386.7109375 930.497070312 1453.98535156 1005 1503 c 2
 1622 1911 l 1
 1693 1803 l 1
 1076 1395 l 2
 1024 1360 1011 1329 1011 1310 c 0
 1011 1291 1023 1266 1074 1242 c 0
 1214 1175 1316 1120 1390 1064 c 0
 1527 970 1558 816 1586 717 c 0
 1600 667 1615 631 1634 611 c 0
 1653 591 1676 577 1739 577 c 3
 1745.07226562 577 1753 557.18359375 1753 534 c 2
 1753 491 l 2
 1753 465.608398438 1745.07226562 448 1739 448 c 0
 1652 448 1583 476 1539 523 c 0
 1514 550 1497 580 1485 611 c 1
 1474 593 1461 576 1446 560 c 0
 1378.4453125 488.288085938 1290 447.974609375 885.2578125 447.974609375 c 0
 671.325195312 447.974609375 473.76953125 450.446289062 324 504 c 0
 163 561 90 654 90 794 c 0
 90 863 107 911 124 976 c 1
 248 943 l 1
 235 894 218 841 218 793 c 0
 218 701 278 657 365 627 c 0
 496 583 713 577 951 577 c 0
 1221 577 1314 607 1352 648 c 0
EndSplineSet
Validated: 513
EndChar

StartChar: "+/toA"
Encoding: 65242 65242 124
Width: 1729
Flags: HMW
AnchorPoint: "Anchor-5" 806 1697 basechar 0
AnchorPoint: "Anchor-3" 822 181 basechar 0
LayerCount: 2
Fore
SplineSet
1739 577 m 3
 1753 577 l 1
 1753 448 l 1
 1739 448 l 0
 1652 448 1583 476 1539 523 c 0
 1514 550 1497 580 1485 611 c 1
 1474 593 1461 576 1446 560 c 0
 1381 491 1280 448 1149 448 c 2
 829 448 l 2
 637 448 460 456 324 504 c 0
 163 561 90 654 90 794 c 0
 90 863 107 911 124 976 c 1
 248 943 l 1
 235 894 218 841 218 793 c 0
 218 701 278 657 365 627 c 0
 473 590 640 577 829 577 c 2
 1149 577 l 2
 1254 577 1314 607 1352 648 c 0
 1390 689 1408 745 1408 807 c 0
 1408 1095 1359 1262 1243 1463 c 1
 1355 1528 l 1
 1479 1313 1548 1111 1548 808 c 0
 1548 707.383789062 1598.61328125 576.994140625 1737.40917969 576.994140625 c 0
 1737.93847656 576.994140625 1738.46875 576.99609375 1739 577 c 3
EndSplineSet
Refer: 187 1620 N 1 0 0 1 600 -769 2
Validated: 513
EndChar

StartChar: "+/t4A"
Encoding: 65246 65246 126
Width: 1642
Flags: HMW
AnchorPoint: "Anchor-5" 709 1333 basechar 0
AnchorPoint: "Anchor-3" 682 -367 basechar 0
LayerCount: 2
Fore
SplineSet
1652 448 m 0
 1541.49707031 448 1456.74707031 475.543945312 1395 527 c 1
 1394 473 l 2
 1394 119 1003 -132 686 -132 c 0
 393 -132 90 36 90 341 c 0
 90 558 260 792 623 956 c 1
 676 839 l 1
 340 687 219 495 219 341 c 0
 219 122 440 -3 686 -3 c 0
 920 -3 1266 195 1266 473 c 2
 1266 1665 l 1
 1394 1665 l 1
 1394 1025 l 2
 1394 759.209960938 1394.64453125 577 1652 577 c 3
 1666 577 l 1
 1666 448 l 1
 1652 448 l 0
EndSplineSet
Validated: 513
EndChar

StartChar: "+/uIA"
Encoding: 65250 65250 127
Width: 1144
Flags: HMW
AnchorPoint: "Anchor-5" 641 1319 basechar 0
AnchorPoint: "Anchor-3" 671 -315 basechar 0
LayerCount: 2
Fore
SplineSet
1154 448 m 0
 1073 448 1004 470 954 529 c 1
 909 482 841 451 744 448 c 0
 628 448 511 465 421 465 c 0
 264 465 219 402 219 261 c 2
 219 -422 l 1
 90 -422 l 1
 90 262 l 2
 90 379 120 533 291 575 c 1
 348 731 l 2
 380 818 409 901 450 968 c 0
 491 1035 556 1093 642 1093 c 0
 824 1093 1020 905 1020 716 c 0
 1020 616.001953125 1061.43066406 577 1154 577 c 3
 1168 577 l 1
 1168 448 l 1
 1154 448 l 0
642 965 m 0
 610 965 590 950 560 901 c 0
 530 852 502 773 469 686 c 2
 435 595 l 1
 538 595 648 577 744 577 c 0
 814 578 892 597 892 716 c 0
 889 843 743 965 642 965 c 0
EndSplineSet
Validated: 513
EndChar

StartChar: "+/u4A"
Encoding: 65262 65262 129
Width: 854
Flags: HMW
AnchorPoint: "Anchor-5" 398 1284 basechar 0
AnchorPoint: "Anchor-3" 395 -290 basechar 0
LayerCount: 2
Fore
SplineSet
864 577 m 1
 878 577 l 1
 878 448 l 21
 864 448 l 0
 682 448 l 1
 632 210 444 39 180 -64 c 1
 134 57 l 1
 331 135 498 258 550 448 c 1
 405 448 l 2
 215 448 90 557 90 726 c 0
 90 904 232 1093 403 1093 c 0
 592 1093 697 810 707 577 c 1
 864 577 l 1
403 964 m 0
 313 964 219 842 219 729 c 0
 219 617 304 578 409 578 c 2
 573 578 l 1
 573 589.142578125 573.134765625 600.336914062 573.134765625 611.299804688 c 0
 573.134765625 748.041992188 489.022460938 964 403 964 c 0
EndSplineSet
Validated: 513
PairPos2: "'kern' Horizontal Kerning lookup 6 subtable 3" غ dx=-299 dy=0 dh=-299 dv=0 dx=0 dy=0 dh=0 dv=0
PairPos2: "'kern' Horizontal Kerning lookup 6 subtable 3" ع dx=-299 dy=0 dh=-299 dv=0 dx=0 dy=0 dh=0 dv=0
EndChar

StartChar: "+/uoA"
Encoding: 65258 65258 131
Width: 955
Flags: HMW
AnchorPoint: "Anchor-5" 461 1311 basechar 0
AnchorPoint: "Anchor-3" 450 162 basechar 0
LayerCount: 2
Fore
SplineSet
965 448 m 0
 639 448 612 963 457 963 c 0
 353 963 219 852 219 730 c 0
 219 619 354 577 457 577 c 1
 457 448 l 1
 266 448 90 559 90 730 c 0
 90 913 267 1092 457 1092 c 0
 738 1092 725 577 965 577 c 3
 979 577 l 1
 979 448 l 1
 965 448 l 0
EndSplineSet
Validated: 513
EndChar

StartChar: "+BmAA"
Encoding: 1632 1632 137
Width: 656
Flags: HMW
LayerCount: 2
Fore
SplineSet
328 988 m 0
 459 988 566 881 566 750 c 0
 566 619 459 512 328 512 c 0
 197 512 90 619 90 750 c 0
 90 881 197 988 328 988 c 0
328 859 m 0
 267 859 219 811 219 750 c 0
 219 689 267 641 328 641 c 0
 389 641 437 689 437 750 c 0
 437 811 389 859 328 859 c 0
EndSplineSet
Validated: 513
EndChar

StartChar: "+BmEA"
Encoding: 1633 1633 138
Width: 490
Flags: HMW
LayerCount: 2
Fore
SplineSet
214 1682 m 1
 325 1266 400 865 400 448 c 1
 271 448 l 1
 271 849 200 1238 90 1648 c 1
 214 1682 l 1
EndSplineSet
Validated: 513
EndChar

StartChar: "+BmIA"
Encoding: 1634 1634 139
Width: 914
Flags: HMW
LayerCount: 2
Fore
SplineSet
215 1682 m 5
 258.0390625 1515.22363281 296.245117188 1222 479 1222 c 4
 694.552734375 1222 695 1438.45507812 695 1665 c 5
 824 1665 l 5
 824 1369.50683594 778.66796875 1093 479 1093 c 4
 425 1093 379 1108 338 1133 c 5
 377 906 401 679 401 448 c 5
 272 448 l 5
 272 847.403320312 190.420898438 1265.57324219 90 1649 c 5
 215 1682 l 5
EndSplineSet
Validated: 513
EndChar

StartChar: "+BmMA"
Encoding: 1635 1635 140
Width: 1302
Flags: HMW
LayerCount: 2
Fore
SplineSet
925 1093 m 0
 814.155273438 1093 728.026367188 1152.82714844 686 1229 c 1
 644.390625 1150.98339844 555.000976562 1093 443 1093 c 0
 406 1093 372 1102 341 1117 c 1
 379 895 400 674 400 448 c 1
 271 448 l 1
 271 847.39453125 189.4453125 1271.52832031 90 1648 c 1
 214 1682 l 1
 255.149414062 1525.87597656 285.408203125 1222 443 1222 c 0
 621.950195312 1222 622 1466.49316406 622 1665 c 1
 751 1665 l 1
 751 1470.23339844 751.790039062 1222 925 1222 c 0
 1078 1222 1083 1438.45507812 1083 1665 c 1
 1212 1665 l 1
 1212 1369.50683594 1162.11523438 1093 925 1093 c 0
EndSplineSet
Validated: 513
EndChar

StartChar: "+BmQA"
Encoding: 1636 1636 141
Width: 815
Flags: HMW
LayerCount: 2
Fore
SplineSet
622.096679688 1645 m 1
 622.096679688 1516 l 1
 444 1516 325.096679688 1474.66796875 325.096679688 1365 c 0
 325.096679688 1246.38769531 429.641601562 1223 610.096679688 1223 c 1
 610.096679688 1094 l 1
 379.692382812 1094 218.461914062 939.83203125 218.461914062 771.586914062 c 0
 218.461914062 634.50390625 327.7890625 577 499.096679688 577 c 2
 725.096679688 577 l 1
 725.096679688 448 l 1
 499.096679688 448 l 2
 268.91796875 448 90 559.42578125 90 774.16796875 c 0
 90 942.749023438 189.408203125 1068.84863281 325.096679688 1148 c 1
 240.311523438 1190.39257812 196.096679688 1283.61914062 196.096679688 1365 c 0
 196.096679688 1558.34472656 374.508789062 1645 622.096679688 1645 c 1
EndSplineSet
Validated: 513
EndChar

StartChar: "+BmUA"
Encoding: 1637 1637 142
Width: 999
Flags: HMW
LayerCount: 2
Fore
SplineSet
425.166015625 1704 m 1
 732.206054688 1396.95996094 909.124023438 1108.0234375 909.124023438 830.137695312 c 0
 909.124023438 588.911132812 740.451171875 454 494.166015625 454 c 0
 245.583007812 454 90 602.149414062 90 842.8671875 c 0
 90 1082.43847656 213.686523438 1324.83691406 407.166015625 1536 c 1
 384.166015625 1561 359.166015625 1586 333.166015625 1612 c 1
 425.166015625 1704 l 1
492.166015625 1438 m 1
 322.225585938 1247.20800781 219.120117188 1031.23242188 219.120117188 841.275390625 c 0
 219.120117188 668.993164062 308.108398438 583 494.166015625 583 c 0
 679.495117188 583 780.83984375 656.37109375 780.83984375 826.4296875 c 0
 780.83984375 1009.10058594 681.366210938 1206.75488281 492.166015625 1438 c 1
EndSplineSet
Validated: 513
EndChar

StartChar: "+BmYA"
Encoding: 1638 1638 143
Width: 917
Flags: HMW
LayerCount: 2
Fore
SplineSet
721 1664 m 1
 721 1204.42578125 743.793945312 869.655273438 827 461 c 1
 701 435 l 1
 624 810 595 1124 592 1524 c 1
 532.265625 1520.1953125 466.016601562 1518.12792969 398.981445312 1518.12792969 c 0
 289.828125 1518.12792969 178.591796875 1523.609375 90 1536 c 1
 108 1663 l 1
 186.798828125 1651.74316406 293.758789062 1646.80761719 399.149414062 1646.80761719 c 0
 523.5859375 1646.80761719 620.078125 1654.04980469 721 1664 c 1
EndSplineSet
Validated: 513
EndChar

StartChar: "+BmcA"
Encoding: 1639 1639 144
Width: 1078
Flags: HMW
LayerCount: 2
Fore
SplineSet
201 1666 m 1
 361 1395 470 1119 539 826 c 1
 608 1119 717 1395 877 1666 c 1
 988 1600 l 1
 775 1237 657 874 603 457 c 1
 475 457 l 1
 421 874 303 1237 90 1600 c 1
 201 1666 l 1
EndSplineSet
Validated: 513
EndChar

StartChar: "+BmkA"
Encoding: 1641 1641 146
Width: 862
Flags: HMW
LayerCount: 2
Fore
SplineSet
417.255859375 1665 m 0
 536.86328125 1665 607.858398438 1595.09179688 640.255859375 1506 c 0
 672.255859375 1418 673.255859375 1312 673.255859375 1197 c 2
 673.12109375 1105.23925781 l 2
 673.12109375 897.680664062 679.174804688 673.934570312 772.255859375 513 c 1
 661.255859375 448 l 1
 556.255859375 630 544.255859375 848 544.255859375 1042 c 1
 511.255859375 1034 475.255859375 1029 437.255859375 1029 c 0
 217.548828125 1029 90 1172.95019531 90 1329.27636719 c 0
 90 1508.74023438 241.434570312 1665 417.255859375 1665 c 0
417.255859375 1536 m 0
 324.395507812 1536 219.62109375 1429.68945312 219.62109375 1326.73828125 c 0
 219.62109375 1244.87011719 273.28515625 1158 437.255859375 1158 c 0
 477.255859375 1158 514.255859375 1165 545.255859375 1177 c 0
 545.255859375 1183 545.255859375 1191 545.255859375 1197 c 0
 545.255859375 1310 538.255859375 1407 518.255859375 1463 c 0
 500.784179688 1511.92089844 480.973632812 1536 417.255859375 1536 c 0
EndSplineSet
Validated: 513
EndChar

StartChar: "+BvAA"
Encoding: 1776 1776 147
Width: 656
Flags: HMW
LayerCount: 2
Fore
SplineSet
328 988 m 0
 459 988 566 881 566 750 c 0
 566 619 459 512 328 512 c 0
 197 512 90 619 90 750 c 0
 90 881 197 988 328 988 c 0
328 859 m 0
 267 859 219 811 219 750 c 0
 219 689 267 641 328 641 c 0
 389 641 437 689 437 750 c 0
 437 811 389 859 328 859 c 0
EndSplineSet
Validated: 513
EndChar

StartChar: "+BvQA"
Encoding: 1780 1780 151
Width: 977
Flags: HMW
LayerCount: 2
Fore
SplineSet
330.373046875 1172 m 1
 374.162109375 932 400 692.755859375 400 448 c 1
 271 448 l 1
 271 849 200 1238 90 1648 c 1
 214 1682 l 1
 242.411132812 1575.52441406 274.959960938 1438.03027344 298 1333 c 1
 298 1632.66796875 574.506835938 1678 870 1678 c 1
 870 1549 l 1
 643.455078125 1549 427 1548.55273438 427 1333 c 0
 427 1150.24511719 720.223632812 1112.0390625 887 1069 c 1
 854 944 l 1
 673 980 411 1052 330.373046875 1172 c 1
EndSplineSet
Validated: 513
EndChar

StartChar: "+BvUA"
Encoding: 1781 1781 152
Width: 999
Flags: HMW
LayerCount: 2
Fore
SplineSet
425.401367188 1697 m 1
 741.985351562 1380.41601562 909.8515625 1070.99023438 909.8515625 825.458984375 c 0
 909.8515625 636.686523438 814.403320312 448 639.401367188 448 c 0
 586.401367188 448 540.401367188 463 501.401367188 487 c 1
 462.401367188 463 415.401367188 448 362.401367188 448 c 0
 183.049804688 448 90 645.607421875 90 838.403320312 c 0
 90 1057.11523438 210.767578125 1314.25585938 407.401367188 1529 c 1
 384.401367188 1554 359.401367188 1580 333.401367188 1606 c 1
 425.401367188 1697 l 1
500.401367188 1431 m 1
 317.401367188 1235 219.401367188 996 219.401367188 829 c 0
 219.401367188 724 260.401367188 581 388.401367188 581 c 0
 425.401367188 581 464.401367188 599 500.401367188 644 c 1
 536.401367188 599 575.401367188 581 612.401367188 581 c 0
 740.401367188 581 781.401367188 724 781.401367188 829 c 0
 781.401367188 996 683.401367188 1235 500.401367188 1431 c 1
EndSplineSet
Validated: 513
EndChar

StartChar: "+BvYA"
Encoding: 1782 1782 153
Width: 917
Flags: HMW
LayerCount: 2
Fore
SplineSet
470.743164062 1666.10742188 m 0
 504.41796875 1666.10742188 539.571289062 1660.07128906 573 1648 c 1
 528 1527 l 1
 508.637695312 1534.22460938 488.607421875 1537.60742188 468.392578125 1537.60742188 c 0
 342.203125 1537.60742188 219 1406.66992188 219 1297 c 0
 219 1198.91894531 311.64453125 1157 416 1157 c 0
 507 1157 614 1193 698 1269 c 0
 710 1281 721 1294 733 1306 c 1
 827 1218 l 1
 814 1203 801 1189 787 1176 c 0
 519 901 420 717 267 448 c 1
 155 511 l 1
 263 701 349 858 489 1034 c 1
 464 1030 440 1029 416 1029 c 0
 245.280273438 1029 90 1126.01660156 90 1297 c 0
 90 1485.25097656 267.916015625 1666.10742188 470.743164062 1666.10742188 c 0
EndSplineSet
Validated: 513
EndChar

StartChar: .
Encoding: 46 46 157
Width: 360
Flags: HMW
LayerCount: 2
Fore
SplineSet
90 628 m 5
 270 628 l 5
 270 448 l 5
 90 448 l 5
 90 628 l 5
EndSplineSet
Validated: 1
EndChar

StartChar: "+Bh8A"
Encoding: 1567 1567 158
Width: 930
Flags: HMW
LayerCount: 2
Fore
SplineSet
463 1665 m 0
 685.501953125 1665 840 1486.86425781 840 1289 c 1
 711 1289 l 1
 711 1419.43847656 610.434570312 1536 464 1536 c 0
 339.2109375 1536 219 1438.00976562 219 1289 c 0
 219 1203 264 1121 342 1076 c 0
 458 1009 529 884 529 750 c 1
 401 750 l 1
 401 838 353 920 277 964 c 0
 158 1033 90 1159 90 1290 c 0
 90 1515.54785156 274.543945312 1663.77636719 463 1665 c 0
EndSplineSet
Refer: 157 46 N 1 0 0 1 295 0 2
Validated: 513
EndChar

StartChar: !
Encoding: 33 33 159
Width: 360
Flags: HMW
LayerCount: 2
Fore
SplineSet
116 1665 m 1
 244 1665 l 1
 244 750 l 1
 116 750 l 1
 116 1665 l 1
EndSplineSet
Refer: 157 46 N 1 0 0 1 10 0 2
Validated: 513
EndChar

StartChar: %
Encoding: 37 37 160
Width: 1210
Flags: HMW
LayerCount: 2
Fore
SplineSet
328 1708 m 0
 459 1708 566 1601 566 1470 c 0
 566 1339 459 1232 328 1232 c 0
 197 1232 90 1339 90 1470 c 0
 90 1601 197 1708 328 1708 c 0
804 1690 m 1
 923 1640 l 1
 406 423 l 1
 287 473 l 1
 804 1690 l 1
328 1579 m 0
 267 1579 219 1531 219 1470 c 0
 219 1409 267 1361 328 1361 c 0
 389 1361 437 1409 437 1470 c 0
 437 1531 389 1579 328 1579 c 0
882 881 m 0
 1013 881 1120 774 1120 643 c 0
 1120 512 1013 405 882 405 c 0
 751 405 644 512 644 643 c 0
 644 774 751 881 882 881 c 0
882 752 m 0
 821 752 773 704 773 643 c 0
 773 582 821 534 882 534 c 0
 943 534 991 582 991 643 c 0
 991 704 943 752 882 752 c 0
EndSplineSet
Validated: 513
EndChar

StartChar: (
Encoding: 40 40 162
Width: 440
Flags: HMW
LayerCount: 2
Fore
SplineSet
234 1691 m 1
 350 1635 l 1
 263 1457 219 1263 219 1070 c 0
 219 877 263 683 350 505 c 1
 234 448 l 1
 138 644 90 857 90 1070 c 0
 90 1283 138 1495 234 1691 c 1
EndSplineSet
Validated: 513
EndChar

StartChar: {
Encoding: 123 123 164
Width: 449
Flags: HMW
LayerCount: 2
Fore
SplineSet
90 1085 m 1
 135 1126 193 1169 193 1254 c 3
 193 1327 161 1411 161 1494 c 3
 161 1619 234 1704 324 1720 c 1
 359 1596 l 1
 324 1586 292 1570 292 1492 c 3
 292 1413 322 1332 322 1247 c 3
 322 1184 306 1118 268 1085 c 1
 306 1052 322 986 322 923 c 3
 322 838 292 757 292 678 c 3
 292 600 324 584 359 574 c 1
 324 450 l 1
 234 466 161 551 161 676 c 3
 161 759 193 843 193 916 c 3
 193 1001 135 1044 90 1085 c 1
EndSplineSet
Validated: 513
EndChar

StartChar: /
Encoding: 47 47 166
Width: 631
Flags: HMW
LayerCount: 2
Fore
SplineSet
416 1682 m 1
 541 1648 l 1
 214 431 l 1
 90 465 l 1
 416 1682 l 1
EndSplineSet
Validated: 513
EndChar

StartChar: <
Encoding: 60 60 168
Width: 619
Flags: HMW
LayerCount: 2
Fore
SplineSet
438 1324 m 1
 529 1233 l 1
 272 976 l 1
 529 720 l 1
 438 628 l 1
 90 976 l 1
 438 1324 l 1
EndSplineSet
Validated: 513
EndChar

StartChar: "+/vsA"
Encoding: 65275 65275 169
Width: 878
Flags: HMW
AnchorPoint: "Anchor-4" 722 1838 baselig 0
AnchorPoint: "Anchor-4" 127 1812 baselig 1
AnchorPoint: "Anchor-2" 677 253 baselig 0
AnchorPoint: "Anchor-2" 330 258 baselig 1
LayerCount: 2
Fore
SplineSet
238 1682 m 1
 338 1309 409 948 422 577 c 1
 462 577 l 2
 575 577 605 604 628 655 c 0
 651 706 659 795 659 897 c 2
 659 1665 l 1
 788 1665 l 1
 788 897 l 2
 788 788.8515625 787.153320312 693.33984375 746 602 c 0
 705 511 606 448 462 448 c 2
 90 448 l 1
 90 577 l 1
 293 577 l 1
 280 933 212 1282 114 1648 c 1
 238 1682 l 1
EndSplineSet
Validated: 513
LCarets2: 1 0
Ligature2: "'rlig' Required Ligatures in Arabic lookup 3 subtable" ﻟ ﺎ
EndChar

StartChar: =
Encoding: 61 61 170
Width: 696
Flags: HMW
LayerCount: 2
Fore
SplineSet
90 1008 m 1
 606 1008 l 1
 606 879 l 1
 90 879 l 1
 90 1008 l 1
90 750 m 1
 606 750 l 1
 606 622 l 1
 90 622 l 1
 90 750 l 1
EndSplineSet
Validated: 513
EndChar

StartChar: -
Encoding: 45 45 171
Width: 696
Flags: HMW
LayerCount: 2
Fore
SplineSet
606 750 m 1
 90 750 l 1
 90 879 l 1
 606 879 l 1
 606 750 l 1
EndSplineSet
Validated: 513
EndChar

StartChar: underscore
Encoding: 95 95 172
Width: 934
VWidth: 1972
Flags: W
LayerCount: 2
Fore
SplineSet
941.59840625 156.079101562 m 1
 941.59840625 71.9208984375 l 1
 941.59840625 64.7638984375 l 1
 934.44140625 64.7638984375 l 1
 89.55859375 64.7638984375 l 1
 82.40159375 64.7638984375 l 1
 82.40159375 71.9208984375 l 1
 82.40159375 156.079101562 l 1
 82.40159375 163.236101563 l 1
 89.55859375 163.236101563 l 1
 934.44140625 163.236101563 l 1
 941.59840625 163.236101563 l 1
 941.59840625 156.079101562 l 1
EndSplineSet
EndChar

StartChar: *
Encoding: 42 42 173
Width: 786
Flags: HMW
LayerCount: 2
Fore
SplineSet
358 1396 m 1
 428 1396 l 1
 428 1178 l 1
 583 1332 l 1
 632 1283 l 1
 478 1128 l 1
 696 1128 l 1
 696 1058 l 1
 478 1058 l 1
 632 904 l 1
 583 854 l 1
 428 1009 l 1
 428 790 l 1
 358 790 l 1
 358 1009 l 1
 204 854 l 1
 154 904 l 1
 309 1058 l 1
 90 1058 l 1
 90 1128 l 1
 309 1128 l 1
 154 1283 l 1
 204 1332 l 1
 358 1178 l 1
 358 1396 l 1
EndSplineSet
Validated: 513
EndChar

StartChar: "+BhUA"
Encoding: 1557 1557 177
Width: 0
Flags: HMW
AnchorPoint: "Anchor-5" 142 1490 mark 0
AnchorPoint: "Anchor-4" 142 1490 mark 0
AnchorPoint: "Anchor-1" 124 2123 basemark 0
AnchorPoint: "Anchor-1" 142 1490 mark 0
LayerCount: 2
Fore
SplineSet
458 1760 m 1
 458 1634 296 1595 176 1595 c 2
 20 1595 l 1
 20 1665 l 1
 96 1665 l 1
 92 2032 l 1
 162 2033 l 1
 165 1744 l 1
 201 1797 255 1873 343 1873 c 0
 407 1873 458 1824 458 1760 c 1
340 1803 m 0
 275 1796 225 1715 201 1666 c 1
 268 1670 388 1692 388 1761 c 0
 388 1786 366 1803 340 1803 c 0
EndSplineSet
Validated: 513
EndChar

StartChar: "+Bk4A"
Encoding: 1614 1614 180
Width: 0
Flags: HMW
AnchorPoint: "Anchor-5" 240.038 1846.57 mark 0
AnchorPoint: "Anchor-4" 240.038 1846.57 mark 0
AnchorPoint: "Anchor-1" 207.313 2006.49 basemark 0
AnchorPoint: "Anchor-1" 240.038 1846.57 mark 0
LayerCount: 2
Fore
SplineSet
408.596679688 2046.76464844 m 1
 438.345703125 1983.92382812 l 1
 25.4033203125 1791.23535156 l 1
 -4.345703125 1854.07617188 l 1
 408.596679688 2046.76464844 l 1
EndSplineSet
Validated: 513
LCarets2: 1 -1388
Ligature2: "'liga' Standard Ligatures in Arabic lookup 6 subtable" space َ
EndChar

StartChar: "+Bk8A"
Encoding: 1615 1615 182
Width: 0
Flags: HMW
AnchorPoint: "Anchor-5" 200.469 1805.97 mark 0
AnchorPoint: "Anchor-4" 200.469 1805.97 mark 0
AnchorPoint: "Anchor-1" 204.262 2278.88 basemark 0
AnchorPoint: "Anchor-1" 200.469 1805.97 mark 0
LayerCount: 2
Fore
SplineSet
28.6357421875 1780.27734375 m 1
 -1.11328125 1843.11816406 l 1
 123.084960938 1900.94433594 l 1
 69.4292057451 1931.17775356 37.6550345146 1987.84028655 37.6550345146 2047.13048659 c 0
 37.6550345146 2148.25466536 120.450534258 2213.81869935 204.736326477 2213.81869935 c 0
 306.103380881 2213.81869935 372.522160779 2130.54858721 372.522160779 2045.96427653 c 0
 372.522160779 1971.66853404 329.948916159 1920.58406994 275.807617188 1895.22167969 c 2
 28.6357421875 1780.27734375 l 1
204.55768753 1948.80688526 m 0
 254.093759557 1948.80688526 302.622163097 1987.34851201 302.622163097 2046.75423674 c 0
 302.622163097 2096.17694509 264.161336321 2144.79945833 204.873644092 2144.79945833 c 0
 155.369083139 2144.79945833 107.507973577 2105.65462064 107.507973577 2046.12974293 c 0
 107.507973577 1996.79724103 145.324814979 1948.80688526 204.55768753 1948.80688526 c 0
EndSplineSet
Validated: 513
LCarets2: 1 -506
Ligature2: "'liga' Standard Ligatures in Arabic lookup 6 subtable" space ُ
EndChar

StartChar: "+BlEA"
Encoding: 1617 1617 183
Width: 0
Flags: HMW
AnchorPoint: "Anchor-5" 345 1746 mark 0
AnchorPoint: "Anchor-4" 345 1746 mark 0
AnchorPoint: "Anchor-1" 349 2109 basemark 0
AnchorPoint: "Anchor-1" 345 1746 mark 0
LayerCount: 2
Fore
SplineSet
378 2017 m 1
 378 1896.56152344 378.359375 1816 493 1816 c 0
 606.623046875 1816 607 1897.77636719 607 2017 c 1
 677 2017 l 1
 677 1862.14453125 652.767578125 1746 493 1746 c 0
 423.022460938 1746 374.760742188 1770.09667969 347 1813 c 1
 319.239138316 1770.09685012 270.97741943 1746 201 1746 c 0
 41.232700883 1746 17 1862.14453125 17 2017 c 1
 87 2017 l 1
 87 1897.77636719 87.3772029108 1816 201 1816 c 0
 315.640822248 1816 316 1896.56152344 316 2017 c 1
 378 2017 l 1
EndSplineSet
Validated: 513
LCarets2: 1 0
Ligature2: "'liga' Standard Ligatures in Arabic lookup 6 subtable" space ّ
EndChar

StartChar: "+BlIA"
Encoding: 1618 1618 184
Width: 0
Flags: HMW
AnchorPoint: "Anchor-5" 187 1691 mark 0
AnchorPoint: "Anchor-4" 187 1691 mark 0
AnchorPoint: "Anchor-1" 188 2127 basemark 0
AnchorPoint: "Anchor-1" 187 1691 mark 0
LayerCount: 2
Fore
SplineSet
187 2080 m 0
 279 2080 355 2005 355 1913 c 0
 355 1821 279 1746 187 1746 c 0
 95 1746 20 1821 20 1913 c 0
 20 2005 95 2080 187 2080 c 0
187 2011 m 0
 133 2011 90 1967 90 1913 c 0
 90 1859 133 1815 187 1815 c 0
 241 1815 285 1859 285 1913 c 0
 285 1967 241 2011 187 2011 c 0
EndSplineSet
Validated: 513
LCarets2: 1 0
Ligature2: "'liga' Standard Ligatures in Arabic lookup 6 subtable" space ْ
EndChar

StartChar: "+BkwA"
Encoding: 1612 1612 185
Width: 0
Flags: HMW
AnchorPoint: "Anchor-5" 299.193 1764.92 mark 0
AnchorPoint: "Anchor-4" 299.193 1764.92 mark 0
AnchorPoint: "Anchor-1" 334.443 2397.45 basemark 0
AnchorPoint: "Anchor-1" 299.193 1764.92 mark 0
LayerCount: 2
Fore
SplineSet
336.469726562 2274.64453125 m 0
 210.077148438 2274.64453125 108.4375 2173.00488281 108.4375 2046.61132812 c 0
 108.4375 1996.47070312 124.173828125 1950.27246094 151.364257812 1912.72265625 c 1
 86.46484375 1884.00683594 l 1
 56.0732421875 1930.7265625 38.4375 1986.5546875 38.4375 2046.61132812 c 0
 38.4375 2211.57714844 171.502929688 2344.64453125 336.469726562 2344.64453125 c 0
 336.469726562 2274.64453125 l 0
147 1779 m 1
 117.250976562 1841.84082031 l 1
 241.44921875 1899.66699219 l 1
 187.793945312 1929.90039062 156.01953125 1986.5625 156.01953125 2045.85351562 c 0
 156.01953125 2146.97753906 238.814453125 2212.54101562 323.100585938 2212.54101562 c 0
 424.467773438 2212.54101562 490.88671875 2129.27148438 490.88671875 2044.68652344 c 0
 490.88671875 1970.39160156 448.313476562 1919.30664062 394.171875 1893.94433594 c 2
 147 1779 l 1
322.921875 1947.52929688 m 0
 372.458007812 1947.52929688 420.986328125 1986.07128906 420.986328125 2045.4765625 c 0
 420.986328125 2094.89941406 382.525390625 2143.52246094 323.23828125 2143.52246094 c 0
 273.733398438 2143.52246094 225.872070312 2104.37695312 225.872070312 2044.85253906 c 0
 225.872070312 1995.51953125 263.689453125 1947.52929688 322.921875 1947.52929688 c 0
EndSplineSet
Validated: 513
LCarets2: 1 -504
Ligature2: "'liga' Standard Ligatures in Arabic lookup 6 subtable" space ٌ
EndChar

StartChar: "+BlQA"
Encoding: 1620 1620 187
Width: 0
Flags: HMW
AnchorPoint: "Anchor-5" 241 1798 mark 0
AnchorPoint: "Anchor-4" 241 1798 mark 0
AnchorPoint: "Anchor-1" 212 2255 basemark 0
AnchorPoint: "Anchor-1" 241 1798 mark 0
LayerCount: 2
Fore
SplineSet
376 1986 m 1
 405.749023438 1923.15917969 l 1
 65.4033203125 1764.23535156 l 1
 35.654296875 1827.07617188 l 1
 175.064453125 1891.8515625 l 1
 93.9330195734 1900.58221023 20 1940.6475337 20 2022 c 0
 20 2129.45802662 133.879720769 2227 251 2227 c 0
 268 2227 286 2225 304 2221 c 1
 287 2153 l 1
 275.635789365 2155.84105266 264.159473448 2157.16868403 252.756842172 2157.16868403 c 0
 175.235632044 2157.16868403 90 2087.07502492 90 2022 c 0
 90 1970.83037671 163.242647662 1960.13612045 221.662385248 1960.13612045 c 0
 272.480490935 1960.13612045 328.14453125 1968.52929688 376 1986 c 1
EndSplineSet
Validated: 513
LCarets2: 1 0
Ligature2: "'liga' Standard Ligatures in Arabic lookup 6 subtable" space ٔ
EndChar

StartChar: "+BlMA"
Encoding: 1619 1619 188
Width: 0
Flags: HMW
AnchorPoint: "Anchor-5" 241 1768 mark 0
AnchorPoint: "Anchor-4" 241 1768 mark 0
AnchorPoint: "Anchor-1" 234 1920 basemark 0
AnchorPoint: "Anchor-1" 241 1768 mark 0
LayerCount: 2
Fore
SplineSet
399 1914 m 1
 461 1881 l 1
 434 1830 380 1772 306 1772 c 0
 275 1772 243 1785 216 1811 c 0
 200 1826 187 1830 174 1830 c 0
 143 1830 100 1791 82 1758 c 1
 20 1791 l 1
 47 1842 100 1900 174 1900 c 0
 205 1900 237 1887 264 1861 c 0
 280 1846 293 1842 306 1842 c 0
 337 1842 381 1881 399 1914 c 1
EndSplineSet
Validated: 513
LCarets2: 1 0
Ligature2: "'liga' Standard Ligatures in Arabic lookup 6 subtable" space ٓ
EndChar

StartChar: "+BnAA"
Encoding: 1648 1648 189
Width: 0
Flags: HMW
AnchorPoint: "Anchor-5" 52 1683 mark 0
AnchorPoint: "Anchor-4" 52 1683 mark 0
AnchorPoint: "Anchor-1" 54 2199 basemark 0
AnchorPoint: "Anchor-1" 52 1683 mark 0
LayerCount: 2
Fore
SplineSet
20 2134 m 1
 90 2134 l 1
 90 1746 l 1
 20 1746 l 1
 20 2134 l 1
EndSplineSet
Validated: 513
LCarets2: 1 0
Ligature2: "'liga' Standard Ligatures in Arabic lookup 6 subtable" space ٰ
EndChar

StartChar: "+BloA"
Encoding: 1626 1626 191
Width: 0
Flags: HMW
AnchorPoint: "Anchor-5" 242 1719 mark 0
AnchorPoint: "Anchor-4" 242 1719 mark 0
AnchorPoint: "Anchor-1" 250 2085 basemark 0
AnchorPoint: "Anchor-1" 242 1719 mark 0
LayerCount: 2
Fore
SplineSet
273 1757 m 1
 216 1757 l 1
 20 2037 l 1
 77 2077 l 1
 244 1838 l 1
 412 2077 l 1
 469 2037 l 1
 273 1757 l 1
EndSplineSet
Validated: 513
LCarets2: 1 0
Ligature2: "'liga' Standard Ligatures in Arabic lookup 6 subtable" space ٚ
EndChar

StartChar: "+/nEA"
Encoding: 65137 65137 192
Width: 856
Flags: HMW
AnchorPoint: "Anchor-5" 370 2349 basechar 0
AnchorPoint: "Anchor-3" 430 168 basechar 0
LayerCount: 2
Fore
SplineSet
-4 577 m 1
 861 577 l 1
 861 448 l 1
 -4 448 l 1
 -4 577 l 1
EndSplineSet
Refer: 180 1614 N 1 0 0 1 257 0 2
Refer: 180 1614 N 1 0 0 1 166 109 2
Validated: 513
EndChar

StartChar: "+/ncA"
Encoding: 65143 65143 193
Width: 856
Flags: HMW
AnchorPoint: "Anchor-5" 370 2081 basechar 0
AnchorPoint: "Anchor-3" 426 140 basechar 0
LayerCount: 2
Fore
SplineSet
-4 577 m 1
 861 577 l 1
 861 448 l 1
 -4 448 l 1
 -4 577 l 1
EndSplineSet
Refer: 180 1614 S 1 0 0 1 211 0 2
Validated: 513
EndChar

StartChar: "+/nkA"
Encoding: 65145 65145 194
Width: 856
Flags: HMW
AnchorPoint: "Anchor-5" 424 2346 basechar 0
AnchorPoint: "Anchor-3" 405 151 basechar 0
LayerCount: 2
Fore
SplineSet
-4 577 m 1
 861 577 l 1
 861 448 l 1
 -4 448 l 1
 -4 577 l 1
EndSplineSet
Refer: 182 1615 N 1 0 0 1 241 0 2
Validated: 513
EndChar

StartChar: "+/nsA"
Encoding: 65147 65147 195
Width: 856
Flags: HMW
AnchorPoint: "Anchor-5" 398 1784 basechar 0
AnchorPoint: "Anchor-3" 386 -266 basechar 0
LayerCount: 2
Fore
SplineSet
-4 577 m 1
 861 577 l 1
 861 448 l 1
 -4 448 l 1
 -4 577 l 1
EndSplineSet
Refer: 180 1614 N 1 0 0 1 212 -1877 2
Validated: 513
EndChar

StartChar: "+/n0A"
Encoding: 65149 65149 196
Width: 856
Flags: HMW
AnchorPoint: "Anchor-5" 426 2126 basechar 0
AnchorPoint: "Anchor-3" 405 154 basechar 0
LayerCount: 2
Fore
SplineSet
-4 577 m 1
 861 577 l 1
 861 448 l 1
 -4 448 l 1
 -4 577 l 1
EndSplineSet
Refer: 183 1617 N 1 0 0 1 82 0 2
Validated: 513
EndChar

StartChar: "+/n8A"
Encoding: 65151 65151 197
Width: 856
Flags: HMW
AnchorPoint: "Anchor-5" 427 2218 basechar 0
AnchorPoint: "Anchor-3" 424 176 basechar 0
LayerCount: 2
Fore
SplineSet
-4 577 m 1
 861 577 l 1
 861 448 l 1
 -4 448 l 1
 -4 577 l 1
EndSplineSet
Refer: 184 1618 N 1 0 0 1 241 0 2
Validated: 513
EndChar

StartChar: "+BkAA"
Encoding: 1600 1600 212
Width: 488
Flags: HMW
AnchorPoint: "Anchor-5" 115 1483 basechar 0
AnchorPoint: "Anchor-3" 109 -195 basechar 0
LayerCount: 2
Fore
SplineSet
502 448 m 1
 -14 448 l 1
 -14 577 l 1
 502 577 l 1
 502 448 l 1
EndSplineSet
Validated: 513
EndChar

StartChar: "+Bm0A"
Encoding: 1645 1645 214
Width: 786
Flags: HMW
LayerCount: 2
Fore
SplineSet
358 1396 m 1
 428 1396 l 1
 428 1178 l 1
 583 1332 l 1
 632 1283 l 1
 478 1128 l 1
 696 1128 l 1
 696 1058 l 1
 478 1058 l 1
 632 904 l 1
 583 854 l 1
 428 1009 l 1
 428 790 l 1
 358 790 l 1
 358 1009 l 1
 204 854 l 1
 154 904 l 1
 309 1058 l 1
 90 1058 l 1
 90 1128 l 1
 309 1128 l 1
 154 1283 l 1
 204 1332 l 1
 358 1178 l 1
 358 1396 l 1
EndSplineSet
Validated: 513
EndChar

StartChar: "+/vwA"
Encoding: 65276 65276 215
Width: 1035
Flags: HMW
AnchorPoint: "Anchor-4" 713 1817 baselig 0
AnchorPoint: "Anchor-4" 130 1812 baselig 1
AnchorPoint: "Anchor-2" 727 273 baselig 0
AnchorPoint: "Anchor-2" 334 272 baselig 1
LayerCount: 2
Fore
SplineSet
1045 448 m 0
 902.435546875 448 794.594726562 497.607421875 737 584 c 1
 691 503 596 448 462 448 c 2
 90 448 l 1
 90 577 l 1
 293 577 l 1
 280 933 212 1280 114 1646 c 1
 238 1680 l 1
 338 1307 409 948 422 577 c 1
 462 577 l 2
 575 577 605 604 628 655 c 0
 651 706 659 793 659 895 c 2
 659 1663 l 1
 788 1663 l 1
 788 967 l 1
 790.137695312 727.58984375 809.188476562 577 1045 577 c 3
 1059 577 l 1
 1059 448 l 1
 1045 448 l 0
EndSplineSet
Validated: 513
LCarets2: 1 0
Ligature2: "'rlig' Required Ligatures in Arabic lookup 3 subtable" ﻠ ﺎ
EndChar

StartChar: uni060C
Encoding: 1548 1548 219
Width: 523
Flags: HMW
LayerCount: 2
Fore
SplineSet
273.026367188 934.719726562 m 1
 330.026367188 894.719726562 l 1
 169.026367188 663.719726562 l 1
 427.026367188 663.719726562 l 1
 431.08203125 648.778320312 433.041992188 633.653320312 433.041992188 618.70703125 c 3
 433.041992188 529.685546875 359.541992188 447.969726562 261.526367188 447.969726562 c 3
 162.845703125 447.969726562 90 529.837890625 90 620.608398438 c 3
 90 658.502929688 100.633789062 688.130859375 121.026367188 718.719726562 c 2
 273.026367188 934.719726562 l 1
EndSplineSet
Validated: 1
EndChar

StartChar: uni066E
Encoding: 1646 1646 220
Width: 1903
Flags: HMW
AnchorPoint: "Anchor-5" 956 1190 basechar 0
AnchorPoint: "Anchor-3" 954 32 basechar 0
LayerCount: 2
Fore
SplineSet
124 976 m 1
 248 943 l 1
 235 894 218 841 218 793 c 0
 218 701 278 657 365 627 c 0
 496 583 713 577 951 577 c 0
 1189 577 1407 583 1538 627 c 0
 1625 657 1684 701 1684 793 c 0
 1684 841 1667 894 1654 943 c 1
 1779 976 l 1
 1796 911 1813 863 1813 794 c 0
 1813 654 1740 561 1579 504 c 0
 1429.23046875 450.446289062 1230.8515625 447.974609375 1016.76660156 447.974609375 c 2
 885.2578125 447.974609375 l 2
 671.325195312 447.974609375 473.76953125 450.446289062 324 504 c 0
 163 561 90 654 90 794 c 0
 90 863 107 911 124 976 c 1
EndSplineSet
Validated: 1
EndChar

StartChar: top-three-dots
Encoding: 1114121 -1 221
Width: 575
Flags: HMW
LayerCount: 2
Fore
SplineSet
972 1260 m 1
 1128 987.961914062 l 1
 1047.5 848 l 1
 734 848 l 1
 734 988 l 1
 967 988 l 1
 850 1190 l 1
 972 1260 l 1
EndSplineSet
Validated: 513
EndChar

StartChar: two-dots
Encoding: 1114122 -1 222
Width: 540
Flags: HMW
LayerCount: 2
Fore
SplineSet
761 988 m 5
 1141 988 l 5
 1141 848 l 5
 761 848 l 5
 761 988 l 5
EndSplineSet
Validated: 513
EndChar

StartChar: uni06BA
Encoding: 1722 1722 223
Width: 1496
Flags: HMW
AnchorPoint: "Anchor-5" 786 1193 basechar 0
AnchorPoint: "Anchor-3" 687 -383 basechar 0
LayerCount: 2
Fore
SplineSet
623 956 m 1
 676 839 l 1
 340 687 219 495 219 341 c 0
 219 140.9375 404.9375 -3 686 -3 c 0
 879 -3 1115 122 1212 290 c 0
 1253 362 1275 457 1275 561 c 0
 1275 661 1255 769 1211 872 c 2
 1196 905 l 1
 1315 956 l 1
 1329 923 l 2
 1380 803 1406 678 1406 559 c 0
 1406 437 1379 321 1324 226 c 0
 1198 7 931 -132 686 -132 c 0
 355.782226562 -132 90 52.3505859375 90 341 c 0
 90 558 260 792 623 956 c 1
EndSplineSet
Validated: 1
EndChar

StartChar: uni06A1
Encoding: 1697 1697 224
Width: 1937
Flags: HMW
AnchorPoint: "Anchor-5" 1550 1632 basechar 0
AnchorPoint: "Anchor-3" 951 148 basechar 0
LayerCount: 2
Fore
SplineSet
1601 510 m 0
 1453.02441406 452.638671875 1259.43554688 447.80078125 1067.34570312 447.80078125 c 2
 885.2578125 447.974609375 l 2
 671.325195312 447.974609375 473.76953125 450.446289062 324 504 c 0
 163 561 90 654 90 794 c 0
 90 863 107 911 124 976 c 1
 248 943 l 1
 235 894 218 841 218 793 c 0
 218 701 278 657 365 627 c 0
 496 583 713 577 951 577 c 2
 975.55078125 576.999023438 l 2
 1196.59667969 576.999023438 1419.07128906 577.928710938 1556 630 c 0
 1606 649 1642 673 1668 703 c 1
 1628 695 1589 691 1553 691 c 0
 1363 691 1238 800 1238 969 c 0
 1238 1147 1380 1336 1551 1336 c 0
 1749 1336 1847 1026 1847 855 c 0
 1847 692 1768 575 1601 510 c 0
1551 1207 m 0
 1461 1207 1367 1085 1367 972 c 0
 1367 860 1452 821 1557 821 c 0
 1608 821 1665 830 1718 845 c 1
 1718.09277344 848.161132812 1718.13867188 851.37109375 1718.13867188 854.625 c 0
 1718.13867188 991.383789062 1636.95507812 1207 1551 1207 c 0
EndSplineSet
Validated: 1
EndChar

StartChar: uni066F
Encoding: 1647 1647 225
Width: 1488
Flags: HMW
AnchorPoint: "Anchor-5" 1100 1419 basechar 0
AnchorPoint: "Anchor-3" 682 -410 basechar 0
LayerCount: 2
Fore
SplineSet
1092 1093 m 0
 1290 1093 1398 781 1398 543 c 0
 1398 76 964 -132 686 -132 c 0
 393 -132 90 36 90 341 c 0
 90 558 260 792 623 956 c 1
 676 839 l 1
 340 687 219 495 219 341 c 0
 219 122 440 -3 686 -3 c 0
 920 -3 1266 195 1266 473 c 1
 1210 460 l 2
 1170 452 1131 448 1095 448 c 0
 905 448 780 557 780 726 c 0
 780 904 921 1093 1092 1093 c 0
1092 964 m 0
 1002 964 908 842 908 729 c 0
 908 617 994 578 1099 578 c 0
 1150 578 1207 587 1260 602 c 1
 1260.09179688 605.125 1260.13769531 608.297851562 1260.13769531 611.514648438 c 0
 1260.13769531 748.267578125 1177.97753906 964 1092 964 c 0
EndSplineSet
Validated: 1
EndChar

StartChar: uniFBE8
Encoding: 64488 64488 226
Width: 473
Flags: HMW
AnchorPoint: "Anchor-5" 202 1312 basechar 0
AnchorPoint: "Anchor-3" 202 223 basechar 0
LayerCount: 2
Fore
SplineSet
0 448 m 0
 -14 448 l 1
 -14 577 l 1
 0 577 l 3
 68 577 160 590 208 642 c 0
 234.031474844 670.200764415 254.387695312 715.286481868 254.387695312 785.978515625 c 0
 254.387695312 848.91015625 239.1640625 935.485351562 198 1048 c 1
 319 1092 l 1
 363.793945312 969.501953125 383.517578125 869.567382812 383.517578125 786.0859375 c 0
 383.517578125 685.513254515 352.132081043 608.499377136 303 555 c 0
 212.541015625 456.5 81 448 0 448 c 0
EndSplineSet
Validated: 1
EndChar

StartChar: uniFBE9
Encoding: 64489 64489 227
Width: 558
Flags: HMW
AnchorPoint: "Anchor-5" 297 1170 basechar 0
AnchorPoint: "Anchor-3" 274 237 basechar 0
LayerCount: 2
Fore
SplineSet
299 563 m 1
 249 495 161 448 40 448 c 0
 -14 448 l 1
 -14 577 l 1
 40 577 l 0
 134 577 183 605 208 657 c 0
 235 712 235 794 235 898 c 1
 363 898 l 1
 363 794 363 712 390 657 c 0
 415 605 464 577 558 577 c 3
 572 577 l 1
 572 448 l 1
 558 448 l 0
 437 448 349 495 299 563 c 1
EndSplineSet
Validated: 1
EndChar

StartChar: GAF-bar
Encoding: 1114123 -1 228
Width: 938
Flags: HMW
LayerCount: 2
Fore
SplineSet
691 2055 m 1
 730 1997 l 1
 201 1642 l 1
 162 1700 l 1
 691 2055 l 1
EndSplineSet
Validated: 513
EndChar

StartChar: dotless-final-BEH
Encoding: 1114124 -1 229
Width: 1974
Flags: HMW
AnchorPoint: "Anchor-5" 968 1158 basechar 0
AnchorPoint: "Anchor-3" 950 12 basechar 0
LayerCount: 2
Fore
SplineSet
1984 447 m 0
 1864 447 1774 484 1729 589 c 1
 1692 555 1642 527 1579 504 c 0
 1429.23046875 450.446289062 1230.8515625 447.974609375 1016.76660156 447.974609375 c 2
 885.2578125 447.974609375 l 2
 671.325195312 447.974609375 473.76953125 450.446289062 324 504 c 0
 163 561 90 654 90 794 c 0
 90 863 107 911 124 976 c 1
 248 943 l 1
 235 894 218 841 218 793 c 0
 218 701 278 657 365 627 c 0
 496 583 713 577 951 577 c 0
 1189 577 1407 583 1538 627 c 0
 1625 657 1684 701 1684 793 c 0
 1684 841 1667 894 1654 943 c 1
 1779 976 l 1
 1809 885 1815.45214844 775.078125 1832 678 c 0
 1847 590 1911 576 1984 576 c 3
 1998 576 l 1
 1998 447 l 1
 1984 447 l 0
EndSplineSet
Validated: 513
EndChar

StartChar: uni066A
Encoding: 1642 1642 230
Width: 1210
Flags: HMW
LayerCount: 2
Fore
SplineSet
328 1708 m 0
 459 1708 566 1601 566 1470 c 0
 566 1339 459 1232 328 1232 c 0
 197 1232 90 1339 90 1470 c 0
 90 1601 197 1708 328 1708 c 0
804 1690 m 1
 923 1640 l 1
 406 423 l 1
 287 473 l 1
 804 1690 l 1
328 1579 m 0
 267 1579 219 1531 219 1470 c 0
 219 1409 267 1361 328 1361 c 0
 389 1361 437 1409 437 1470 c 0
 437 1531 389 1579 328 1579 c 0
882 881 m 0
 1013 881 1120 774 1120 643 c 0
 1120 512 1013 405 882 405 c 0
 751 405 644 512 644 643 c 0
 644 774 751 881 882 881 c 0
882 752 m 0
 821 752 773 704 773 643 c 0
 773 582 821 534 882 534 c 0
 943 534 991 582 991 643 c 0
 991 704 943 752 882 752 c 0
EndSplineSet
Validated: 1
EndChar

StartChar: dotless-initial-FEH
Encoding: 1114125 -1 231
Width: 757
Flags: HMW
AnchorPoint: "Anchor-5" 370 1644 basechar 0
AnchorPoint: "Anchor-3" 359 202 basechar 0
LayerCount: 2
Fore
SplineSet
0 578 m 1
 168 578 l 0
 248 578 319 582 375 604 c 0
 425 623 462 645 488 675 c 1
 448 667 409 663 373 663 c 0
 183 663 58 772 58 941 c 0
 58 1119 199 1308 370 1308 c 0
 568 1308 667 998 667 827 c 0
 667 664 588 549 421 484 c 0
 345 455 258 449 165 449 c 0
 0 449 l 0
 -14 449 l 1
 -14 578 l 1
 0 578 l 1
370 1179 m 0
 280 1179 186 1057 186 944 c 0
 186 832 272 793 377 793 c 0
 428 793 485 802 538 817 c 1
 538 820 538 823 538 827 c 0
 538 963 456 1179 370 1179 c 0
EndSplineSet
Validated: 513
EndChar

StartChar: dotless-final-FEH
Encoding: 1114126 -1 232
Width: 1837
Flags: HMW
AnchorPoint: "Anchor-5" 1498 1638 basechar 0
AnchorPoint: "Anchor-3" 871 184 basechar 0
LayerCount: 2
Fore
SplineSet
1847 448 m 0
 1692 448 1587 454 1483 467 c 1
 1379 454 1273 448 1118 448 c 2
 951 448 l 2
 931.205078125 448 911.438476562 447.98046875 891.73828125 447.98046875 c 0
 679.15625 447.98046875 474.291992188 450.259765625 324 504 c 0
 163 561 90 654 90 794 c 0
 90 863 107 911 124 976 c 1
 248 943 l 1
 235 894 218 841 218 793 c 0
 218 701 278 657 365 627 c 0
 496 583 713 577 951 577 c 2
 1118 577 l 2
 1159 577 1188 578 1224 579 c 1
 1189 621 1171 671 1171 734 c 0
 1171 905 1305 1093 1483 1093 c 0
 1661 1093 1795 905 1795 734 c 0
 1795 671 1777 621 1742 579 c 1
 1778 578 1806 577 1847 577 c 3
 1861 577 l 9
 1861 448 l 1
 1847 448 l 0
1483 964 m 0
 1399 964 1300 846 1300 735 c 0
 1300 625 1388 602 1483 596 c 1
 1578 602 1666 625 1666 735 c 0
 1666 846 1567 964 1483 964 c 0
EndSplineSet
Validated: 513
EndChar

StartChar: dotless-medial-FEH
Encoding: 1114127 -1 233
Width: 729
Flags: HMW
AnchorPoint: "Anchor-5" 369 1594 basechar 0
AnchorPoint: "Anchor-3" 376 129 basechar 0
LayerCount: 2
Fore
SplineSet
729 448 m 0
 574 448 469 454 365 467 c 1
 261 454 155 448 0 448 c 0
 -6.072265625 448 -14 465.608398438 -14 491 c 2
 -14 534 l 2
 -14 557.18359375 -6.072265625 577 0 577 c 3
 41 577 69 578 105 579 c 1
 70 621 52 671 52 734 c 0
 52 905 187 1093 365 1093 c 0
 543 1093 677 905 677 734 c 0
 677 671 659 621 624 579 c 1
 660 578 688 577 729 577 c 3
 743 577 l 1
 743 448 l 1
 729 448 l 0
365 964 m 0
 281 964 181 846 181 735 c 0
 181 625 270 602 365 596 c 1
 460 602 548 625 548 735 c 0
 548 846 449 964 365 964 c 0
EndSplineSet
Validated: 513
EndChar

StartChar: dotless-final-QAF
Encoding: 1114128 -1 234
Width: 1454
Flags: HMW
AnchorPoint: "Anchor-5" 1085 1562 basechar 0
AnchorPoint: "Anchor-3" 681 -409 basechar 0
LayerCount: 2
Fore
SplineSet
1464 577 m 1
 1478 577.18359375 l 1
 1478 448 l 1
 1464 448 l 0
 1391 448 l 1
 1337 48 944 -132 686 -132 c 0
 393 -132 90 36 90 341 c 0
 90 558 260 792 623 956 c 1
 676 839 l 1
 340 687 219 495 219 341 c 0
 219 122 440 -3 686 -3 c 0
 913 -3 1242 184 1262 448 c 1
 1095 448 l 2
 905 448 780 557 780 726 c 0
 780 904 921 1093 1092 1093 c 0
 1281 1093 1387 810 1397 577 c 1
 1464 577 l 1
1092 964 m 0
 1002 964 908 842 908 729 c 0
 908 617 994 578 1099 578 c 2
 1263 578 l 1
 1263 589.106445312 1263.1328125 600.268554688 1263.1328125 611.196289062 c 0
 1263.1328125 747.932617188 1178.04492188 964 1092 964 c 0
EndSplineSet
Validated: 513
EndChar

StartChar: dotless-initial-NOON
Encoding: 1114129 -1 235
Width: 1572
Flags: HMW
AnchorPoint: "Anchor-5" 800 1154 basechar 0
AnchorPoint: "Anchor-3" 686 -216 basechar 0
LayerCount: 2
Fore
SplineSet
1403 500 m 1
 1395.52050781 400.186523438 1369.68457031 305.404296875 1324 226 c 0
 1198 7 931 -132 686 -132 c 0
 355.782226562 -132 90 52.3505859375 90 341 c 0
 90 558 260 792 623 956 c 1
 676 839 l 1
 340 687 219 495 219 341 c 0
 219 140.9375 404.9375 -3 686 -3 c 0
 879 -3 1115 122 1212 290 c 0
 1253 362 1275 457 1275 561 c 0
 1275 661 1255 769 1211 872 c 2
 1196 905 l 1
 1315 956 l 1
 1329 923 l 2
 1343.87207031 887.9453125 1356 853 1367 818 c 0
 1384 763 1398.2421875 710.120117188 1417 672 c 0
 1448 609 1475 577 1582 577 c 3
 1596 577 l 1
 1596 448 l 1
 1582 448 l 0
 1509 448 1450 469 1403 500 c 1
EndSplineSet
Validated: 513
EndChar

StartChar: buttom-three-dots
Encoding: 1114130 -1 236
Width: 1882
Flags: HMW
LayerCount: 2
Fore
SplineSet
972 848 m 1
 850 918 l 1
 967 1120 l 1
 734 1120 l 1
 734 1260 l 1
 1088 1260 l 1
 1149 1156 l 1
 972 848 l 1
EndSplineSet
Validated: 513
EndChar

StartChar: uniFBFD
Encoding: 64509 64509 237
Width: 1510
Flags: HMW
AnchorPoint: "Anchor-5" 928 1076 basechar 0
AnchorPoint: "Anchor-3" 683 -410 basechar 0
LayerCount: 2
Fore
SplineSet
1520 448 m 0
 1266 448 l 1
 1299 405 1319 351 1319 291 c 0
 1319 11 964 -132 686 -132 c 0
 398 -132 90 31 90 341 c 0
 90 558 260 792 623 956 c 1
 676 839 l 1
 340 687 219 495 219 341 c 0
 219 131 424 -3 686 -3 c 0
 874 -3 1191 83 1191 291 c 0
 1191 407 1051 448 942 448 c 1
 942 577 l 1
 1520 577 l 3
 1534 577 l 1
 1534 448 l 1
 1520 448 l 0
EndSplineSet
Validated: 1
EndChar

StartChar: zero
Encoding: 48 48 244
Width: 1066
VWidth: 2132
Flags: W
LayerCount: 2
Fore
SplineSet
867.510289062 849.94140625 m 0
 874.356643229 910.693359375 877.779820312 970.495117189 877.779820312 1029.34667969 c 0
 877.779820312 1092.5139974 874.084182291 1154.19140625 866.69290625 1214.37890625 c 0
 859.3530625 1274.14908854 845.101760417 1327.57519531 823.939 1374.65722656 c 0
 802.98978125 1421.26139323 773.35233349 1458.56738281 735.026656719 1486.57519531 c 0
 695.888501264 1514.37402344 644.146567579 1528.2734375 579.800855665 1528.2734375 c 0
 518.962081182 1528.2734375 469.561276205 1514.13574219 431.598440733 1485.86035156 c 0
 394.312110452 1457.31998698 365.319335937 1419.06412761 344.620117188 1371.09277344 c 0
 323.694335937 1322.59602865 309.011393229 1267.61360677 300.571289062 1206.14550781 c 0
 292.089518229 1144.36425781 287.848632812 1081.36425781 287.848632812 1017.14550781 c 0
 287.848632812 942.123372395 292.633463541 874.013997396 302.203125 812.817382812 c 0
 311.711588541 752.015950521 327.566080729 700.261067708 349.766601562 657.552734375 c 0
 371.732747395 615.294921875 401.397353375 582.577473958 438.760419501 559.400390625 c 0
 476.849618855 536.284505208 525.010902844 524.7265625 583.244271467 524.7265625 c 0
 648.628748846 524.7265625 700.867306177 539.788736979 739.95994346 569.913085938 c 0
 778.203142611 600.342773438 807.270705729 639.410481771 827.162632812 687.116210938 c 0
 847.259638021 735.313476563 860.708856771 789.588541667 867.510289062 849.94140625 c 0
364.201171875 1581.21484375 m 0
 419.189483128 1616.51953125 492.203849659 1634.171875 583.244271467 1634.171875 c 0
 645.069499485 1634.171875 698.821705905 1625.296875 744.500890726 1607.546875 c 0
 788.577468783 1589.78645833 825.945835937 1565.61588542 856.605992187 1535.03515625 c 128
 887.17760677 1504.54166667 911.990432291 1468.80110677 931.04446875 1427.81347656 c 0
 949.963739583 1387.11621093 964.428583333 1343.9547526 974.439 1298.32910156 c 0
 984.411005208 1252.88313802 991.19713802 1206.07519531 994.797398437 1157.90527344 c 0
 998.385289059 1109.89876302 1000.17955989 1062.97102864 1000.18021094 1017.12207031 c 0
 1000.18021094 939.042643229 994.513218752 864.197916667 983.179234375 792.587890625 c 0
 971.776239583 720.56640625 950.889520833 656.879557291 920.519078125 601.52734375 c 0
 889.948765625 545.810546875 848.286330729 501.450195313 795.531773437 468.446289062 c 0
 741.549088385 435.367513021 670.786587728 418.828125 583.244271467 418.828125 c 128
 495.714863344 418.828125 424.675431709 435.361328125 370.125976562 468.427734375 c 0
 316.790690104 501.444010417 274.972005208 546.098958334 244.669921875 602.392578125 c 0
 214.585286458 658.28125 193.843424479 723.046875 182.444335938 796.689453125 c 0
 171.108398438 869.929036458 165.443033855 947.48404948 165.448242188 1029.35449219 c 0
 165.448242188 1104.1656901 170.559570313 1177.34440104 180.782226562 1248.890625 c 0
 191.068033854 1320.875 210.688151042 1385.34667969 239.642578125 1442.30566406 c 0
 268.81640625 1499.6969401 310.3359375 1546 364.201171875 1581.21484375 c 0
EndSplineSet
EndChar

StartChar: one
Encoding: 49 49 245
Width: 1040
VWidth: 2135
Flags: W
LayerCount: 2
Fore
SplineSet
597.009765625 452.391601562 m 1
 597.009765625 1323.44628906 l 1
 297.237304688 1323.44628906 l 1
 290.080078125 1323.44628906 l 1
 290.080078125 1330.44042969 l 1
 290.080078125 1399.78222656 l 1
 290.080078125 1406.28320312 l 1
 296.71484375 1406.7578125 l 2
 341.619791667 1409.96875 382.263346354 1414.3811849 418.645507812 1419.99511719 c 0
 454.362304687 1425.5061849 485.593424479 1435.71061198 512.338867188 1450.60839844 c 0
 538.794596355 1465.34472656 561.054361979 1486.8610026 579.118164062 1515.15722656 c 0
 597.327148437 1543.68066406 610.751953125 1582.22070312 619.392578125 1630.77734375 c 2
 620.424804688 1636.70800781 l 1
 626.444335938 1636.70800781 l 1
 713.077148438 1636.70800781 l 1
 720.234375 1636.70800781 l 1
 720.234375 1629.55078125 l 1
 720.234375 452.36328125 l 1
 720.234375 445.291992188 l 1
 713.077148438 445.291992188 l 1
 604.166992188 445.291992188 l 1
 597.009765625 445.291992188 l 1
 597.009765625 452.391601562 l 1
EndSplineSet
EndChar

StartChar: two
Encoding: 50 50 246
Width: 1067
VWidth: 2135
Flags: W
LayerCount: 2
Fore
SplineSet
217.31640625 1232.13085938 m 1
 217.31640625 1239.28808594 l 2
 217.31640625 1298.46777344 226.547526042 1352.39388021 245.009765625 1401.06640625 c 128
 263.517578125 1449.86002604 290.037434896 1491.80403646 324.569335938 1526.8984375 c 128
 359.112955729 1562.00260417 401.124317115 1589.09114583 450.603420095 1608.1640625 c 0
 501.526240652 1627.19335937 557.945977882 1636.70800781 619.862631785 1636.70800781 c 0
 683.49300827 1636.70800781 739.119050279 1627.86425781 786.740757812 1610.17675781 c 0
 833.273960937 1592.46907552 872.284052083 1568.90917969 903.77103125 1539.49707031 c 128
 935.347854167 1510.00032552 959.306513021 1474.67545573 975.647007812 1433.52246094 c 0
 991.927606771 1392.51920573 1000.06790625 1349.3141276 1000.06790625 1303.90722656 c 0
 1000.06790625 1250.80826823 991.068882812 1203.85774739 973.070835937 1163.05566406 c 0
 955.157424479 1122.4469401 931.637242187 1086.24804687 902.510289062 1054.45898438 c 0
 873.520054687 1022.8203125 840.496617187 994.626627603 803.439976562 969.877929688 c 0
 766.530142789 945.346679688 727.859495255 922.179361979 687.42803396 900.375976562 c 128
 647.123893333 878.639648437 607.537378293 857.717773437 568.66848884 837.610351562 c 0
 530.182923111 817.700846354 495.848896295 796.728190104 465.666408391 774.692382812 c 0
 445.690680608 760.149414063 426.714963748 744.93359375 408.739257812 729.044921875 c 0
 391.162434896 713.298177084 375.073567709 696.217773438 360.47265625 677.803710938 c 0
 346.065104167 659.634440105 334.589518229 639.481445313 326.045898438 617.344726562 c 0
 318.388997396 597.508138021 313.721679687 575.456705729 312.043945312 551.190429688 c 1
 982.18509375 551.190429688 l 1
 989.342320312 551.190429688 l 1
 989.342320312 544.033203125 l 1
 989.342320312 452.44921875 l 1
 989.342320312 445.291992188 l 1
 982.18509375 445.291992188 l 1
 188.995117188 445.291992188 l 1
 181.69921875 445.291992188 l 1
 181.83984375 452.491210938 l 2
 182.949869791 509.472981771 189.205403645 561.018229167 200.606445312 607.126953125 c 0
 212.159179687 653.848307292 237.575195313 699.362304687 276.854492188 743.668945312 c 0
 318.980143229 790.716471354 362.508138021 831.075520833 407.438476562 864.74609375 c 0
 453.611057895 898.268880209 499.088764752 928.118489584 543.871597131 954.294921875 c 0
 588.513491658 980.389973958 630.863273722 1004.31640625 670.920943322 1026.07421875 c 0
 710.470011106 1047.55598958 745.130977915 1070.90039063 774.90384375 1096.10742188 c 0
 803.649286458 1121.03125 826.202997395 1149.24544271 842.564976562 1180.75 c 0
 858.816278645 1212.04036459 866.941929687 1250.46191407 866.941929687 1296.01464844 c 0
 866.941929687 1333.02376302 860.406773437 1366.13964844 847.336460937 1395.36230469 c 128
 834.276565104 1424.56347656 816.303908854 1449.27604167 793.418492187 1469.5 c 128
 770.487502604 1489.76302083 743.178892411 1505.03320313 711.49266161 1515.31054688 c 0
 679.488194513 1525.64322917 644.342583541 1530.80957031 606.055828696 1530.80957031 c 0
 565.834752891 1530.80957031 529.575256284 1522.95572917 497.277338876 1507.24804688 c 0
 464.794908627 1491.45052083 437.002918065 1470.43489583 413.901367188 1444.20117188 c 0
 391.385091146 1417.93229167 373.949544271 1387.07161458 361.594726562 1351.61914062 c 128
 349.264648437 1316.23763021 344.44140625 1278.95703125 347.125 1239.77734375 c 2
 347.6484375 1232.13085938 l 1
 339.984375 1232.13085938 l 1
 224.473632812 1232.13085938 l 1
 217.31640625 1232.13085938 l 1
EndSplineSet
EndChar

StartChar: three
Encoding: 51 51 247
Width: 1064
VWidth: 2132
Flags: W
LayerCount: 2
Fore
SplineSet
475.402918993 1112.45214844 m 1
 482.869418225 1112.45214844 l 2
 535.300291716 1112.45214844 582.999020448 1115.40169271 625.965604423 1121.30078125 c 0
 668.325686026 1127.1171875 704.722620019 1138.44498698 735.156406401 1155.28417969 c 0
 764.371494842 1171.9593099 787.051955729 1194.08821615 803.197789062 1221.67089844 c 128
 819.338414062 1249.24446615 827.408726562 1285.11588542 827.408726562 1329.28515625 c 0
 827.408726562 1364.92838542 820.93151302 1395.22558594 807.977085937 1420.17675781 c 128
 795.012242187 1445.14746094 777.4311875 1465.68619792 755.233921875 1481.79296875 c 0
 732.164569671 1498.00455729 705.040813033 1509.7828776 673.86265196 1517.12792969 c 0
 642.323170326 1524.55826823 609.071491069 1528.2734375 574.10761419 1528.2734375 c 0
 534.902295759 1528.2734375 499.678974416 1522.42643229 468.437650163 1510.73242188 c 128
 437.277147614 1499.06770833 410.491615789 1482.35807291 388.081054688 1460.60351562 c 0
 366.189778646 1438.80794271 349.232096354 1413.3671875 337.208007812 1384.28125 c 128
 325.176106771 1355.17513021 319.16015625 1322.89355469 319.16015625 1287.43652344 c 2
 319.16015625 1280.48046875 l 1
 312.002929688 1280.48046875 l 1
 203.91796875 1280.48046875 l 1
 196.760742188 1280.48046875 l 1
 196.760742188 1287.49609375 l 2
 196.760742188 1341.28320312 206.163411459 1389.91015625 224.96875 1433.37695312 c 128
 243.785807292 1476.87109375 273.381510417 1517.30598958 313.755859375 1554.68164062 c 0
 352.165364584 1588.45377604 395.984396816 1610.18489583 445.212956072 1619.875 c 0
 494.484312173 1629.40625 545.195517127 1634.171875 597.346570935 1634.171875 c 0
 647.398977122 1634.171875 694.138372597 1628.23502604 737.564757361 1616.36132812 c 0
 779.706830578 1604.41536458 816.410679687 1586.19303385 847.676304687 1561.69433594 c 128
 879.063674479 1537.10058594 903.933140625 1505.9671224 922.284703125 1468.29394531 c 128
 940.6343125 1430.62858073 949.809117187 1386.5218099 949.809117187 1335.97363281 c 0
 949.809117187 1273.2093099 935.705601562 1219.10611979 907.498570312 1173.6640625 c 0
 882.008986979 1132.59960937 844.03698177 1099.77441406 793.582554687 1075.18847656 c 1
 829.706252604 1062.22753906 859.972854166 1046.21744791 884.382359375 1027.15820312 c 0
 912.5874375 1005.13541667 934.755080729 980.558919271 950.885289062 953.428710938 c 128
 966.971226562 926.372721354 977.980341145 898.046549479 983.912632812 868.450195312 c 0
 989.779820312 839.182617187 992.713414062 810.998046875 992.713414062 783.896484375 c 0
 992.713414062 734.064453125 984.018752604 687.526692708 966.629429687 644.283203125 c 128
 949.214065104 600.974609375 923.794143229 562.802408854 890.369664062 529.766601562 c 128
 856.969273437 496.755533854 815.902867187 470.284830729 767.170445312 450.354492188 c 0
 716.960141538 430.441080729 659.801373309 419.932291667 595.694140624 418.828125 c 0
 523.323398032 418.828125 460.30929588 425.083984375 406.651834168 437.595703125 c 0
 354.510897848 450.242838542 311.228841146 471.379557292 276.805664062 501.005859375 c 128
 242.388346354 530.62890625 215.336263021 569.345052084 195.649414062 617.154296875 c 0
 176.126627604 664.567708333 163.03125 723.557291666 156.36328125 794.123046875 c 2
 155.623046875 801.954101562 l 1
 163.48828125 801.954101562 l 1
 271.57421875 801.954101562 l 1
 278.731445312 801.954101562 l 1
 278.731445312 794.796875 l 2
 278.731445312 705.6796875 305.127278645 638.457682292 357.918945312 593.130859375 c 0
 412.075904781 547.527994792 484.138794407 524.7265625 574.10761419 524.7265625 c 0
 617.923165649 524.7265625 658.759180825 531.763997396 696.615659717 545.838867188 c 0
 734.281740739 559.909179688 765.982619792 578.862630209 791.718296875 602.69921875 c 128
 817.404494792 626.490234375 837.201695312 654.109049479 851.109898437 685.555664062 c 128
 864.980992187 716.916341146 871.383661458 749.439453125 870.31790625 783.125 c 0
 868.177932291 829.654296875 857.274611979 868.147786458 837.607945312 898.60546875 c 128
 817.917841145 929.099609375 791.424026041 953.294921875 758.1265 971.19140625 c 0
 723.398236659 989.248697917 682.392737656 1001.20898437 635.110002991 1007.07226562 c 0
 587.389201104 1012.99088541 536.800926641 1014.33463541 483.345179603 1011.10351562 c 2
 475.402918993 1010.62304688 l 1
 475.402918993 1018.16015625 l 1
 475.402918993 1105.38085938 l 1
 475.402918993 1112.45214844 l 1
EndSplineSet
EndChar

StartChar: four
Encoding: 52 52 248
Width: 1066
VWidth: 2133
Flags: W
LayerCount: 2
Fore
SplineSet
716.928289036 1438.46875 m 1
 287.920898438 836.537109375 l 1
 716.928289036 836.537109375 l 1
 716.928289036 1438.46875 l 1
716.928289036 451.049804688 m 1
 716.928289036 730.638671875 l 1
 167.830078125 730.638671875 l 1
 160.672851562 730.638671875 l 1
 160.672851562 737.739257812 l 1
 160.672851562 830.229492188 l 1
 160.672851562 832.462890625 l 1
 161.961914062 834.293945312 l 1
 728.589214828 1620.87304688 l 1
 730.814753243 1623.93261719 l 1
 734.704102958 1623.93261719 l 1
 833.957554687 1623.93261719 l 1
 841.11478125 1623.93261719 l 1
 841.11478125 1616.77539062 l 1
 841.11478125 836.537109375 l 1
 999.798375 836.537109375 l 1
 1006.95560156 836.537109375 l 1
 1006.95560156 829.379882812 l 1
 1006.95560156 737.795898438 l 1
 1006.95560156 730.638671875 l 1
 999.798375 730.638671875 l 1
 841.11478125 730.638671875 l 1
 841.11478125 451.049804688 l 1
 841.11478125 444.067382812 l 1
 833.957554687 444.067382812 l 1
 724.386437664 444.067382812 l 1
 716.928289036 444.067382812 l 1
 716.928289036 451.049804688 l 1
EndSplineSet
EndChar

StartChar: five
Encoding: 53 53 249
Width: 1063
VWidth: 2131
Flags: W
LayerCount: 2
Fore
SplineSet
278.327148438 765.250976562 m 1
 279.169921875 759.05859375 l 2
 289.901692708 680.1796875 321.283203125 621.26171875 373.314453125 582.3046875 c 0
 427.164443712 543.103515625 493.779855658 523.502929688 573.160688962 523.502929688 c 0
 618.089282774 523.502929688 658.608283813 531.045247396 694.717692079 546.129882812 c 0
 730.40689736 561.204101563 760.283401042 582.080403646 784.347203125 608.758789062 c 128
 808.476109375 635.509440104 826.847528646 666.516276042 839.461460937 701.779296875 c 128
 852.11510677 737.152994792 858.441929687 775.628580729 858.441929687 817.206054688 c 0
 858.441929687 859.818033855 851.582554687 899.061197917 837.863804687 934.935546875 c 128
 824.173049479 970.738932292 805.001174479 1001.61230469 780.348179687 1027.55566406 c 128
 755.772007812 1053.41764323 725.014191598 1073.35449219 688.074731045 1087.36621094 c 0
 650.741494115 1101.43196615 608.988460171 1108.46484375 562.815629213 1108.46484375 c 0
 507.584153182 1108.46484375 458.050045165 1098.78352865 414.213305164 1079.42089844 c 0
 372.013159013 1060.10449219 334.767578125 1029.72591146 302.4765625 988.28515625 c 2
 299.963867188 985.061523438 l 1
 295.911132812 985.586914062 l 1
 206.802734375 997.138671875 l 1
 199.516601562 998.083007812 l 1
 200.651367188 1005.34277344 l 1
 297.185546875 1615.34472656 l 1
 298.131835938 1621.39550781 l 1
 304.256835938 1621.39550781 l 1
 909.327671875 1621.39550781 l 1
 916.484898437 1621.39550781 l 1
 916.484898437 1614.23828125 l 1
 916.484898437 1522.65429688 l 1
 916.484898437 1515.49707031 l 1
 909.327671875 1515.49707031 l 1
 400.966796875 1515.49707031 l 1
 330.741210938 1144.22070312 l 1
 349.391601563 1155.51888021 366.723958333 1165.17122396 382.73828125 1173.17773438 c 0
 403.214139596 1183.25260417 424.278768704 1191.51009114 445.932168575 1197.95019531 c 128
 467.67604605 1204.41894531 490.14884649 1208.77734375 513.350569895 1211.02539062 c 0
 536.30467038 1213.25065104 562.276505135 1214.36328125 591.26607416 1214.36328125 c 0
 648.536357587 1214.36328125 701.524012554 1205.20442708 750.229039062 1186.88671875 c 0
 797.359898437 1168.53580729 838.190953125 1142.24804687 872.722203125 1108.0234375 c 128
 907.27884375 1073.77473958 933.952346354 1031.91276041 952.742710937 982.4375 c 0
 971.475132812 933.11328125 980.84134375 878.037434896 980.84134375 817.209960938 c 0
 980.84134375 753.561523438 970.340692708 697.037434896 949.339390625 647.637695312 c 128
 928.334182292 598.230143229 900.017776042 556.426757813 864.390171875 522.227539062 c 128
 828.764520833 488.030924479 787.671421875 462.037434896 741.110875 444.247070312 c 0
 692.721269092 426.485351563 642.773002145 417.604492188 591.26607416 417.604492188 c 0
 532.076713101 417.604492188 476.487068203 423.302734375 424.497139466 434.69921875 c 0
 373.686546489 446.190104167 329.326822917 465.555013021 291.41796875 492.793945312 c 128
 253.410807291 520.101888021 222.596028645 555.26953125 198.973632812 598.296875 c 128
 175.368164063 641.291666667 161.328125 694.388671875 156.853515625 757.587890625 c 2
 156.311523438 765.250976562 l 1
 163.993164062 765.250976562 l 1
 272.078125 765.250976562 l 1
 278.327148438 765.250976562 l 1
EndSplineSet
EndChar

StartChar: six
Encoding: 54 54 250
Width: 1066
VWidth: 2132
Flags: W
LayerCount: 2
Fore
SplineSet
809.445835937 1019.36621094 m 0
 766.127734718 1067.48014323 696.759565992 1091.53710938 601.34132976 1091.53710938 c 0
 558.812796992 1091.53710938 520.681540171 1083.89257813 486.947559298 1068.60351562 c 128
 453.137423344 1053.27929687 424.700150974 1032.6858724 401.635742188 1006.82324219 c 0
 379.119466146 980.881835938 361.821614583 950.812825521 349.7421875 916.616210938 c 128
 337.632161459 882.333658854 331.577148438 845.493489583 331.577148438 806.095703125 c 0
 331.577148438 773.608072916 336.301757813 740.700846354 345.750976562 707.374023438 c 0
 355.124674479 674.314778646 370.525716146 644.162434896 391.954101562 616.916992188 c 0
 413.607205538 589.744466146 441.624407055 567.568359375 476.005706113 550.388671875 c 0
 510.243534439 533.280598958 552.596638539 524.7265625 603.065018414 524.7265625 c 0
 654.732160852 524.7265625 697.989266556 533.029622396 732.836335527 549.635742188 c 0
 766.724439967 566.244466146 794.057489583 588.359700521 814.835484375 615.981445312 c 0
 835.749546875 643.784179687 850.901239583 674.773111979 860.2905625 708.948242188 c 0
 869.750197917 743.378580729 874.480015625 777.93359375 874.480015625 812.61328125 c 0
 874.480015625 902.083984375 852.801955729 971.001627605 809.445835937 1019.36621094 c 0
853.533726562 1327.77832031 m 1
 852.351109375 1333.48339844 l 2
 839.995640625 1393.11360677 815.773960937 1440.57161459 779.686070312 1475.85742188 c 0
 743.207052658 1510.80143229 692.663170609 1528.2734375 628.054424164 1528.2734375 c 0
 553.438084184 1528.2734375 494.70279833 1511.71191406 451.848566601 1478.58886719 c 0
 409.338845117 1445.12727865 377.035807292 1402.81022136 354.939453125 1351.63769531 c 0
 332.643880208 1299.90983073 317.549479167 1243.34960938 309.65625 1181.95703125 c 0
 302.844401041 1127.93164062 297.333333333 1076.45638021 293.123046875 1027.53125 c 1
 305.708984375 1043.79557292 318.556966146 1059.95019532 331.666992188 1075.99511719 c 0
 350.478190104 1099.01790365 371.955403645 1119.37239584 396.098632812 1137.05859375 c 0
 420.874415754 1154.81901042 450.141536871 1169.18033854 483.899996163 1180.14257812 c 128
 517.711492029 1191.12109375 558.00738902 1196.61035156 604.787687135 1196.61035156 c 0
 731.42046342 1196.61035156 828.44290625 1162.09798177 895.855015625 1093.07324219 c 128
 963.204625 1024.11360677 996.879429687 929.540690104 996.879429687 809.354492188 c 0
 996.879429687 688.077799479 962.929885416 592.687174479 895.030796875 523.182617188 c 128
 827.067255208 453.612955729 729.17076617 418.828125 601.34132976 418.828125 c 0
 537.782435498 418.828125 479.138943714 428.776041667 425.410854408 448.671875 c 0
 373.340727511 468.690755208 328.346679687 501.463216145 290.428710938 546.989257812 c 0
 252.683268229 592.310221354 222.946940104 651.311523437 201.219726562 723.993164062 c 0
 179.572591146 796.408528646 168.749023438 884.875976563 168.749023438 989.395507812 c 0
 168.749023438 1059.93847656 174.968424479 1132.89518229 187.407226562 1208.265625 c 0
 199.902669271 1284.01888021 222.409505208 1353.34830729 254.927734375 1416.25390625 c 0
 287.624348958 1479.50390625 332.34765625 1531.57519531 389.09765625 1572.46777344 c 0
 447.967895983 1613.60384115 523.88617316 1634.171875 616.85248778 1634.171875 c 0
 716.913417801 1634.171875 799.219598958 1608.9124349 863.77103125 1558.39355469 c 0
 928.598505208 1507.65852864 966.62682552 1433.44498698 977.855992187 1335.75292969 c 2
 978.772007812 1327.77832031 l 1
 970.745640625 1327.77832031 l 1
 859.359898437 1327.77832031 l 1
 853.533726562 1327.77832031 l 1
EndSplineSet
EndChar

StartChar: seven
Encoding: 55 55 251
Width: 1068
VWidth: 2133
Flags: W
LayerCount: 2
Fore
SplineSet
201.375976562 1623.93261719 m 1
 208.533203125 1623.93261719 l 1
 981.09525 1623.93261719 l 1
 988.252476562 1623.93261719 l 1
 988.252476562 1616.77539062 l 1
 988.252476562 1516.52148438 l 1
 988.252476562 1513.83886719 l 1
 986.45071875 1511.83105469 l 2
 900.926630208 1416.51269531 828.595901041 1318.67382812 769.45853125 1218.31445312 c 0
 708.128336374 1117.81705729 657.299169251 1020.18294271 616.971029882 925.412109375 c 128
 576.659311322 830.679036458 546.865121152 742.204101563 527.588459373 659.987304688 c 128
 508.310429193 577.763346355 496.948255422 508.041015625 493.501938059 450.8203125 c 2
 493.09962823 444.067382812 l 1
 485.992496682 444.067382812 l 1
 365.297851562 444.067382812 l 1
 357.666992188 444.067382812 l 1
 358.155273438 451.580078125 l 2
 363.691080729 536.778645834 380.975911458 627.121744792 410.009765625 722.609375 c 0
 439.195395634 817.885416667 476.402401919 912.33984375 521.63078448 1005.97265625 c 128
 566.845483033 1099.578125 617.859121988 1190.05696615 674.671701346 1277.40917969 c 0
 727.773728573 1359.67415364 781.69713802 1434.10677083 836.441929687 1500.70703125 c 1
 208.533203125 1500.70703125 l 1
 201.375976562 1500.70703125 l 1
 201.375976562 1507.86425781 l 1
 201.375976562 1616.77539062 l 1
 201.375976562 1623.93261719 l 1
EndSplineSet
EndChar

StartChar: eight
Encoding: 56 56 252
Width: 1066
VWidth: 2132
Flags: W
LayerCount: 2
Fore
SplineSet
765.412632812 1481.28710938 m 0
 726.211255139 1512.61914063 664.384412589 1528.28515625 579.932105163 1528.28515625 c 0
 545.600891655 1528.28515625 513.410188534 1523.93066406 483.359995801 1515.22167969 c 0
 453.515379196 1506.57128906 427.675654033 1493.74967448 405.840820312 1476.75683594 c 0
 384.701497396 1459.88053385 368.17578125 1438.69726562 356.263671875 1413.20703125 c 128
 344.323567708 1387.65429688 338.353515625 1358.09505209 338.353515625 1324.52929688 c 0
 338.353515625 1288.96484375 345.216145833 1258.73339844 358.94140625 1233.83496094 c 128
 372.712890625 1208.85058594 390.972005208 1188.43164063 413.71875 1172.578125 c 0
 437.566228101 1156.5625 464.891158919 1144.47591146 495.693542455 1136.31835938 c 0
 526.661339896 1128.11653646 559.054215567 1124.015625 592.872169469 1124.015625 c 0
 626.06318425 1124.015625 656.969717281 1128.1031901 685.591768564 1136.27832031 c 0
 713.798583295 1144.3343099 737.961853148 1157.44140625 758.081578125 1175.59960938 c 0
 777.6811875 1193.81705729 793.199091145 1216.77669271 804.635289062 1244.47851562 c 128
 816.111200521 1272.27669271 821.84915625 1306.79720052 821.84915625 1348.04003906 c 0
 821.84915625 1405.84798177 803.036981771 1450.26367187 765.412632812 1481.28710938 c 0
699.909261004 1004.17871094 m 0
 664.072304459 1014.02115885 625.805193015 1018.94238281 585.107926671 1018.94238281 c 0
 542.115967843 1018.94238281 502.847864023 1014.02246094 467.303615212 1004.18261719 c 0
 432.166309237 994.412434897 401.901041667 979.515299479 376.5078125 959.491210938 c 0
 351.2734375 939.591471354 331.604492187 914.296223958 317.500976562 883.60546875 c 128
 303.349934895 852.811197917 296.274414062 816.234049479 296.274414062 773.874023438 c 0
 296.274414062 738.008789063 303.079427083 705.081380208 316.689453125 675.091796875 c 128
 330.305338542 645.091796875 349.528645833 619.037760417 374.359375 596.9296875 c 128
 399.253255208 574.766276041 430.249984714 557.199869791 467.349563519 544.23046875 c 0
 504.76101538 531.236328125 546.60188403 524.739257812 592.872169469 524.739257812 c 0
 633.35364895 524.739257812 670.702815329 530.952799479 704.919668607 543.379882812 c 0
 738.858988494 555.792643229 768.141148437 573.344075521 792.766148437 596.034179688 c 128
 817.348830729 618.685872396 836.593622396 645.697591146 850.500523437 677.069335938 c 128
 864.402867187 708.430013021 871.354039062 743.138346354 871.354039062 781.194335938 c 0
 871.354039062 821.326497396 864.165236979 856.090169271 849.787632812 885.485351562 c 128
 835.401565104 914.897460937 815.698440104 939.573567708 790.678257812 959.513671875 c 128
 765.571486979 979.5234375 735.315154709 994.411783855 699.909261004 1004.17871094 c 0
228.208007812 965.068359375 m 0
 262.069986979 1017.734375 310.430989583 1057.30045573 373.291015625 1083.76660156 c 1
 348.839192708 1099.21126302 327.569010417 1113.87304687 309.48046875 1127.75195312 c 0
 288.009114583 1144.2265625 270.328450521 1162.26953125 256.438476562 1181.88085938 c 128
 242.471028646 1201.60221354 232.216145834 1223.83268229 225.673828125 1248.57226562 c 0
 219.193359375 1273.07877604 215.953125 1303.57552083 215.953125 1340.0625 c 0
 215.953125 1381.42122396 225.287434896 1420.27213542 243.956054688 1456.61523438 c 0
 262.521158855 1492.75846354 287.273111979 1524.31184895 318.211914062 1551.27539062 c 128
 349.157877604 1578.24739583 385.818385392 1599.08886719 428.193437425 1613.79980469 c 0
 472.191493996 1628.49511719 519.349092294 1635.28971354 569.666232321 1634.18359375 c 0
 617.40550215 1634.18359375 664.300684563 1628.53548177 710.351779559 1617.23925781 c 0
 755.740655686 1605.87923177 795.566604167 1588.26334635 829.829625 1564.39160156 c 0
 864.273635417 1540.39420573 891.936395833 1509.84830729 912.81790625 1472.75390625 c 128
 933.772333333 1435.53255208 944.249546875 1391.30208333 944.249546875 1340.0625 c 0
 944.249546875 1277.37109375 931.280471354 1223.73339843 905.342320312 1179.14941406 c 0
 881.598830729 1138.33626302 844.108270833 1104.21516927 792.870640625 1076.78613281 c 1
 852.769078125 1052.51139323 900.433140625 1016.34733073 935.862828125 968.293945312 c 0
 974.457229166 915.949544271 993.754429687 854.487630208 993.754429687 783.908203125 c 0
 993.754429687 725.297526042 983.65416927 673.115559896 963.453648437 627.362304688 c 128
 943.196486979 581.480143229 914.340367187 543.230143229 876.885289062 512.612304688 c 0
 839.574091145 482.112955729 794.376784607 458.842773437 741.293369447 442.801757812 c 0
 686.228237704 426.827799479 625.539713909 418.840820312 559.22779806 418.840820312 c 0
 513.557903832 418.840820312 467.046645051 426.301106771 419.694021716 441.221679688 c 0
 374.299699947 456.176757813 333.522135416 478.337890625 297.361328125 507.705078125 c 128
 261.117838542 537.139973958 231.494140625 574.0390625 208.490234375 618.40234375 c 0
 185.412760417 662.906901042 173.874023438 714.541992188 173.874023438 773.307617188 c 0
 173.874023438 844.810221355 191.985351563 908.73046875 228.208007812 965.068359375 c 0
EndSplineSet
EndChar

StartChar: nine
Encoding: 57 57 253
Width: 1066
VWidth: 2132
Flags: W
LayerCount: 2
Fore
SplineSet
764.596226562 1452.92675781 m 0
 717.271262925 1505.78613281 651.120733091 1533.28678385 566.144637058 1535.42871094 c 1
 473.145437943 1533.28222657 404.06597559 1506.06347657 358.90625 1453.77246094 c 0
 313.850911459 1401.20670573 291.323242188 1329.05175781 291.323242188 1237.30761719 c 0
 291.323242188 1147.89029948 314.602539063 1078.43033854 361.161132812 1028.92773438 c 0
 408.078645855 979.550781252 476.409199839 954.862304688 566.152794763 954.862304688 c 0
 608.663276469 954.862304688 646.635354838 962.599934896 680.069029869 978.075195312 c 128
 713.593799276 993.593424477 741.901367444 1014.45052083 764.991734375 1040.64648438 c 0
 787.485875 1066.88932292 804.498244791 1097.30664063 816.02884375 1131.8984375 c 0
 827.610223958 1166.64192709 833.400914062 1203.97851563 833.400914062 1243.90820312 c 0
 833.400914062 1330.14127604 810.466018229 1399.8141276 764.596226562 1452.92675781 c 0
312.330078125 718.62109375 m 1
 313.465820312 712.84375 l 2
 325.800455729 650.096354167 350.050455729 603.033203125 386.215820312 571.654296875 c 0
 423.02843226 540.369140625 475.253524933 524.7265625 542.891098331 524.7265625 c 0
 615.194199306 524.7265625 672.768223603 541.280924479 715.613171222 574.389648438 c 0
 758.141588324 607.856445313 790.728388021 649.913085937 813.373570312 700.559570312 c 0
 836.211460937 751.749674479 851.847854167 807.230794271 860.28275 867.002929688 c 0
 867.801630208 921.328450521 872.861526041 972.829752605 875.4624375 1021.50683594 c 1
 840.526239583 967.946289063 798.26998895 926.709635417 748.693685599 897.796875 c 0
 691.528566276 865.791666667 625.225117585 849.7890625 549.783339528 849.7890625 c 0
 490.247047221 849.7890625 436.857353316 858.812825521 389.614257812 876.860351562 c 0
 343.534830729 894.958658854 304.044270834 921.145833333 271.142578125 955.421875 c 128
 238.28125 989.65559896 213.017252605 1030.67154948 195.350585938 1078.46972656 c 0
 177.732747396 1126.13378906 168.923828125 1179.00195312 168.923828125 1237.07421875 c 0
 168.923828125 1293.42708333 176.880533854 1345.6735026 192.793945312 1393.81347656 c 0
 208.780273437 1442.17220052 232.918945313 1484.29882813 265.209960938 1520.19335938 c 128
 297.565429687 1556.15950521 338.175455729 1584.16113281 387.040039062 1604.19824219 c 0
 437.109408118 1624.18066406 496.813660018 1634.171875 566.152794763 1634.171875 c 0
 650.794424882 1634.171875 721.335139127 1618.21484375 777.7749375 1586.30078125 c 0
 832.453973958 1554.4296875 876.194533854 1511.33854166 908.996617187 1457.02734375 c 0
 941.615757812 1403.01953125 964.741083333 1339.30924479 978.37259375 1265.89648438 c 0
 991.92728125 1192.89648438 998.704625 1115.13639323 998.704625 1032.61621094 c 0
 998.704625 931.93326823 987.889195312 843.630533854 966.258335937 767.708007812 c 0
 944.56432552 691.565429687 914.061070312 627.590494792 874.748570312 575.783203125 c 0
 835.284377604 523.776692708 788.2266603 484.612304687 733.575418401 458.290039062 c 0
 677.109822301 431.982096354 615.271357601 418.828125 548.0600243 418.828125 c 0
 499.132147822 418.828125 453.293129305 424.554036458 410.54296875 436.005859375 c 0
 369.213541667 447.533203125 332.915039063 465.409505208 301.647460938 489.634765625 c 128
 270.302408854 513.919921875 244.900065104 544.534179687 225.440429688 581.477539062 c 128
 206.020507813 618.349283854 194.067057292 661.461914063 189.580078125 710.815429688 c 2
 188.87109375 718.62109375 l 1
 196.708007812 718.62109375 l 1
 306.443359375 718.62109375 l 1
 312.330078125 718.62109375 l 1
EndSplineSet
EndChar

StartChar: dollar
Encoding: 36 36 258
Width: 1066
VWidth: 2128
Flags: W
LayerCount: 2
Fore
SplineSet
535.959360169 1114.48730469 m 1
 535.959360169 1531.75488281 l 1
 506.658251364 1530.93522135 479.327609546 1526.02539062 453.967434714 1517.02539062 c 0
 426.162333225 1507.15755208 402.082693529 1493.30436198 381.728515625 1475.46582031 c 0
 361.587890625 1457.70996094 345.815755208 1436.3671875 334.412109375 1411.4375 c 128
 323.018229166 1386.52994792 317.321289062 1358.64453125 317.321289062 1327.78125 c 0
 317.321289062 1291.47005208 322.996744791 1261.56738281 334.34765625 1238.07324219 c 128
 345.695963542 1214.5843099 361.389973959 1194.92936198 381.4296875 1179.10839844 c 0
 401.852760468 1163.07519531 426.032009539 1150.10123698 453.967434714 1140.18652344 c 0
 479.664957839 1131.06738281 506.995599657 1122.50097656 535.959360169 1114.48730469 c 1
633.464895063 974.029296875 m 1
 633.464895063 505.823242188 l 1
 666.169352634 506.708007813 697.177226591 512.69921875 726.488516933 523.796875 c 0
 757.899516061 535.853515625 785.109247396 552.316080729 808.117710937 573.184570312 c 128
 831.038283854 593.972330729 849.032424479 618.768229167 862.100132812 647.572265625 c 128
 875.150263021 676.335286458 881.675328125 708.352864583 881.675328125 743.625 c 0
 881.675328125 784.322916667 875.180536458 817.926432292 862.190953125 844.435546875 c 128
 849.219598958 870.908854166 831.641473958 892.46484375 809.456578125 909.103515625 c 0
 786.983921875 925.95703125 760.184508208 939.349609375 729.058337123 949.28125 c 0
 699.694781552 958.502604167 667.830300865 966.751953125 633.464895063 974.029296875 c 1
633.464895063 278.279296875 m 1
 626.002845868 278.279296875 l 1
 545.142089285 278.279296875 l 1
 537.68004009 278.279296875 l 1
 537.68004009 285.366210938 l 1
 537.68004009 406.163085938 l 1
 439.770950863 412.698242187 359.878580729 439.178059895 298.002929688 485.602539062 c 0
 234.161132813 533.502929687 191.877929687 605.151692708 171.153320312 700.548828125 c 0
 171.071289062 701.000976562 l 2
 168.847981771 715.860351562 167.180013021 730.039388021 166.067382812 743.538085938 c 0
 164.966471354 756.886393229 163.866210937 770.370768229 162.766601562 783.991210938 c 2
 162.1484375 791.643554688 l 1
 169.900390625 791.643554688 l 1
 279.635742188 791.643554688 l 1
 286.79296875 791.643554688 l 1
 286.79296875 784.556640625 l 2
 286.79296875 747.279947916 292.831380208 712.563802083 304.908203125 680.408203125 c 128
 316.961588542 648.31640625 334.2265625 620.08203125 356.703125 595.705078125 c 128
 379.202473959 571.304036458 406.2738517 551.538736979 437.917258223 536.409179688 c 0
 467.625628547 522.423502604 500.306329196 513.990559895 535.959360169 511.110351562 c 1
 535.959360169 994.661132812 l 1
 489.408010928 1005.42740886 445.619148685 1018.14973959 404.592773438 1032.828125 c 0
 362.914388021 1048.33984375 326.518229166 1068.30826823 295.404296875 1092.73339844 c 0
 264.016276042 1117.3733724 239.421223958 1148.02115886 221.619140625 1184.67675781 c 128
 203.8203125 1221.32324219 194.920898438 1266.32942709 194.920898438 1319.6953125 c 0
 194.920898438 1367.58723958 204.083984375 1410.93587239 222.41015625 1449.74121094 c 128
 240.7109375 1488.49446615 265.77734375 1521.67871094 297.609375 1549.29394531 c 128
 329.388020833 1576.86230469 365.931640625 1597.7421875 407.240234375 1611.93359375 c 0
 447.961668212 1625.35807292 491.44160345 1631.92513021 537.68004009 1631.63476562 c 1
 537.68004009 1726.56347656 l 1
 537.68004009 1733.72070312 l 1
 545.142089285 1733.72070312 l 1
 626.002845868 1733.72070312 l 1
 633.464895063 1733.72070312 l 1
 633.464895063 1726.56347656 l 1
 633.464895063 1631.47460938 l 1
 679.696544011 1630.81315105 722.655034719 1624.31347657 762.340367187 1611.97558594 c 0
 802.862502604 1598.87923177 838.06432552 1579.49023438 867.945835937 1553.80859375 c 128
 897.882684896 1528.08007812 921.592320312 1496.22981771 939.074742187 1458.2578125 c 128
 956.507684896 1420.390625 966.345575521 1377.58072917 968.588414062 1329.828125 c 2
 968.937046875 1322.41210938 l 1
 961.439 1322.41210938 l 1
 851.703648437 1322.41210938 l 1
 844.546421875 1322.41210938 l 1
 844.546421875 1329.49902344 l 2
 844.546421875 1358.41634115 838.853713542 1385.06705729 827.468296875 1409.45117188 c 128
 816.051630208 1433.90169271 800.804234375 1454.65397135 781.726109375 1471.70800781 c 0
 762.430262324 1488.82324219 739.448596644 1502.26139323 712.781112334 1512.02246094 c 0
 688.547694373 1520.89355469 662.108955282 1525.74316406 633.464895063 1526.57128906 c 1
 633.464895063 1094.00976562 l 1
 689.068989118 1080.65625 739.342583992 1066.61686198 784.285679687 1051.89160156 c 0
 830.503778646 1036.35904948 869.63040625 1015.37597656 901.6655625 988.942382812 c 0
 933.896682291 962.345377604 959.038609375 928.237630208 977.09134375 886.619140625 c 0
 995.080276043 845.1484375 1004.07474219 792.064127605 1004.07474219 727.366210938 c 0
 1004.07474219 677.125976563 993.050653647 632.272786458 971.002476562 592.806640625 c 0
 949.087763021 553.578776042 920.565953125 520.190104167 885.437046875 492.640625 c 128
 850.397984375 465.160807292 810.476109375 444.072916667 765.671421875 429.376953125 c 0
 722.06235436 415.591145834 677.99351209 407.785807292 633.464895063 405.9609375 c 1
 633.464895063 285.366210938 l 1
 633.464895063 278.279296875 l 1
EndSplineSet
EndChar

StartChar: ampersand
Encoding: 38 38 259
Width: 1249
VWidth: 2134
Flags: W
LayerCount: 2
Fore
SplineSet
754.769708612 1360.01841078 m 0
 764.199496623 1381.49709678 768.127094004 1404.3067685 766.552500756 1428.44742593 c 256
 764.980171139 1452.56227134 758.043678209 1474.56491865 745.743021967 1494.45536788 c 256
 733.428502447 1514.36823435 716.494501399 1530.76426827 694.941018823 1543.64346965 c 256
 673.519460444 1556.44445864 647.79042292 1562.84495313 617.75390625 1562.84495313 c 0
 597.139819439 1562.84495313 577.73828539 1559.54980713 559.549304104 1552.95951512 c 256
 541.317530857 1546.35394521 524.810100715 1537.11130388 510.02701368 1525.23159115 c 0
 495.426023792 1513.49870795 483.819961802 1499.15177245 475.208827711 1482.19078464 c 256
 466.650187362 1465.33259621 462.370867187 1446.19836331 462.370867187 1424.78808594 c 0
 462.370867187 1407.60351247 466.720067084 1388.73101508 475.418466878 1368.17059376 c 0
 484.334572477 1347.09709262 495.144664447 1326.69428635 507.848742789 1306.96217494 c 0
 520.646397374 1287.08436331 534.397409071 1267.88722282 549.10177788 1249.37075349 c 0
 562.032556212 1233.08767711 573.642754559 1218.50732322 583.93237292 1205.62969183 c 1
 615.748091245 1225.1117579 647.788297322 1246.21004871 680.052991149 1268.92456425 c 0
 713.351030135 1292.36548576 738.256602623 1322.73010127 754.769708612 1360.01841078 c 0
541.592969433 1069.39338621 m 1
 510.251785218 1054.06909039 481.116806528 1036.14807313 454.188033362 1015.63033442 c 0
 425.806770527 994.006545587 401.356189451 969.96498519 380.836290132 943.505653231 c 256
 360.343040987 917.07986219 344.032500016 888.774481639 331.904667221 858.589511578 c 0
 319.87236824 828.642948628 313.85621875 797.629387477 313.85621875 765.548828125 c 0
 313.85621875 725.84757712 320.667477511 690.504056875 334.289995034 659.518267389 c 256
 347.920950473 628.515356765 366.477990683 602.073007717 389.961115662 580.191220245 c 256
 413.466768018 558.28844156 441.412236925 541.314903371 473.797522382 529.270605679 c 256
 506.270844783 517.193566476 541.88032951 511.155046875 580.625976562 511.155046875 c 0
 644.773242056 511.155046875 701.311311158 525.672572553 750.240183867 554.70762391 c 0
 797.960932754 583.025758336 841.435215444 620.036279337 880.663031937 665.739186913 c 1
 541.592969433 1069.39338621 l 1
945.826071101 771.382361373 m 1
 964.01849188 804.5303752 975.929568092 838.850552454 981.559299735 874.342893137 c 0
 987.825907203 913.850383241 990.959210937 954.318116779 990.959210937 995.74609375 c 2
 990.959210937 1002.90309375 l 1
 998.116210938 1002.90309375 l 1
 1097.95117188 1002.90309375 l 1
 1105.40021747 1002.90309375 l 1
 1105.10245151 995.460001936 l 2
 1102.88540835 940.041794053 1095.820152 884.765452808 1083.90668245 829.630978202 c 0
 1072.32380302 776.026445226 1051.64001896 725.707921742 1021.85533025 678.675407751 c 1
 1216.44572636 449.221842657 l 1
 1226.44102052 437.435773438 l 1
 1210.98730469 437.435773438 l 1
 1074.0234375 437.435773438 l 1
 1070.64146704 437.435773438 l 1
 1068.49415394 440.048582391 l 1
 955.959138516 576.979007343 l 1
 903.923254697 516.275812698 847.982355866 472.714924649 788.136442023 446.296343196 c 0
 726.159858734 418.936822732 654.23937806 405.2570625 572.375 405.2570625 c 0
 518.69158926 405.2570625 468.337425486 414.214457707 421.312508678 432.129248122 c 256
 374.261141099 450.053452347 333.211505247 474.997345644 298.16360112 506.960928012 c 256
 263.046514683 538.987604437 235.383876584 577.73515613 215.175686823 623.203583093 c 256
 194.962359149 668.682905796 184.855695312 718.881646327 184.855695312 773.799804688 c 0
 184.855695312 819.838079707 192.870353929 862.541724688 208.899671162 901.91073963 c 0
 224.864923581 941.123372767 246.434293104 976.69815798 273.607779731 1008.63509527 c 256
 300.689490736 1040.46273123 331.950735722 1068.6553093 367.391514688 1093.21282949 c 0
 399.901078799 1115.73926091 434.442197583 1135.79558554 471.014871038 1153.38180339 c 1
 440.520187567 1190.32551516 412.588410553 1229.63619557 387.219539994 1271.31384462 c 0
 359.570726873 1316.73603609 345.746320313 1367.34398632 345.746320313 1423.13769531 c 0
 345.746320313 1462.74862018 353.278709821 1497.90279806 368.343488837 1528.60022896 c 256
 383.37478621 1559.23080252 403.665709853 1585.04990558 429.216259766 1606.05753815 c 256
 454.699455773 1627.01046268 484.532260848 1642.71309273 518.714674989 1653.1654283 c 0
 552.674727985 1663.55043443 588.438130593 1668.7429375 626.004882812 1668.7429375 c 0
 664.308816523 1668.7429375 699.694104147 1662.39075398 732.160745686 1649.68638693 c 256
 764.674783788 1636.96347335 792.41272718 1619.54621222 815.374575862 1597.43460355 c 256
 838.333149166 1575.32612412 856.327688099 1549.39999628 869.358192661 1519.65622002 c 256
 882.410913179 1489.86326621 888.937273438 1458.79035954 888.937273438 1426.4375 c 0
 888.937273438 1384.72119329 882.13105088 1348.54878744 868.518605763 1317.92028243 c 0
 854.987641077 1287.47728007 837.08126308 1260.40948013 814.799471772 1236.7168826 c 0
 792.683526173 1213.20133621 766.674252252 1191.66225452 736.771650008 1172.09963752 c 0
 709.765983044 1154.43261885 681.680952067 1136.5985693 652.516557076 1118.59748885 c 1
 945.826071101 771.382361373 l 1
EndSplineSet
EndChar

StartChar: quoteright
Encoding: 8217 8217 260
Width: 416
VWidth: 2226
Flags: W
LayerCount: 2
Fore
SplineSet
307.12575 1554.01171875 m 2
 307.12575 1502.88131598 295.07862333 1461.6835376 270.984369991 1430.41838361 c 256
 246.956059948 1399.23879888 216.339911998 1377.92560299 179.135926139 1366.47879595 c 2
 169.87425 1363.62919214 l 1
 169.87425 1373.31933594 l 1
 169.87425 1436.02539062 l 1
 169.87425 1439.94218421 l 1
 173.173258892 1442.05353741 l 2
 186.226273009 1450.407417 198.55022038 1462.09439367 210.145101005 1477.1144674 c 0
 221.251643043 1491.50271864 226.804914062 1514.93494044 226.804914062 1547.41113281 c 2
 226.804914062 1597.18479688 l 1
 177.03125 1597.18479688 l 1
 169.87425 1597.18479688 l 1
 169.87425 1604.34179688 l 1
 169.87425 1753.68066406 l 1
 169.87425 1760.83766406 l 1
 177.03125 1760.83766406 l 1
 299.96875 1760.83766406 l 1
 307.12575 1760.83766406 l 1
 307.12575 1753.68066406 l 1
 307.12575 1554.01171875 l 2
EndSplineSet
EndChar

StartChar: plus
Encoding: 43 43 261
Width: 1232
VWidth: 2098
Flags: W
LayerCount: 2
Fore
SplineSet
624.844726562 1260.59840625 m 1
 726.330078125 1260.59840625 l 1
 733.487078125 1260.59840625 l 1
 733.487078125 1253.44140625 l 1
 733.487078125 888.487078125 l 1
 1098.44140625 888.487078125 l 1
 1105.59840625 888.487078125 l 1
 1105.59840625 881.330078125 l 1
 1105.59840625 780.669921875 l 1
 1105.59840625 773.512921875 l 1
 1098.44140625 773.512921875 l 1
 733.487078125 773.512921875 l 1
 733.487078125 408.55859375 l 1
 733.487078125 401.40159375 l 1
 726.330078125 401.40159375 l 1
 624.844726562 401.40159375 l 1
 617.687726562 401.40159375 l 1
 617.687726562 408.55859375 l 1
 617.687726562 773.512921875 l 1
 253.55859375 773.512921875 l 1
 246.40159375 773.512921875 l 1
 246.40159375 780.669921875 l 1
 246.40159375 881.330078125 l 1
 246.40159375 888.487078125 l 1
 253.55859375 888.487078125 l 1
 617.687726562 888.487078125 l 1
 617.687726562 1253.44140625 l 1
 617.687726562 1260.59840625 l 1
 624.844726562 1260.59840625 l 1
EndSplineSet
EndChar

StartChar: comma
Encoding: 44 44 262
Width: 519
VWidth: 1999
Flags: W
LayerCount: 2
Fore
SplineSet
352.12575 259.836914062 m 2
 352.12575 208.706511289 340.07862333 167.508732908 315.984369991 136.24357892 c 256
 291.978450435 105.093048502 261.394142786 83.5148284532 224.231447045 71.5089187725 c 2
 214.87425 68.4859501651 l 1
 214.87425 78.3193359375 l 1
 214.87425 141.025390625 l 1
 214.87425 144.94218421 l 1
 218.173258892 147.053537406 l 2
 231.231356863 155.41067065 243.696269741 167.239663428 255.567997526 182.540515739 c 0
 266.942738759 197.201426296 272.630109375 220.491631987 272.630109375 252.411132812 c 2
 272.630109375 303.009992188 l 1
 222.03125 303.009992188 l 1
 214.87425 303.009992188 l 1
 214.87425 310.166992188 l 1
 214.87425 458.680664062 l 1
 214.87425 465.837664062 l 1
 222.03125 465.837664062 l 1
 344.96875 465.837664062 l 1
 352.12575 465.837664062 l 1
 352.12575 458.680664062 l 1
 352.12575 259.836914062 l 2
EndSplineSet
EndChar

StartChar: semicolon
Encoding: 59 59 263
Width: 519
VWidth: 2072
Flags: W
LayerCount: 2
Fore
SplineSet
214.87425 1064.92480469 m 1
 214.87425 1214.26367188 l 1
 214.87425 1221.42067187 l 1
 222.03125 1221.42067187 l 1
 344.96875 1221.42067187 l 1
 352.12575 1221.42067187 l 1
 352.12575 1214.26367188 l 1
 352.12575 1064.92480469 l 1
 352.12575 1057.76780469 l 1
 344.96875 1057.76780469 l 1
 222.03125 1057.76780469 l 1
 214.87425 1057.76780469 l 1
 214.87425 1064.92480469 l 1
352.12575 332.25390625 m 2
 352.12575 281.123503476 340.07862333 239.925725095 315.984369991 208.660571108 c 256
 291.978450435 177.51004069 261.394142786 155.931820641 224.231447045 143.92591096 c 2
 214.87425 140.902942353 l 1
 214.87425 150.736328125 l 1
 214.87425 213.442382812 l 1
 214.87425 217.359176397 l 1
 218.173258892 219.470529593 l 2
 231.231356863 227.827662837 243.696269741 239.656655615 255.567997526 254.957507927 c 0
 266.942738759 269.618418484 272.630109375 292.908624175 272.630109375 324.828125 c 2
 272.630109375 375.426007813 l 1
 222.03125 375.426007813 l 1
 214.87425 375.426007813 l 1
 214.87425 382.583007812 l 1
 214.87425 531.09765625 l 1
 214.87425 538.25465625 l 1
 222.03125 538.25465625 l 1
 344.96875 538.25465625 l 1
 352.12575 538.25465625 l 1
 352.12575 531.09765625 l 1
 352.12575 332.25390625 l 2
EndSplineSet
EndChar

StartChar: question
Encoding: 63 63 264
Width: 936
VWidth: 2141
Flags: W
LayerCount: 2
Fore
SplineSet
438.87815625 451.327148438 m 1
 438.87815625 599.841796875 l 1
 438.87815625 606.998796875 l 1
 446.03515625 606.998796875 l 1
 569.796875 606.998796875 l 1
 576.953875 606.998796875 l 1
 576.953875 599.841796875 l 1
 576.953875 451.327148438 l 1
 576.953875 444.170148438 l 1
 569.796875 444.170148438 l 1
 446.03515625 444.170148438 l 1
 438.87815625 444.170148438 l 1
 438.87815625 451.327148438 l 1
448.779667936 758.955359953 m 2
 447.670692334 821.603294711 451.975360105 878.471842277 461.69367125 929.561002651 c 0
 471.5820047 981.546817377 499.017563231 1031.15550312 544.000346842 1078.38705988 c 0
 568.860615423 1104.35240365 594.822657555 1129.76206323 621.886473239 1154.61603861 c 0
 648.663224143 1179.2072623 673.248247198 1204.06484043 695.641542404 1229.18877302 c 0
 717.860934583 1254.11823829 736.547437316 1279.84214235 751.701050605 1306.36048519 c 0
 766.474068952 1332.21279894 773.860578125 1360.45689503 773.860578125 1391.09277344 c 0
 773.860578125 1420.32625154 768.155918743 1447.67884287 756.746599978 1473.15054742 c 256
 745.345469437 1498.60459911 728.759530533 1520.88932239 706.988783267 1540.00471726 c 256
 685.141861163 1559.18707293 658.298502597 1574.26328408 626.458707569 1585.23335072 c 0
 594.485516081 1596.24915857 557.996350537 1601.7570625 516.991210938 1601.7570625 c 0
 476.209494129 1601.7570625 440.058396195 1594.67842338 408.537917137 1580.52114514 c 256
 377.078065896 1566.39046649 350.69787544 1546.67811495 329.397345769 1521.3840905 c 256
 307.991156741 1495.96396391 291.794175536 1466.50420738 280.806402153 1433.00482092 c 256
 269.78892155 1399.41422735 264.818630427 1362.95676862 265.895528783 1323.63244475 c 2
 266.09688886 1316.27952344 l 1
 258.741210938 1316.27952344 l 1
 155.606445312 1316.27952344 l 1
 148.98879482 1316.27952344 l 1
 148.471356963 1322.87691354 l 2
 143.990167426 1380.01257739 150.314259274 1432.16827881 167.443632509 1479.34401782 c 256
 184.581999156 1526.54452545 210.164843805 1567.15844058 244.192166455 1601.18576323 c 256
 278.183269986 1635.17686676 318.750904685 1661.29269224 365.89507055 1679.53323966 c 256
 412.930313382 1697.73098093 464.395953928 1706.82985156 520.291992188 1706.82985156 c 0
 578.263195929 1706.82985156 630.576836037 1699.14697858 677.232912513 1683.78123261 c 0
 724.085798345 1668.35088803 763.554039912 1646.56391579 795.637637215 1618.42031588 c 256
 827.800378426 1590.2066234 852.620833279 1555.8032273 870.099001776 1515.21012758 c 256
 887.539359967 1474.70262999 896.259539063 1430.3051135 896.259539063 1382.01757812 c 0
 896.259539063 1331.15299177 884.900345382 1287.40380971 862.181958021 1250.77003196 c 0
 839.860805834 1214.77680253 812.667282973 1181.44458398 780.601389438 1150.77337629 c 0
 748.936735873 1120.4853051 716.17351516 1089.78710149 682.311727298 1058.67876546 c 0
 648.936538822 1028.01675628 620.031011755 993.680149812 595.595146097 955.668946056 c 0
 577.028883187 927.554283487 566.685224856 896.393249301 564.564171105 862.185843498 c 0
 562.372280169 826.847114309 561.27659553 792.479176893 561.277117188 759.08203125 c 2
 561.277117188 751.92503125 l 1
 554.120117188 751.92503125 l 1
 455.935546875 751.92503125 l 1
 448.90411678 751.92503125 l 1
 448.779667936 758.955359953 l 2
EndSplineSet
EndChar

StartChar: at
Encoding: 64 64 265
Width: 1494
VWidth: 2137
Flags: W
LayerCount: 2
Fore
SplineSet
712.564453125 785.9304375 m 0
 749.185295528 785.9304375 783.722004322 801.101204459 816.174579505 831.442738378 c 0
 849.471484695 862.574319421 878.591746563 900.101276531 903.53536511 944.023609707 c 0
 928.562203827 988.091838382 948.285607523 1034.88509497 962.7055762 1084.40337948 c 256
 977.0914629 1133.80462621 984.28440625 1177.41691117 984.28440625 1215.24023438 c 0
 984.28440625 1245.91352025 974.141323558 1272.95395693 953.855158173 1296.36154442 c 0
 933.830253578 1319.46767106 907.580357104 1331.02073438 875.10546875 1331.02073438 c 0
 831.614288136 1331.02073438 792.495458623 1317.75880599 757.74898021 1291.23494921 c 0
 722.427393123 1264.27144277 692.348076951 1230.54184823 667.511031694 1190.0461656 c 0
 642.525973663 1149.31020298 622.971592272 1105.85545842 608.847887523 1059.68193192 c 256
 594.755134383 1013.60959311 587.708757813 971.953246008 587.708757813 934.712890625 c 0
 587.708757813 895.535982193 598.541563667 860.755018128 620.207175374 830.369998429 c 0
 641.332280226 800.743624476 672.118039476 785.9304375 712.564453125 785.9304375 c 0
1405.31703511 726.671535142 m 2
 1378.02282077 676.538631969 1344.31831477 631.832863842 1304.20351711 592.55423076 c 256
 1264.15848257 553.343262054 1219.93999264 519.971041168 1171.54804731 492.437568103 c 256
 1123.14271342 464.897135904 1071.54327398 444.034197257 1016.74972901 429.84875216 c 256
 961.981845327 415.67043822 906.791180448 408.58128125 851.177734375 408.58128125 c 0
 759.980553588 408.58128125 674.874558605 425.691837313 595.859749424 459.912949438 c 256
 516.895614655 494.111829551 448.346624623 540.834575754 390.21277933 600.081188049 c 256
 332.088979966 659.31756212 286.485855472 728.550980651 253.403405847 807.781443642 c 256
 220.307145699 887.045900387 203.759015625 971.435484276 203.759015625 1060.95019531 c 0
 203.759015625 1149.95717894 220.873282199 1233.55932603 255.101815348 1311.75663657 c 256
 289.296131337 1389.87427237 335.732403883 1457.99406995 394.410632986 1516.11602931 c 256
 453.081140226 1574.23099823 521.058372012 1619.96825548 598.342328343 1653.32780107 c 256
 675.705110599 1686.72174619 757.783383964 1703.41871875 844.577148438 1703.41871875 c 0
 926.294136241 1703.41871875 1003.03364317 1690.06778194 1074.79566923 1663.36590833 c 256
 1146.60550932 1636.64624364 1209.11348797 1599.32961286 1262.31960517 1551.41601601 c 256
 1315.5740838 1503.45886834 1357.53285934 1446.44761087 1388.19593177 1380.38224361 c 256
 1418.8926335 1314.24518274 1434.24098437 1241.59628383 1434.24098437 1162.43554688 c 0
 1434.24098437 1094.94825217 1421.96487184 1030.9328836 1397.41264677 970.38944117 c 0
 1372.92661834 910.009892019 1341.60167933 857.1166033 1303.43782974 811.709575014 c 256
 1265.2113698 766.228053451 1222.35093039 729.937346265 1174.85651152 702.837453456 c 0
 1127.00281041 675.532557402 1079.89080918 661.880109375 1033.52050781 661.880109375 c 0
 1003.26121542 661.880109375 973.333239179 669.137131744 943.736579096 683.651176481 c 0
 916.870641141 696.825478099 897.4544966 717.168674431 885.488145473 744.680765477 c 1
 860.64215723 721.692854321 831.578971587 703.085773144 798.298588542 688.859521946 c 0
 761.371520942 673.073767732 724.267759657 665.180890625 686.987304688 665.180890625 c 256
 649.615083239 665.180890625 615.869129873 672.284532874 585.749444592 686.491817371 c 256
 555.688833997 700.671236675 530.290985848 719.690781532 509.555900146 743.550451943 c 256
 488.885698716 767.335460625 473.036522854 794.78083647 462.008372559 825.886579478 c 256
 451.007499186 856.912834872 445.5070625 890.438271921 445.5070625 926.462890625 c 0
 445.5070625 983.352046295 455.808710597 1042.28371583 476.412006792 1103.25789923 c 256
 496.999142765 1164.18425746 525.798277715 1219.97105203 562.809411642 1270.61828292 c 0
 599.926998097 1321.41028287 644.449779544 1363.13860755 696.377755982 1395.80325697 c 0
 748.697321569 1428.71356482 807.172965408 1445.16871875 871.8046875 1445.16871875 c 0
 912.645226761 1445.16871875 950.932698531 1435.24253264 986.667102809 1415.39016041 c 0
 1017.42201298 1398.3044202 1041.60453281 1374.78354594 1059.2146623 1344.82753763 c 1
 1079.52926537 1406.42518046 l 1
 1081.15034477 1411.34059375 l 1
 1086.32617188 1411.34059375 l 1
 1199.36230469 1411.34059375 l 1
 1209.30737102 1411.34059375 l 1
 1206.14872771 1401.91046561 l 1
 1035.348664 891.986954012 l 2
 1028.82053474 872.947274528 1023.6587649 855.294320774 1019.86335448 839.028092749 c 0
 1016.18687958 823.270972481 1014.86490783 809.585492427 1015.89743923 797.971652586 c 0
 1016.8442653 787.321259905 1020.28014026 779.033331913 1026.2050641 773.107868608 c 0
 1031.95864094 767.354815578 1042.37303364 764.478289063 1057.44824219 764.478289063 c 0
 1090.44410929 764.478289063 1122.65606856 776.890778317 1154.08412 801.715756826 c 0
 1186.15631424 827.050684877 1214.34839042 859.302639733 1238.66034854 898.471621396 c 0
 1263.08478077 937.821810029 1282.63197536 981.539119453 1297.30193233 1029.62354967 c 256
 1311.9451962 1077.62259073 1319.26682813 1123.54332157 1319.26682813 1167.38574219 c 0
 1319.26682813 1235.07148712 1306.43179181 1296.07063808 1280.76171918 1350.38319507 c 256
 1255.05964719 1404.76481114 1220.71799302 1450.74267285 1177.73675667 1488.31678021 c 256
 1134.69487547 1525.94446337 1084.8639916 1554.78205777 1028.24410505 1574.82956341 c 256
 971.536369698 1594.90753156 911.414311244 1604.94651563 847.877929688 1604.94651563 c 0
 771.344717337 1604.94651563 700.541814981 1590.30540699 635.469222618 1561.0231897 c 256
 570.354454097 1531.72135119 514.475733459 1491.71545962 467.833060703 1441.00551499 c 256
 421.140043364 1390.24019307 384.755448744 1331.17564932 358.679276843 1263.81188374 c 256
 332.598670406 1196.43666223 319.558367187 1124.965839 319.558367187 1049.39941406 c 256
 319.558367187 973.888715944 333.128844118 903.292966908 360.269797981 837.612166952 c 256
 387.419779582 771.908877277 424.874158657 714.6350505 472.632935206 665.790686621 c 256
 520.394376521 616.943612007 576.582215621 578.267038171 641.196452508 549.760965112 c 256
 705.732671897 521.289311287 775.726432519 507.053484375 851.177734375 507.053484375 c 0
 894.617165086 507.053484375 937.239218697 512.075366245 979.04389521 522.119129985 c 256
 1020.84726572 532.162579952 1060.886024 546.956536707 1099.16017006 566.501000251 c 256
 1137.43103317 586.043787378 1172.98930602 609.930824277 1205.83498859 638.162110948 c 256
 1238.67360425 666.386128907 1267.85073677 698.41383906 1293.36638614 734.245241405 c 2
 1295.50661785 737.25075 l 1
 1299.19628906 737.25075 l 1
 1399.03125 737.25075 l 1
 1411.07675257 737.25075 l 1
 1405.31703511 726.671535142 l 2
EndSplineSet
EndChar

StartChar: A
Encoding: 65 65 266
Width: 1274
VWidth: 2137
Flags: W
LayerCount: 2
Fore
SplineSet
701.345673042 1546.3515625 m 1
 467.799167008 935.357421875 l 1
 934.892179075 935.357421875 l 1
 701.345673042 1546.3515625 l 1
144.873046875 440.846679688 m 1
 148.708984375 450.619140625 l 1
 632.022113602 1660.45410156 l 1
 633.847601676 1664.99609375 l 1
 638.84220103 1664.99609375 l 1
 772.295776347 1664.99609375 l 1
 777.335363084 1664.99609375 l 1
 779.137857606 1660.39941406 l 1
 1250.62259375 450.564453125 l 1
 1254.34427344 440.846679688 l 1
 1243.939 440.846679688 l 1
 1125.95267187 440.846679688 l 1
 1120.95657812 440.846679688 l 1
 1119.23392187 445.537109375 l 1
 980.03152055 822.858398438 l 1
 422.617837309 822.858398438 l 1
 280.056640625 445.486328125 l 1
 278.313476562 440.846679688 l 1
 273.357421875 440.846679688 l 1
 155.37109375 440.846679688 l 1
 144.873046875 440.846679688 l 1
EndSplineSet
EndChar

StartChar: B
Encoding: 66 66 267
Width: 1278
VWidth: 2137
Flags: W
LayerCount: 2
Fore
SplineSet
389.719726562 1552.49707031 m 1
 389.719726562 1134.20117188 l 1
 678.714758415 1134.20117188 l 2
 740.120919352 1134.20117188 791.436496141 1139.1328125 832.661488783 1148.99609375 c 0
 873.453469839 1158.75520833 906.377839136 1173.05664062 931.434596675 1191.90039062 c 0
 955.530631183 1210.546875 972.572789062 1233.30761719 982.561070312 1260.18261719 c 0
 992.722528645 1287.52441406 997.803257812 1319.16764323 997.803257812 1355.11230469 c 0
 997.803257812 1391.9235026 991.840692708 1422.83496094 979.9155625 1447.84667969 c 0
 968.155145833 1472.5139974 949.266446845 1492.45638021 923.249465534 1507.67382812 c 0
 896.167048818 1523.17122396 860.610265384 1534.49576823 816.579115231 1541.64746094 c 0
 772.044243979 1548.88053385 717.555156925 1552.49707031 653.11185407 1552.49707031 c 2
 389.719726562 1552.49707031 l 1
389.719726562 1022.52734375 m 1
 389.719726562 553.345703125 l 1
 680.421888074 553.345703125 l 2
 745.563531543 553.345703125 802.171546988 556.079427083 850.245934409 561.546875 c 0
 897.599758226 566.932291667 936.291066548 578.180664063 966.319859375 595.291992188 c 0
 995.557489585 612.150065104 1017.42077083 635.858072916 1031.90970312 666.416015625 c 0
 1046.57571875 697.348307292 1053.90872656 738.955078125 1053.90872656 791.236328125 c 0
 1053.90872656 840.636067708 1045.80683854 880.344401042 1029.6030625 910.361328125 c 0
 1013.51256771 940.16796875 990.291539061 963.12109375 959.939976562 979.220703125 c 0
 928.506331095 995.607421875 890.456413902 1006.9046224 845.790224985 1013.11230469 c 0
 800.623008664 1019.3889974 750.336423638 1022.52734375 694.930469906 1022.52734375 c 2
 389.719726562 1022.52734375 l 1
260.71875 433.689453125 m 1
 260.71875 440.846679688 l 1
 260.71875 1657.83886719 l 1
 260.71875 1664.99609375 l 1
 267.875976562 1664.99609375 l 1
 713.706875885 1664.99609375 l 2
 787.807751302 1664.99609375 851.511634683 1657.4749349 904.81852603 1642.43261719 c 0
 957.385821177 1627.29785156 1000.00670833 1605.92838542 1032.6811875 1578.32421875 c 0
 1065.50345313 1550.59440104 1089.56074479 1517.33105469 1104.8530625 1478.53417969 c 0
 1120.03665625 1440.01204427 1127.62845312 1397.74544271 1127.62845312 1351.734375 c 0
 1127.62845312 1307.99153646 1121.84720312 1270.18717448 1110.28470312 1238.32128906 c 128
 1098.70136979 1206.39485677 1083.5360052 1179.77994791 1064.78860937 1158.4765625 c 128
 1046.03665625 1137.16796875 1024.70560156 1120.39388021 1000.79544531 1108.15429688 c 0
 985.213414061 1100.17773437 969.033726562 1093.65657552 952.256382812 1088.59082031 c 1
 1026.16849218 1073.09472656 1082.07669531 1040.41634115 1119.98099219 990.555664062 c 0
 1161.93346614 935.370768229 1182.90970312 866.545247395 1182.90970312 784.079101562 c 0
 1182.90970312 719.812174479 1172.94095312 665.214518229 1153.00345312 620.286132812 c 0
 1132.98652604 575.178059896 1105.03567969 538.778645834 1069.15091406 511.087890625 c 0
 1033.41458593 483.51171875 990.435419267 463.69140625 940.213414062 451.626953125 c 0
 888.792965579 439.668619792 833.20426847 433.689453125 773.447322734 433.689453125 c 2
 267.875976562 433.689453125 l 1
 260.71875 433.689453125 l 1
EndSplineSet
EndChar

StartChar: C
Encoding: 67 67 268
Width: 1376
VWidth: 2137
Flags: W
LayerCount: 2
Fore
SplineSet
1144.329625 1297.45996094 m 1
 1143.05716406 1303.02148438 l 2
 1119.82018489 1404.61653646 1076.67216426 1476.88932292 1013.61310217 1519.83984375 c 0
 949.189834017 1563.00520833 864.746471812 1584.58789062 760.283015557 1584.58789062 c 0
 686.571971726 1584.58789062 623.06980805 1570.1735026 569.776524527 1541.34472656 c 128
 516.373148835 1512.45540365 472.520231805 1473.71484375 438.217773438 1425.12304688 c 0
 404.337565105 1376.33528646 379.390299479 1319.91178385 363.375976562 1255.85253906 c 0
 347.291992187 1191.51595052 339.25 1123.61295573 339.25 1052.14355469 c 0
 339.25 984.994466147 346.209635417 919.077473958 360.12890625 854.392578125 c 0
 373.973958333 790.052734375 397.028320313 732.668294271 429.291992188 682.239257812 c 0
 461.760454232 632.067382812 505.662515282 591.458333333 560.998175339 560.412109375 c 128
 616.239089408 529.419270833 686.049867957 513.922851562 770.430510987 513.922851562 c 0
 822.498768924 513.922851562 870.088944502 522.147135416 913.201037719 538.595703125 c 128
 956.292446953 555.036458334 993.841883143 577.930338542 1025.84934629 607.27734375 c 0
 1057.50937585 636.731770833 1084.15775 671.336914063 1105.79446875 711.092773438 c 128
 1127.49303646 750.965169271 1144.04446875 794.795572917 1155.44876563 842.583984375 c 2
 1156.76028906 848.080078125 l 1
 1162.41067969 848.080078125 l 1
 1282.04739844 848.080078125 l 1
 1291.08841406 848.080078125 l 1
 1289.01321875 839.280273438 l 2
 1275.13756771 780.447591146 1255.15384375 724.523763021 1229.06204688 671.508789062 c 0
 1202.82441667 618.195638021 1168.34720312 571.576822917 1125.63040625 531.65234375 c 128
 1082.87129167 491.688151042 1030.31611816 459.98828125 967.964885724 436.552734375 c 0
 905.391833228 413.133463542 831.936670286 401.423828125 747.599396898 401.423828125 c 0
 650.572833437 401.423828125 567.565673614 418.880859375 498.577917428 453.794921875 c 0
 430.589123517 488.6953125 375.0859375 535.894856771 332.068359375 595.393554688 c 0
 289.173828125 654.721679688 257.988932292 723.474609375 238.513671875 801.65234375 c 0
 219.120442708 879.502604167 209.423828125 961.899414063 209.423828125 1048.84277344 c 0
 209.423828125 1165.72819011 224.000976563 1265.12532552 253.155273438 1347.03417969 c 0
 282.387044271 1429.16113282 322.675455729 1496.31575521 374.020507812 1548.49804688 c 128
 425.431315104 1600.74739583 486.895482851 1638.46712239 558.413011053 1661.65722656 c 0
 629.629299621 1684.72688802 707.066462939 1696.26171875 790.724501008 1696.26171875 c 0
 855.149103613 1696.26171875 915.189369007 1688.04622396 970.84529719 1671.61523438 c 128
 1026.5588074 1655.12304687 1075.26354427 1630.2265625 1116.95950781 1596.92578125 c 128
 1158.6795599 1563.60481771 1192.97057552 1522.60188802 1219.83255469 1473.91699219 c 128
 1246.62942969 1425.34667969 1265.32051042 1369.30566406 1275.90579688 1305.79394531 c 2
 1277.29446875 1297.45996094 l 1
 1268.84622656 1297.45996094 l 1
 1150.03470313 1297.45996094 l 1
 1144.329625 1297.45996094 l 1
EndSplineSet
EndChar

StartChar: D
Encoding: 68 68 269
Width: 1381
VWidth: 2137
Flags: W
LayerCount: 2
Fore
SplineSet
400.302734375 1552.49707031 m 1
 400.302734375 546.188476562 l 1
 672.927216755 546.188476562 l 2
 725.74223721 546.188476562 775.449645548 549.192708333 822.049441768 555.201171875 c 0
 868.109947351 561.141276042 915.083767723 576.302083333 962.970902884 600.68359375 c 0
 1003.79440124 620.544270833 1037.00251695 647.479492187 1062.59525 681.489257812 c 0
 1088.03991146 715.866210937 1108.20722917 753.359375 1123.09720313 793.96875 c 0
 1138.048375 834.746744792 1148.65156511 877.436197917 1154.90677344 922.037109375 c 0
 1161.18607031 966.811848958 1164.32571875 1009.65950521 1164.32571875 1050.58007812 c 0
 1164.32571875 1094.28450521 1161.45690365 1138.81445313 1155.71927344 1184.16992188 c 0
 1150.0154974 1229.26041667 1139.42630469 1272.16666667 1123.95169531 1312.88867188 c 0
 1108.53307552 1353.46484375 1087.57083594 1390.65657552 1061.06497656 1424.46386719 c 0
 1034.27839017 1458.01855469 999.302096847 1485.56542969 956.136096601 1507.10449219 c 0
 919.610195966 1525.9514974 876.366246139 1538.2109375 826.404247122 1543.8828125 c 0
 775.809284156 1549.62565104 724.650274034 1552.49707031 672.927216755 1552.49707031 c 2
 400.302734375 1552.49707031 l 1
271.301757812 433.689453125 m 1
 271.301757812 440.846679688 l 1
 271.301757812 1657.83886719 l 1
 271.301757812 1664.99609375 l 1
 278.458984375 1664.99609375 l 1
 699.214624415 1664.99609375 l 2
 733.838287727 1664.99609375 768.041759326 1664.02929687 801.825039212 1662.09570312 c 0
 835.779607439 1660.15234375 869.166783036 1656.12630208 901.986566001 1650.01757812 c 0
 934.989011924 1643.87434896 966.987146126 1634.51985677 997.980968607 1621.95410156 c 128
 1029.03701693 1609.36360677 1058.83813156 1592.7327474 1087.3843125 1572.06152344 c 0
 1128.86543229 1542.35253907 1162.78502865 1505.90657552 1189.14310156 1462.72363281 c 0
 1215.28242448 1419.9000651 1236.13919531 1374.84928385 1251.71341406 1327.57128906 c 128
 1267.25898698 1280.37923177 1278.0858099 1232.62760416 1284.19388281 1184.31640625 c 0
 1290.28242448 1136.1640625 1293.32669531 1091.58528645 1293.32669531 1050.58007812 c 128
 1293.32669531 1009.59309896 1290.83450781 968.194335937 1285.85013281 926.383789062 c 128
 1280.85534114 884.482747395 1272.66881771 843.412109375 1261.2905625 803.171875 c 128
 1249.88626563 762.839192708 1234.72578386 724.173502604 1215.80911719 687.174804688 c 0
 1196.81692969 650.028320313 1173.08646094 615.824869792 1144.61771094 584.564453125 c 0
 1116.07148698 552.66015625 1084.82995052 526.891601562 1050.89310156 507.258789062 c 0
 1016.24261197 487.719075521 979.838455404 472.505859375 941.680631859 461.619140625 c 128
 903.643245429 450.766276042 864.042852883 443.392903646 822.87945422 439.499023438 c 0
 781.940871505 435.625976563 740.71926157 433.689453125 699.214624415 433.689453125 c 2
 278.458984375 433.689453125 l 1
 271.301757812 433.689453125 l 1
EndSplineSet
EndChar

StartChar: E
Encoding: 69 69 270
Width: 1176
VWidth: 2137
Flags: W
LayerCount: 2
Fore
SplineSet
253.547851562 440.846679688 m 1
 253.547851562 448.00390625 l 1
 253.547851562 1657.83886719 l 1
 253.547851562 1664.99609375 l 1
 260.705078125 1664.99609375 l 1
 1084.42239844 1664.99609375 l 1
 1091.579625 1664.99609375 l 1
 1091.579625 1657.83886719 l 1
 1091.579625 1559.65429688 l 1
 1091.579625 1552.49707031 l 1
 1084.42239844 1552.49707031 l 1
 382.547851562 1552.49707031 l 1
 382.547851562 1134.20117188 l 1
 1016.76517187 1134.20117188 l 1
 1023.92239844 1134.20117188 l 1
 1023.92239844 1127.04394531 l 1
 1023.92239844 1029.68457031 l 1
 1023.92239844 1022.52734375 l 1
 1016.76517187 1022.52734375 l 1
 382.547851562 1022.52734375 l 1
 382.547851562 553.345703125 l 1
 1100.923375 553.345703125 l 1
 1108.08060156 553.345703125 l 1
 1108.08060156 546.188476562 l 1
 1108.08060156 448.00390625 l 1
 1108.08060156 440.846679688 l 1
 1100.923375 440.846679688 l 1
 260.705078125 440.846679688 l 1
 253.547851562 440.846679688 l 1
EndSplineSet
EndChar

StartChar: F
Encoding: 70 70 271
Width: 1076
VWidth: 2137
Flags: W
LayerCount: 2
Fore
SplineSet
235.086914062 440.846679688 m 1
 235.086914062 448.00390625 l 1
 235.086914062 1657.83886719 l 1
 235.086914062 1664.99609375 l 1
 242.244140625 1664.99609375 l 1
 1040.3843125 1664.99609375 l 1
 1047.54153906 1664.99609375 l 1
 1047.54153906 1657.83886719 l 1
 1047.54153906 1559.65429688 l 1
 1047.54153906 1552.49707031 l 1
 1040.3843125 1552.49707031 l 1
 364.087890625 1552.49707031 l 1
 364.087890625 1134.20117188 l 1
 979.328648437 1134.20117188 l 1
 986.485875 1134.20117188 l 1
 986.485875 1127.04394531 l 1
 986.485875 1029.68457031 l 1
 986.485875 1022.52734375 l 1
 979.328648437 1022.52734375 l 1
 364.087890625 1022.52734375 l 1
 364.087890625 448.00390625 l 1
 364.087890625 440.846679688 l 1
 356.930664062 440.846679688 l 1
 242.244140625 440.846679688 l 1
 235.086914062 440.846679688 l 1
EndSplineSet
EndChar

StartChar: G
Encoding: 71 71 272
Width: 1476
VWidth: 2137
Flags: W
LayerCount: 2
Fore
SplineSet
795.790929635 971.28515625 m 1
 795.790929635 978.442382812 l 1
 795.790929635 1076.62695312 l 1
 795.790929635 1083.78417969 l 1
 803.116948935 1083.78417969 l 1
 1329.548375 1083.78417969 l 1
 1336.70560156 1083.78417969 l 1
 1336.70560156 1076.62695312 l 1
 1336.70560156 447.916015625 l 1
 1336.70560156 440.758789062 l 1
 1329.548375 440.758789062 l 1
 1232.189 440.758789062 l 1
 1225.03177344 440.758789062 l 1
 1225.03177344 447.916015625 l 1
 1225.03177344 630.692382812 l 1
 1206.52265885 602.210611979 1186.03600521 575.958984375 1163.5718125 551.9375 c 0
 1135.31269792 521.720703125 1102.66980584 495.984375 1065.64313625 474.728515625 c 0
 1028.14439317 453.475260416 984.836347026 437.129231771 935.718997817 425.690429688 c 0
 886.74025888 414.284179688 831.560376303 408.581054688 770.179350088 408.581054688 c 0
 690.952917875 408.581054688 617.392846885 422.236979167 549.499137118 449.548828125 c 0
 481.790076956 476.924479167 423.916015625 517.84375 375.876953125 572.306640625 c 128
 327.918619792 626.677734375 290.585611979 694.899088542 263.877929688 776.970703125 c 0
 237.241210937 858.823567708 223.922851562 954.033528647 223.922851562 1062.60058594 c 0
 223.922851562 1151.43326823 235.154622395 1234.40266927 257.618164062 1311.50878906 c 0
 280.168294271 1388.83365885 315.1328125 1456.00846354 362.51171875 1513.03320312 c 128
 409.961588542 1570.14257812 469.94634851 1614.96321614 542.465998655 1647.49511719 c 0
 615.506281129 1680.0061849 701.826826996 1696.26171875 801.427636257 1696.26171875 c 0
 867.977226232 1696.26171875 930.00998728 1688.33398437 987.5259194 1672.47851562 c 0
 1045.2237775 1656.57226562 1096.82208301 1632.2828776 1142.32083594 1599.61035156 c 0
 1187.62161719 1566.89290365 1225.64472917 1526.2171224 1256.39017188 1477.58300781 c 128
 1287.10045833 1429.00488281 1309.41979427 1371.84407552 1323.34817969 1306.10058594 c 2
 1325.17923438 1297.45996094 l 1
 1316.34720313 1297.45996094 l 1
 1198.360875 1297.45996094 l 1
 1192.60403906 1297.45996094 l 1
 1191.36966406 1303.08300781 l 2
 1181.66588802 1347.29003906 1164.83385677 1387.02734375 1140.87357031 1422.29492188 c 128
 1116.87422136 1457.61914063 1088.02527808 1487.13509115 1054.32674049 1510.84277344 c 0
 1020.33990188 1534.59798177 982.4679773 1552.82486979 940.710966761 1565.5234375 c 128
 898.911306908 1578.23307291 855.298718006 1584.58789062 809.873200054 1584.58789062 c 0
 729.367288416 1584.58789062 660.064152096 1570.82877604 601.963791093 1543.31054688 c 128
 543.936067203 1515.82486979 496.358293089 1477.27376302 459.23046875 1427.65722656 c 0
 422.655598958 1377.84602865 395.815755208 1318.05240886 378.7109375 1248.27636719 c 0
 361.518880208 1178.14160156 352.922851562 1100.94661458 352.922851562 1016.69140625 c 0
 352.922851562 949.96875 362.571614583 886.656575521 381.869140625 826.754882812 c 128
 401.118489583 766.839518229 429.431315104 714.131184896 466.807617188 668.629882812 c 0
 504.944210218 623.217773437 551.412025498 587.263020833 606.211063027 560.765625 c 128
 660.926134718 534.30859375 723.464689976 521.080078125 793.8267288 521.080078125 c 0
 826.554079857 521.080078125 860.694189445 524.607421875 896.247057564 531.662109375 c 0
 931.597341441 538.677734375 965.573517728 550.553059896 998.175586424 567.288085938 c 128
 1030.79164943 584.030273438 1061.35154901 605.6484375 1089.85528517 632.142578125 c 0
 1117.61422006 658.5390625 1141.47903906 691.16796875 1161.44974219 730.029296875 c 0
 1180.37422136 767.879557292 1193.35208594 807.222005208 1200.38333594 848.056640625 c 0
 1207.04414323 886.7421875 1211.06888282 927.818359375 1212.45755469 971.28515625 c 1
 803.116948935 971.28515625 l 1
 795.790929635 971.28515625 l 1
EndSplineSet
EndChar

StartChar: H
Encoding: 72 72 273
Width: 1376
VWidth: 2137
Flags: W
LayerCount: 2
Fore
SplineSet
264.666015625 440.846679688 m 1
 264.666015625 448.00390625 l 1
 264.666015625 1657.83886719 l 1
 264.666015625 1664.99609375 l 1
 271.823242188 1664.99609375 l 1
 386.509765625 1664.99609375 l 1
 393.666992188 1664.99609375 l 1
 393.666992188 1657.83886719 l 1
 393.666992188 1149.87792969 l 1
 1113.96146094 1149.87792969 l 1
 1113.96146094 1657.83886719 l 1
 1113.96146094 1664.99609375 l 1
 1121.1186875 1664.99609375 l 1
 1235.80521094 1664.99609375 l 1
 1242.9624375 1664.99609375 l 1
 1242.9624375 1657.83886719 l 1
 1242.9624375 448.00390625 l 1
 1242.9624375 440.846679688 l 1
 1235.80521094 440.846679688 l 1
 1121.1186875 440.846679688 l 1
 1113.96146094 440.846679688 l 1
 1113.96146094 448.00390625 l 1
 1113.96146094 1037.37890625 l 1
 393.666992188 1037.37890625 l 1
 393.666992188 448.00390625 l 1
 393.666992188 440.846679688 l 1
 386.509765625 440.846679688 l 1
 271.823242188 440.846679688 l 1
 264.666015625 440.846679688 l 1
EndSplineSet
EndChar

StartChar: I
Encoding: 73 73 274
Width: 533
VWidth: 2137
Flags: W
LayerCount: 2
Fore
SplineSet
227.157226562 433.689453125 m 1
 227.157226562 440.846679688 l 1
 227.157226562 1657.83886719 l 1
 227.157226562 1664.99609375 l 1
 234.314453125 1664.99609375 l 1
 349 1664.99609375 l 1
 356.157226562 1664.99609375 l 1
 356.157226562 1657.83886719 l 1
 356.157226562 440.846679688 l 1
 356.157226562 433.689453125 l 1
 349 433.689453125 l 1
 234.314453125 433.689453125 l 1
 227.157226562 433.689453125 l 1
EndSplineSet
EndChar

StartChar: J
Encoding: 74 74 275
Width: 951
VWidth: 2134
Flags: W
LayerCount: 2
Fore
SplineSet
244.40625 829.905273438 m 1
 244.40625 822.748046875 l 2
 244.40625 784.431640625 245.910481771 746.808919271 248.918945312 709.879882812 c 0
 251.874023437 673.616861979 260.1796875 641.026367187 273.8359375 612.108398438 c 0
 287.252604167 583.695638021 308.203776042 560.78515625 336.689453125 543.376953125 c 0
 366.184448657 525.925130208 408.928957899 517.19921875 464.92298085 517.19921875 c 0
 545.747462367 517.19921875 601.535354167 538.751627604 632.28665625 581.856445312 c 0
 663.577020833 625.717122396 679.222203125 689.787760417 679.222203125 774.068359375 c 2
 679.222203125 1654.42871094 l 1
 679.222203125 1661.5859375 l 1
 686.379429687 1661.5859375 l 1
 801.065953125 1661.5859375 l 1
 808.223179687 1661.5859375 l 1
 808.223179687 1654.42871094 l 1
 808.223179687 769.942382812 l 2
 808.223179687 649.872721354 779.983270833 557.944986979 723.503453125 494.159179688 c 0
 666.799026042 430.119466146 575.572163867 398.099609375 449.822866601 398.099609375 c 0
 375.625851367 398.099609375 317.221679687 409.951822917 274.610351562 433.65625 c 128
 231.959309895 457.3828125 198.754231771 489.187174479 174.995117188 529.069335938 c 0
 151.422851563 568.637044271 135.576822917 614.0390625 127.45703125 665.275390625 c 0
 119.422526042 715.975911458 115.405273438 768.466796875 115.405273438 822.748046875 c 2
 115.405273438 829.905273438 l 1
 122.5625 829.905273438 l 1
 237.249023438 829.905273438 l 1
 244.40625 829.905273438 l 1
EndSplineSet
EndChar

StartChar: K
Encoding: 75 75 276
Width: 1286
VWidth: 2137
Flags: W
LayerCount: 2
Fore
SplineSet
275.016601562 433.689453125 m 1
 275.016601562 440.846679688 l 1
 275.016601562 1657.83886719 l 1
 275.016601562 1664.99609375 l 1
 282.173828125 1664.99609375 l 1
 396.859375 1664.99609375 l 1
 404.016601562 1664.99609375 l 1
 404.016601562 1657.83886719 l 1
 404.016601562 1044.88671875 l 1
 1029.84622656 1662.87304688 l 1
 1031.9468125 1664.99609375 l 1
 1034.93411719 1664.99609375 l 1
 1165.29642187 1664.99609375 l 1
 1182.44974219 1664.99609375 l 1
 1170.38235937 1652.8046875 l 1
 685.000662851 1172.10644531 l 1
 1255.12161719 445.217773438 l 1
 1264.01126562 433.689453125 l 1
 1249.454625 433.689453125 l 1
 1109.19095312 433.689453125 l 1
 1105.65872656 433.689453125 l 1
 1103.51028906 436.493164062 l 1
 589.544099221 1090.90136719 l 1
 404.016601562 907.352539062 l 1
 404.016601562 440.846679688 l 1
 404.016601562 433.689453125 l 1
 396.859375 433.689453125 l 1
 282.173828125 433.689453125 l 1
 275.016601562 433.689453125 l 1
EndSplineSet
EndChar

StartChar: L
Encoding: 76 76 277
Width: 1077
VWidth: 2137
Flags: W
LayerCount: 2
Fore
SplineSet
247.337890625 433.689453125 m 1
 247.337890625 440.846679688 l 1
 247.337890625 1657.83886719 l 1
 247.337890625 1664.99609375 l 1
 254.495117188 1664.99609375 l 1
 369.180664062 1664.99609375 l 1
 376.337890625 1664.99609375 l 1
 376.337890625 1657.83886719 l 1
 376.337890625 546.188476562 l 1
 1036.13333594 546.188476562 l 1
 1043.2905625 546.188476562 l 1
 1043.2905625 539.03125 l 1
 1043.2905625 440.846679688 l 1
 1043.2905625 433.689453125 l 1
 1036.13333594 433.689453125 l 1
 254.495117188 433.689453125 l 1
 247.337890625 433.689453125 l 1
EndSplineSet
EndChar

StartChar: M
Encoding: 77 77 278
Width: 1583
VWidth: 2137
Flags: W
LayerCount: 2
Fore
SplineSet
281.219726562 433.689453125 m 1
 281.219726562 440.846679688 l 1
 281.219726562 1657.83886719 l 1
 281.219726562 1664.99609375 l 1
 288.376953125 1664.99609375 l 1
 464.119140625 1664.99609375 l 1
 469.095703125 1664.99609375 l 1
 470.828125 1660.33007812 l 1
 871.484941639 600.643554688 l 1
 1265.43607031 1660.29394531 l 1
 1267.15384375 1664.99609375 l 1
 1272.15970313 1664.99609375 l 1
 1446.2515 1664.99609375 l 1
 1453.40872656 1664.99609375 l 1
 1453.40872656 1657.83886719 l 1
 1453.40872656 440.846679688 l 1
 1453.40872656 433.689453125 l 1
 1446.2515 433.689453125 l 1
 1331.56595313 433.689453125 l 1
 1324.40872656 433.689453125 l 1
 1324.40872656 440.846679688 l 1
 1324.40872656 1494.56933594 l 1
 930.64405611 438.37890625 l 1
 928.884395408 433.689453125 l 1
 923.781977897 433.689453125 l 1
 812.532317964 433.689453125 l 1
 807.435885693 433.689453125 l 1
 805.673232371 438.370117188 l 1
 410.219726562 1494.68847656 l 1
 410.219726562 440.846679688 l 1
 410.219726562 433.689453125 l 1
 403.0625 433.689453125 l 1
 288.376953125 433.689453125 l 1
 281.219726562 433.689453125 l 1
EndSplineSet
EndChar

StartChar: N
Encoding: 78 78 279
Width: 1376
VWidth: 2137
Flags: W
LayerCount: 2
Fore
SplineSet
1095.99173437 436.907226562 m 1
 391.841796875 1483.05078125 l 1
 391.841796875 440.846679688 l 1
 391.841796875 433.689453125 l 1
 384.684570312 433.689453125 l 1
 269.999023438 433.689453125 l 1
 262.841796875 433.689453125 l 1
 262.841796875 440.846679688 l 1
 262.841796875 1657.83886719 l 1
 262.841796875 1664.99609375 l 1
 269.999023438 1664.99609375 l 1
 399.536132812 1664.99609375 l 1
 403.384765625 1664.99609375 l 1
 405.506835938 1661.78515625 l 1
 1113.78665625 611.876953125 l 1
 1113.78665625 1657.83886719 l 1
 1113.78665625 1664.99609375 l 1
 1120.94388281 1664.99609375 l 1
 1235.62942969 1664.99609375 l 1
 1242.78665625 1664.99609375 l 1
 1242.78665625 1657.83886719 l 1
 1242.78665625 440.846679688 l 1
 1242.78665625 433.689453125 l 1
 1235.62942969 433.689453125 l 1
 1101.96732031 433.689453125 l 1
 1098.11380469 433.689453125 l 1
 1095.99173437 436.907226562 l 1
EndSplineSet
EndChar

StartChar: O
Encoding: 79 79 280
Width: 1481
VWidth: 2137
Flags: W
LayerCount: 2
Fore
SplineSet
604.552233892 556.87109375 m 128
 661.962241999 528.238932291 730.830635791 513.922851562 811.157415268 513.922851562 c 0
 890.334664108 513.922851562 958.479279352 528.503580729 1015.591261 557.665039062 c 128
 1072.75978784 586.855794271 1119.62081803 625.894856771 1156.17435156 674.782226562 c 0
 1192.21862239 723.834309895 1218.78828385 780.514973958 1235.88333594 844.82421875 c 0
 1253.04935157 909.402994791 1261.63235938 976.859049478 1261.63235938 1047.19238281 c 0
 1261.63235938 1131.18391927 1251.42402605 1206.390625 1231.00735938 1272.8125 c 0
 1210.66426042 1338.99674479 1180.97342602 1395.37174479 1141.93485618 1441.9375 c 0
 1102.19755115 1488.38867187 1054.18468991 1523.76595052 997.89627246 1548.06933594 c 128
 941.507404127 1572.41503906 878.136866789 1584.58789062 807.784660446 1584.58789062 c 0
 729.755611769 1584.58789062 662.052381699 1569.60514323 604.674970236 1539.63964844 c 128
 547.205755979 1509.62467448 500.193982047 1470.03027344 463.639648438 1420.85644531 c 0
 427.590820313 1371.52766927 401.018229167 1314.56933594 383.921875 1249.98144531 c 0
 366.754557292 1185.12532552 358.170898438 1117.52897135 358.170898438 1047.19238281 c 0
 358.170898438 975.759440103 366.75390625 907.753255208 383.919921875 843.173828125 c 0
 401.014322917 778.865234375 427.583984375 722.184570313 463.62890625 673.131835938 c 0
 500.15580896 624.263997396 547.130251507 585.510416667 604.552233892 556.87109375 c 128
264.963867188 797.567382812 m 0
 241.101236979 875.259440104 229.169921875 958.467773437 229.169921875 1047.19238281 c 0
 229.169921875 1137.02571614 241.37890625 1221.2047526 265.796875 1299.72949219 c 0
 290.2734375 1378.44433594 326.455729167 1447.17513021 374.34375 1505.921875 c 128
 422.320963541 1564.77734375 482.281827336 1611.21223958 554.226341385 1645.2265625 c 0
 626.606857284 1679.25 709.721315081 1696.26171875 803.569714776 1696.26171875 c 0
 901.309089412 1696.26171875 987.336955443 1679.54199219 1061.65331287 1646.10253906 c 0
 1135.62371888 1612.64355469 1196.88398698 1566.47688802 1245.43411719 1507.60253906 c 128
 1293.88789323 1448.84472656 1330.35501563 1379.82421875 1354.83548438 1300.54101562 c 0
 1379.25084896 1221.47070313 1391.45853125 1137.02115886 1391.45853125 1047.19238281 c 0
 1391.45853125 958.452148437 1379.24726823 875.229166667 1354.82474219 797.5234375 c 0
 1330.34752865 719.641276041 1294.16719011 651.330078125 1246.28372656 592.58984375 c 128
 1198.30260677 533.727864583 1137.77362294 487.15234375 1064.69677506 452.86328125 c 0
 991.196664215 418.5703125 906.121418481 401.423828125 809.471037857 401.423828125 c 128
 712.819991996 401.423828125 627.744746263 418.5703125 554.245300658 452.86328125 c 0
 481.193095011 487.15234375 420.67578125 533.727864583 372.693359375 592.58984375 c 128
 324.799479166 651.343098958 288.889648437 719.668945312 264.963867188 797.567382812 c 0
EndSplineSet
EndChar

StartChar: P
Encoding: 80 80 281
Width: 1177
VWidth: 2137
Flags: W
LayerCount: 2
Fore
SplineSet
378.209960938 1090.47265625 m 1
 639.724496813 1090.47265625 l 2
 695.352554526 1090.47265625 745.266244285 1093.82845052 789.465566088 1100.54003906 c 0
 833.082320748 1107.16308594 869.712462781 1119.30273438 899.355992187 1136.95898438 c 0
 928.18151302 1154.40755209 950.402867187 1178.38053386 966.020054687 1208.87792969 c 0
 981.735549479 1239.56738282 989.593296875 1279.81152344 989.593296875 1329.61035156 c 0
 989.593296875 1402.62727865 965.471226562 1457.93033854 917.227085937 1495.51953125 c 0
 867.699623669 1533.50455729 786.917765184 1552.49707031 674.881510482 1552.49707031 c 2
 378.209960938 1552.49707031 l 1
 378.209960938 1090.47265625 l 1
249.208984375 440.846679688 m 1
 249.208984375 448.00390625 l 1
 249.208984375 1657.83886719 l 1
 249.208984375 1664.99609375 l 1
 256.366210938 1664.99609375 l 1
 708.324315257 1664.99609375 l 2
 790.920969021 1664.99609375 858.841684248 1655.87923177 912.086460937 1637.64550781 c 0
 964.600783854 1619.30240886 1006.24238541 1594.06673177 1037.01126562 1561.93847656 c 128
 1067.78795833 1529.80240885 1089.25052344 1492.90397135 1101.39896094 1451.24316406 c 0
 1113.41263281 1410.04459635 1119.41946875 1366.79199219 1119.41946875 1321.48535156 c 0
 1119.41946875 1253.16048177 1105.16198177 1196.64518229 1076.64700781 1151.93945312 c 0
 1048.2420599 1107.40494791 1011.66621354 1072.32552083 966.91946875 1046.70117188 c 0
 922.471552083 1021.24869792 871.160211115 1003.41341146 812.985445844 993.1953125 c 0
 754.520333506 983.047526041 695.623539591 977.973632812 636.2950641 977.973632812 c 2
 378.209960938 977.973632812 l 1
 378.209960938 448.00390625 l 1
 378.209960938 440.846679688 l 1
 371.052734375 440.846679688 l 1
 256.366210938 440.846679688 l 1
 249.208984375 440.846679688 l 1
EndSplineSet
EndChar

StartChar: Q
Encoding: 81 81 282
Width: 1479
VWidth: 2131
Flags: W
LayerCount: 2
Fore
SplineSet
942.933945973 746.69140625 m 1
 1105.68895928 625.026367188 l 1
 1154.79445518 673.172200521 1191.15677344 733.067708334 1214.77591406 804.712890625 c 0
 1239.28893489 879.067708334 1251.54544531 957.941080729 1251.54544531 1041.33300781 c 0
 1251.54544531 1131.84928386 1240.12226823 1210.56119792 1217.27591406 1277.46875 c 0
 1194.48294531 1344.22005208 1163.10031725 1400.06477864 1123.12802988 1445.00292969 c 0
 1082.57290259 1489.82389323 1034.57995232 1523.29980469 979.149179056 1545.43066406 c 0
 923.550770397 1567.62923177 862.788925372 1578.72851562 796.863643981 1578.72851562 c 0
 718.842005095 1578.72851562 651.285272057 1563.74772135 594.193444866 1533.78613281 c 128
 537.013143437 1503.77766927 490.139742544 1463.91634115 453.573242188 1414.20214844 c 0
 417.513997396 1364.31542969 390.934570313 1307.0719401 373.834960938 1242.47167969 c 0
 356.666992187 1177.6155599 348.083007812 1110.56933594 348.083007812 1041.33300781 c 0
 348.083007812 969.899414062 356.666341145 901.893229167 373.833007812 837.314453125 c 0
 390.927408854 773.005208334 417.496744792 716.32421875 453.541015625 667.271484375 c 0
 490.082434968 618.400390625 536.925667029 579.644856771 594.070711806 551.004882812 c 128
 651.195134769 522.376627604 719.91666774 508.0625 800.235310719 508.0625 c 0
 843.414065043 508.0625 882.53032183 512.790039063 917.584081079 522.245117188 c 0
 948.645856094 530.622721355 977.592232031 541.727864584 1004.42320889 555.560546875 c 1
 872.483174039 655.306640625 l 1
 866.76760521 659.627929688 l 1
 871.110160298 665.274414062 l 1
 932.652308191 745.307617188 l 1
 937.080676638 751.067382812 l 1
 942.933945973 746.69140625 l 1
1363.84427344 426.153320312 m 1
 1359.09427344 420.427734375 l 1
 1294.73782813 342.870117188 l 1
 1290.33255469 337.561523438 l 1
 1284.86478125 341.768554688 l 1
 1109.16140682 476.553710938 l 1
 1066.70308558 451.498372396 1020.61266403 431.885416667 970.890142184 417.71484375 c 0
 919.077499611 402.947265625 861.630777637 395.563476562 798.549976264 395.563476562 c 0
 701.901516755 395.563476562 616.82854761 412.709960937 543.331068828 447.002929688 c 0
 470.279627109 481.292643229 409.762695313 527.868489583 361.780273438 586.73046875 c 128
 313.887044271 645.483723958 277.977539063 713.809244791 254.051757812 791.70703125 c 0
 230.189127604 869.399739583 218.2578125 952.608398437 218.2578125 1041.33300781 c 0
 218.2578125 1126.74186198 229.909505208 1208.28515625 253.212890625 1285.96289062 c 0
 276.572916667 1363.83007813 311.631510417 1432.68261719 358.388671875 1492.52050781 c 0
 405.251302084 1552.49316406 464.883816852 1600.4593099 537.28621618 1636.41894531 c 0
 610.261497391 1672.4078776 695.663085135 1690.40234375 793.490979413 1690.40234375 c 0
 882.103583305 1690.40234375 962.814373377 1676.20638021 1035.62334963 1647.81445312 c 128
 1108.45617904 1619.36197917 1170.26679948 1577.64811198 1221.05521094 1522.67285156 c 128
 1271.78437761 1467.76269531 1311.20136979 1399.95963542 1339.3061875 1319.26367188 c 0
 1367.34915625 1238.74348959 1381.37064063 1146.0999349 1381.37064063 1041.33300781 c 0
 1381.37064063 941.487304687 1365.96439063 848.954752604 1335.15189063 763.735351562 c 0
 1305.32051042 681.229492187 1260.90091406 610.080403646 1201.89310156 550.288085938 c 1
 1357.93997656 430.678710938 l 1
 1363.84427344 426.153320312 l 1
EndSplineSet
EndChar

StartChar: R
Encoding: 82 82 283
Width: 1278
VWidth: 2137
Flags: W
LayerCount: 2
Fore
SplineSet
388.244140625 1105.32421875 m 1
 747.127792035 1105.32421875 l 2
 790.88662265 1105.32421875 831.384324814 1109.72135417 868.620898528 1118.515625 c 0
 905.506755363 1127.22786459 937.369625124 1141.05924479 964.209507812 1160.00976562 c 0
 990.518752604 1178.84179687 1011.25182552 1202.78385417 1026.40872656 1231.8359375 c 128
 1041.55846615 1260.87304687 1049.13333594 1295.66764323 1049.13333594 1336.21972656 c 0
 1049.13333594 1379.38639323 1041.18704688 1414.91666667 1025.29446875 1442.81054688 c 128
 1009.40449479 1470.70377604 988.241083332 1492.58626302 961.804234375 1508.45800781 c 0
 934.605603005 1524.5296224 903.100204798 1535.86881511 867.288039754 1542.47558594 c 0
 831.069285467 1549.15657552 793.290817151 1552.49707031 753.952634804 1552.49707031 c 2
 388.244140625 1552.49707031 l 1
 388.244140625 1105.32421875 l 1
750.54071829 993.649414062 m 2
 388.244140625 993.649414062 l 1
 388.244140625 448.00390625 l 1
 388.244140625 440.846679688 l 1
 381.086914062 440.846679688 l 1
 266.401367188 440.846679688 l 1
 259.244140625 440.846679688 l 1
 259.244140625 448.00390625 l 1
 259.244140625 1657.83886719 l 1
 259.244140625 1664.99609375 l 1
 266.401367188 1664.99609375 l 1
 750.54071829 1664.99609375 l 2
 890.437749847 1664.99609375 996.484898437 1639.66178385 1068.68216406 1588.99316406 c 0
 1141.64961198 1537.78222656 1178.13333594 1455.17122396 1178.13333594 1341.16015625 c 0
 1178.13333594 1264.04101562 1162.173375 1202.56217448 1130.25345312 1156.72363281 c 0
 1100.85566667 1114.50813802 1054.78437761 1078.24088541 992.039585937 1047.921875 c 1
 1022.19648698 1035.23828125 1046.11966406 1018.58691407 1063.80911719 997.967773438 c 0
 1084.47903906 973.630533854 1100.04804948 945.909505208 1110.51614844 914.8046875 c 0
 1120.87812761 883.999348959 1127.45755469 851.391601563 1130.25442969 816.981445312 c 0
 1133.01419531 783.043945312 1134.94616145 750.330403645 1136.05032812 718.840820312 c 0
 1137.14798437 672.767252604 1139.06497656 634.544921875 1141.80130469 604.173828125 c 128
 1144.52526302 573.934244792 1147.91979427 549.329752604 1151.98489844 530.360351562 c 0
 1155.97252865 511.750325521 1160.56367448 497.510416667 1165.75833594 487.640625 c 0
 1170.78502865 478.090494792 1176.74857031 470.604492188 1183.64896094 465.182617188 c 2
 1186.3843125 463.033203125 l 1
 1186.3843125 459.5546875 l 1
 1186.3843125 448.00390625 l 1
 1186.3843125 440.846679688 l 1
 1179.22708594 440.846679688 l 1
 1052.98978125 440.846679688 l 1
 1049.01126562 440.846679688 l 1
 1046.91165625 444.225585938 l 2
 1033.72415625 465.439778646 1024.5858099 494.564453125 1019.49661719 531.599609375 c 0
 1014.52265886 567.799479166 1010.6561224 605.63671875 1007.89700781 645.111328125 c 128
 1005.1437526 684.48046875 1002.80325781 722.751953125 1000.87552344 759.92578125 c 0
 998.966669271 796.738932291 995.844598958 826.796875 991.5093125 850.099609375 c 0
 985.131708333 881.455729166 974.704299479 906.741210937 960.227085937 925.956054688 c 128
 945.777405505 945.074544271 928.025673617 959.333007812 906.971890272 968.731445312 c 0
 885.462376933 978.332356771 861.424470888 984.872721354 834.858172139 988.352539062 c 0
 807.888649952 991.883789062 779.782832003 993.649414062 750.54071829 993.649414062 c 2
EndSplineSet
EndChar

StartChar: S
Encoding: 83 83 284
Width: 1169
VWidth: 2137
Flags: W
LayerCount: 2
Fore
SplineSet
306.984375 810.951171875 m 1
 307.520507812 804.376953125 l 2
 311.842122396 751.44140625 323.677408855 706.565104166 343.026367188 669.748046875 c 128
 362.335611979 633.005859375 387.108398437 603.12890625 417.344726562 580.1171875 c 0
 448.494659637 557.037760417 484.520093314 540.256184896 525.421027594 529.772460938 c 0
 566.645422595 519.206054687 610.848351735 513.922851562 658.029815013 513.922851562 c 0
 713.008029417 513.922851562 760.606959188 520.533528645 800.826604325 533.754882812 c 0
 840.57145665 546.901367187 872.445835937 564.676432292 896.449742187 587.080078125 c 128
 920.403518229 609.436848958 938.096226562 635.369791667 949.527867187 664.87890625 c 0
 961.031773437 694.574869791 966.783726562 725.753580729 966.783726562 758.415039062 c 0
 966.783726562 804.165039062 956.515497395 841.125976562 935.979039062 869.297851562 c 0
 915.168492187 897.845377604 888.053908854 921.075195313 854.635289062 938.987304688 c 0
 819.69345602 957.137695313 779.457643513 971.778971354 733.927851541 982.911132812 c 0
 687.867044886 994.173502604 640.665028375 1005.16210937 592.321802008 1015.87695312 c 0
 543.71104667 1026.65104167 496.377624241 1039.36165365 450.321534721 1054.00878906 c 0
 404.830485532 1068.81477865 364.597330729 1088.80924479 329.622070312 1113.9921875 c 0
 294.368815104 1139.37434896 265.756184896 1172.06477865 243.784179688 1212.06347656 c 128
 221.743164063 1252.19042969 210.72265625 1302.5686849 210.72265625 1363.19824219 c 0
 210.72265625 1406.00683594 219.588216146 1447.53515625 237.319335938 1487.78320312 c 128
 255.066080729 1528.06445312 281.517903646 1563.81477864 316.674804688 1595.03417969 c 128
 351.767252604 1626.19628906 396.000451474 1650.87109375 449.374401298 1669.05859375 c 0
 503.958397949 1687.19401042 566.678105606 1696.26171875 637.533524271 1696.26171875 c 0
 709.587769232 1696.26171875 772.505259643 1686.62434896 826.285995504 1667.34960938 c 0
 878.934873501 1648.01822917 922.537632812 1621.35481771 957.094273437 1587.359375 c 128
 991.663934892 1553.3515625 1017.52265885 1513.859375 1034.67044531 1468.8828125 c 0
 1051.76028906 1424.05794271 1060.30521094 1376.45345052 1060.30521094 1326.06933594 c 2
 1060.30521094 1318.91210938 l 1
 1053.14798437 1318.91210938 l 1
 943.412632812 1318.91210938 l 1
 936.25540625 1318.91210938 l 1
 936.25540625 1326.06933594 l 2
 936.25540625 1371.18847657 928.376825521 1410.17350261 912.619664062 1443.02441406 c 128
 896.893101562 1475.81022135 875.301767997 1502.58007813 847.845663366 1523.33398438 c 0
 819.267234799 1544.24283854 786.78032252 1559.66276041 750.384926531 1569.59375 c 0
 713.751652137 1579.58984375 676.13451805 1584.58789062 637.533524271 1584.58789062 c 0
 578.157591816 1584.58789062 528.139782341 1576.51660156 487.480095848 1560.37402344 c 0
 446.959511116 1544.27701823 415.233398437 1523.69596354 392.301757812 1498.63085938 c 128
 369.405924479 1473.60546875 353.574544271 1445.81770833 344.807617188 1415.26757812 c 128
 336.034830729 1384.69661458 334.305664063 1354.26627604 339.620117188 1323.9765625 c 0
 345.960611979 1285.93424479 361.061848958 1255.63769531 384.923828125 1233.08691406 c 0
 409.3203125 1210.03027343 439.679801236 1191.10677083 476.002294331 1176.31640625 c 0
 512.887598536 1161.35481771 553.461702713 1149.10742188 597.724606862 1139.57421875 c 0
 642.453833549 1129.94075521 688.177701953 1119.75716146 734.896212074 1109.0234375 c 0
 781.810146381 1098.24544271 827.064643398 1085.52897135 870.659703125 1070.87402344 c 0
 913.732619792 1056.05045573 951.936070312 1036.03320313 985.270054687 1010.82226562 c 0
 1018.88333594 985.401041665 1045.70299739 952.805338542 1065.72903906 913.03515625 c 128
 1085.76549739 873.244140625 1095.78372656 823.354166666 1095.78372656 763.365234375 c 0
 1095.78372656 648.307291666 1056.10729427 559.121419271 976.754429687 495.807617188 c 0
 897.890497396 432.885091146 784.816862257 401.423828125 637.533524271 401.423828125 c 0
 571.334592234 401.423828125 509.848078575 409.637695313 453.073983293 426.065429688 c 0
 397.365806931 442.577148437 349.467122396 467.793619791 309.377929688 501.71484375 c 128
 269.222981771 535.69140625 237.922526041 577.651041667 215.4765625 627.59375 c 128
 193.055338541 677.481119792 181.844726562 736.214518229 181.844726562 803.793945312 c 2
 181.844726562 810.951171875 l 1
 189.001953125 810.951171875 l 1
 300.387695312 810.951171875 l 1
 306.984375 810.951171875 l 1
EndSplineSet
EndChar

StartChar: T
Encoding: 84 84 285
Width: 1066
VWidth: 2137
Flags: W
LayerCount: 2
Fore
SplineSet
126.844726562 1664.99609375 m 1
 134.001953125 1664.99609375 l 1
 1033.6265 1664.99609375 l 1
 1040.78372656 1664.99609375 l 1
 1040.78372656 1657.83886719 l 1
 1040.78372656 1559.65429688 l 1
 1040.78372656 1552.49707031 l 1
 1033.6265 1552.49707031 l 1
 650.576519355 1552.49707031 l 1
 650.576519355 440.846679688 l 1
 650.576519355 433.689453125 l 1
 643.168258032 433.689453125 l 1
 524.460195093 433.689453125 l 1
 517.05193377 433.689453125 l 1
 517.05193377 440.846679688 l 1
 517.05193377 1552.49707031 l 1
 134.001953125 1552.49707031 l 1
 126.844726562 1552.49707031 l 1
 126.844726562 1559.65429688 l 1
 126.844726562 1657.83886719 l 1
 126.844726562 1664.99609375 l 1
EndSplineSet
EndChar

StartChar: U
Encoding: 85 85 286
Width: 1376
VWidth: 2134
Flags: W
LayerCount: 2
Fore
SplineSet
267.966796875 1661.5859375 m 1
 275.124023438 1661.5859375 l 1
 389.810546875 1661.5859375 l 1
 396.967773438 1661.5859375 l 1
 396.967773438 1654.42871094 l 1
 396.967773438 929.182617188 l 2
 396.967773438 780.217773437 424.592447917 673.124348958 479.841796875 607.90234375 c 0
 535.78662424 543.033203125 626.969176865 510.598632812 753.389454751 510.598632812 c 0
 819.955156796 510.598632812 876.344789115 519.106770833 922.558351707 536.123046875 c 0
 968.345800397 552.982421875 1004.88349045 578.634440104 1032.17142187 613.079101562 c 0
 1059.56269792 647.720377604 1079.32506771 691.061523437 1091.45853125 743.102539062 c 0
 1103.71048438 795.648111979 1109.83646094 857.674804688 1109.83646094 929.182617188 c 2
 1109.83646094 1654.42871094 l 1
 1109.83646094 1661.5859375 l 1
 1116.9936875 1661.5859375 l 1
 1232.50442969 1661.5859375 l 1
 1239.66165625 1661.5859375 l 1
 1239.66165625 1654.42871094 l 1
 1239.66165625 895.354492188 l 2
 1239.66165625 734.506835937 1199.82767187 611.454101562 1120.15970312 526.196289062 c 0
 1040.36282812 440.798502604 918.106078664 398.099609375 753.389454751 398.099609375 c 0
 587.546484917 398.099609375 465.136067708 441.649739583 386.158203125 528.75 c 0
 307.363932292 615.647135417 267.966796875 737.848632813 267.966796875 895.354492188 c 2
 267.966796875 1654.42871094 l 1
 267.966796875 1661.5859375 l 1
EndSplineSet
EndChar

StartChar: V
Encoding: 86 86 287
Width: 1169
VWidth: 2137
Flags: W
LayerCount: 2
Fore
SplineSet
139.940429688 1664.99609375 m 1
 150.000976562 1664.99609375 l 1
 269.637695312 1664.99609375 l 1
 274.766601562 1664.99609375 l 1
 276.415039062 1660.13964844 l 1
 643.966198162 598.493164062 l 1
 1009.01517187 1660.12597656 l 1
 1010.65677344 1664.99609375 l 1
 1015.79739844 1664.99609375 l 1
 1135.43411719 1664.99609375 l 1
 1145.4936875 1664.99609375 l 1
 1142.19485937 1655.4921875 l 1
 714.598084316 438.5 l 1
 712.88032906 433.689453125 l 1
 707.643686867 433.689453125 l 1
 577.791434856 433.689453125 l 1
 572.553788127 433.689453125 l 1
 570.836032871 438.5 l 1
 143.239257812 1655.4921875 l 1
 139.940429688 1664.99609375 l 1
EndSplineSet
EndChar

StartChar: W
Encoding: 87 87 288
Width: 1688
VWidth: 2137
Flags: W
LayerCount: 2
Fore
SplineSet
997.958335423 1659.65917969 m 1
 1273.76614476 625.686523438 l 1
 1536.43607031 1659.58789062 l 1
 1537.798375 1664.99609375 l 1
 1543.37552344 1664.99609375 l 1
 1661.36185156 1664.99609375 l 1
 1670.63919531 1664.99609375 l 1
 1668.28470313 1656.02246094 l 1
 1347.87225355 439.030273438 l 1
 1346.45045146 433.689453125 l 1
 1340.84845211 433.689453125 l 1
 1211.93311095 433.689453125 l 1
 1206.3321024 433.689453125 l 1
 1204.9103003 439.030273438 l 1
 923.967159764 1494.02246094 l 1
 643.025010026 439.030273438 l 1
 641.603207928 433.689453125 l 1
 636.001208582 433.689453125 l 1
 507.923095832 433.689453125 l 1
 502.299298823 433.689453125 l 1
 500.89334957 439.056640625 l 1
 185.50390625 1656.04882812 l 1
 183.192382812 1664.99609375 l 1
 192.432617188 1664.99609375 l 1
 307.118164062 1664.99609375 l 1
 312.716796875 1664.99609375 l 1
 314.065429688 1659.5625 l 1
 572.583880999 625.655273438 l 1
 853.33282418 1659.68945312 l 1
 854.773451532 1664.99609375 l 1
 860.346717596 1664.99609375 l 1
 990.935524782 1664.99609375 l 1
 996.534551719 1664.99609375 l 1
 997.958335423 1659.65917969 l 1
EndSplineSet
EndChar

StartChar: X
Encoding: 88 88 289
Width: 1169
VWidth: 2137
Flags: W
LayerCount: 2
Fore
SplineSet
999.801304687 436.90234375 m 1
 643.811397755 964.966796875 l 1
 289.520507812 436.915039062 l 1
 287.400390625 433.689453125 l 1
 283.540039062 433.689453125 l 1
 153.177734375 433.689453125 l 1
 139.765625 433.689453125 l 1
 147.232421875 444.831054688 l 1
 568.734104599 1066.2265625 l 1
 163.762695312 1653.8125 l 1
 156.151367188 1664.99609375 l 1
 169.6796875 1664.99609375 l 1
 303.341796875 1664.99609375 l 1
 307.223632812 1664.99609375 l 1
 309.340820312 1661.7421875 l 1
 643.805372209 1158.578125 l 1
 979.150914062 1661.74902344 l 1
 981.269078125 1664.99609375 l 1
 985.14603125 1664.99609375 l 1
 1118.80911719 1664.99609375 l 1
 1132.26028906 1664.99609375 l 1
 1124.74466406 1653.84082031 l 1
 723.928055495 1066.23535156 l 1
 1142.91653906 444.815429688 l 1
 1150.32864844 433.689453125 l 1
 1136.96048437 433.689453125 l 1
 1005.77298437 433.689453125 l 1
 1001.923375 433.689453125 l 1
 999.801304687 436.90234375 l 1
EndSplineSet
EndChar

StartChar: Y
Encoding: 89 89 290
Width: 1169
VWidth: 2137
Flags: W
LayerCount: 2
Fore
SplineSet
280.158203125 1661.56835938 m 1
 639.209698814 1084.81933594 l 1
 1007.54153906 1661.63574219 l 1
 1009.64505469 1664.99609375 l 1
 1013.60892187 1664.99609375 l 1
 1147.27200781 1664.99609375 l 1
 1160.38235937 1664.99609375 l 1
 1153.29153906 1653.96777344 l 1
 707.509152923 969.270507812 l 1
 707.509152923 440.846679688 l 1
 707.509152923 433.689453125 l 1
 700.157639289 433.689453125 l 1
 582.342811486 433.689453125 l 1
 574.990294643 433.689453125 l 1
 574.990294643 440.846679688 l 1
 574.990294643 961.0703125 l 1
 136.791992188 1654.046875 l 1
 129.952148438 1664.99609375 l 1
 142.862304688 1664.99609375 l 1
 274.049804688 1664.99609375 l 1
 278.065429688 1664.99609375 l 1
 280.158203125 1661.56835938 l 1
EndSplineSet
EndChar

StartChar: Z
Encoding: 90 90 291
Width: 1169
VWidth: 2137
Flags: W
LayerCount: 2
Fore
SplineSet
161.217773438 433.689453125 m 1
 161.217773438 440.846679688 l 1
 161.217773438 537.380859375 l 1
 161.217773438 539.798828125 l 1
 162.684570312 541.721679688 l 1
 947.929234375 1552.49707031 l 1
 234.380859375 1552.49707031 l 1
 227.223632812 1552.49707031 l 1
 227.223632812 1559.65429688 l 1
 227.223632812 1657.83886719 l 1
 227.223632812 1664.99609375 l 1
 234.380859375 1664.99609375 l 1
 1104.30325781 1664.99609375 l 1
 1111.46048437 1664.99609375 l 1
 1111.46048437 1657.83886719 l 1
 1111.46048437 1561.3046875 l 1
 1111.46048437 1558.88867188 l 1
 1109.99564062 1556.96777344 l 1
 325.563476562 546.188476562 l 1
 1109.25345312 546.188476562 l 1
 1116.41067969 546.188476562 l 1
 1116.41067969 539.03125 l 1
 1116.41067969 440.846679688 l 1
 1116.41067969 433.689453125 l 1
 1109.25345312 433.689453125 l 1
 168.375 433.689453125 l 1
 161.217773438 433.689453125 l 1
EndSplineSet
EndChar

StartChar: bracketleft
Encoding: 91 91 292
Width: 628
VWidth: 2106
Flags: W
LayerCount: 2
Fore
SplineSet
213.127179687 94.5234375 m 1
 213.127179687 1665.4765625 l 1
 213.127179687 1672.6335625 l 1
 220.284179688 1672.6335625 l 1
 543.715820312 1672.6335625 l 1
 550.872820313 1672.6335625 l 1
 550.872820313 1665.4765625 l 1
 550.872820313 1581.31835938 l 1
 550.872820313 1574.16135938 l 1
 543.715820312 1574.16135938 l 1
 335.527117187 1574.16135938 l 1
 335.527117187 185.838640625 l 1
 539.58984375 185.838640625 l 1
 546.74684375 185.838640625 l 1
 546.74684375 178.681640625 l 1
 546.74684375 94.5234375 l 1
 546.74684375 87.3664375 l 1
 539.58984375 87.3664375 l 1
 220.284179688 87.3664375 l 1
 213.127179687 87.3664375 l 1
 213.127179687 94.5234375 l 1
EndSplineSet
EndChar

